<svg width="70" height="70" viewBox="0 0 70 70" fill="none" xmlns="http://www.w3.org/2000/svg">
<circle cx="35" cy="35" r="35" fill="#C4C4C4"/>
<path d="M22.8853 35.0879C22.2701 35.0879 21.7926 34.8667 21.4527 34.4243H21.3912C21.4322 34.8345 21.4527 35.0835 21.4527 35.1714V37.1621H20.42V30.1396H21.255C21.2784 30.2305 21.3267 30.4473 21.4 30.79H21.4527C21.775 30.2979 22.2584 30.0518 22.9029 30.0518C23.5094 30.0518 23.981 30.2715 24.3179 30.7109C24.6578 31.1504 24.8277 31.7671 24.8277 32.561C24.8277 33.355 24.6549 33.9746 24.3092 34.4199C23.9664 34.8652 23.4918 35.0879 22.8853 35.0879ZM22.6348 30.8955C22.2247 30.8955 21.9244 31.0156 21.734 31.2559C21.5465 31.4961 21.4527 31.8799 21.4527 32.4072V32.561C21.4527 33.1528 21.5465 33.582 21.734 33.8486C21.9215 34.1123 22.2276 34.2441 22.6524 34.2441C23.0098 34.2441 23.2852 34.0977 23.4786 33.8047C23.672 33.5117 23.7686 33.0942 23.7686 32.5522C23.7686 32.0073 23.672 31.5957 23.4786 31.3174C23.2882 31.0361 23.0069 30.8955 22.6348 30.8955ZM28.8528 30.0518C29.0608 30.0518 29.2321 30.0664 29.3669 30.0957L29.2658 31.0581C29.1194 31.0229 28.967 31.0054 28.8088 31.0054C28.3957 31.0054 28.0603 31.1401 27.8025 31.4097C27.5476 31.6792 27.4201 32.0293 27.4201 32.46V35H26.3874V30.1396H27.196L27.3322 30.9966H27.385C27.5461 30.7065 27.7556 30.4766 28.0134 30.3066C28.2741 30.1367 28.5539 30.0518 28.8528 30.0518ZM34.9432 32.561C34.9432 33.355 34.7396 33.9746 34.3324 34.4199C33.9252 34.8652 33.3583 35.0879 32.6317 35.0879C32.1776 35.0879 31.7762 34.9854 31.4276 34.7803C31.079 34.5752 30.8109 34.2808 30.6234 33.897C30.4359 33.5132 30.3421 33.0679 30.3421 32.561C30.3421 31.7729 30.5443 31.1577 30.9486 30.7153C31.3529 30.2729 31.9227 30.0518 32.6581 30.0518C33.3612 30.0518 33.9178 30.2788 34.328 30.7329C34.7381 31.1841 34.9432 31.7935 34.9432 32.561ZM31.4056 32.561C31.4056 33.6831 31.8202 34.2441 32.6493 34.2441C33.4696 34.2441 33.8797 33.6831 33.8797 32.561C33.8797 31.4507 33.4667 30.8955 32.6405 30.8955C32.2069 30.8955 31.892 31.0391 31.6957 31.3262C31.5023 31.6133 31.4056 32.0249 31.4056 32.561ZM38.9331 30.9219H37.7466V35H36.7095V30.9219H35.9097V30.4385L36.7095 30.1221V29.8057C36.7095 29.2314 36.8442 28.8066 37.1138 28.5312C37.3833 28.2529 37.7949 28.1138 38.3486 28.1138C38.7119 28.1138 39.0693 28.1738 39.4209 28.2939L39.1484 29.0762C38.8936 28.9941 38.6504 28.9531 38.4189 28.9531C38.1846 28.9531 38.0132 29.0264 37.9048 29.1729C37.7993 29.3164 37.7466 29.5332 37.7466 29.8232V30.1396H38.9331V30.9219ZM40.792 35H39.7593V30.1396H40.792V35ZM39.6978 28.8521C39.6978 28.6675 39.7476 28.5254 39.8472 28.4258C39.9497 28.3262 40.0947 28.2764 40.2822 28.2764C40.4639 28.2764 40.6045 28.3262 40.7041 28.4258C40.8066 28.5254 40.8579 28.6675 40.8579 28.8521C40.8579 29.0278 40.8066 29.167 40.7041 29.2695C40.6045 29.3691 40.4639 29.4189 40.2822 29.4189C40.0947 29.4189 39.9497 29.3691 39.8472 29.2695C39.7476 29.167 39.6978 29.0278 39.6978 28.8521ZM43.6701 35H42.6373V28.1621H43.6701V35ZM47.6336 35.0879C46.8777 35.0879 46.2859 34.8682 45.8582 34.4287C45.4334 33.9863 45.221 33.3784 45.221 32.605C45.221 31.811 45.4187 31.187 45.8142 30.7329C46.2097 30.2788 46.7532 30.0518 47.4446 30.0518C48.0862 30.0518 48.593 30.2466 48.9651 30.6362C49.3372 31.0259 49.5232 31.562 49.5232 32.2446V32.8027H46.2845C46.2991 33.2744 46.4265 33.6377 46.6668 33.8926C46.907 34.1445 47.2454 34.2705 47.6819 34.2705C47.969 34.2705 48.2356 34.2441 48.4817 34.1914C48.7307 34.1357 48.9973 34.0449 49.2815 33.9189V34.7583C49.0296 34.8784 48.7747 34.9634 48.5169 35.0132C48.2591 35.063 47.9646 35.0879 47.6336 35.0879ZM47.4446 30.834C47.1165 30.834 46.8528 30.938 46.6536 31.146C46.4573 31.354 46.3401 31.6572 46.302 32.0557H48.5081C48.5022 31.6543 48.4055 31.3511 48.218 31.146C48.0305 30.938 47.7727 30.834 47.4446 30.834ZM29.604 47.0879C28.9888 47.0879 28.5113 46.8667 28.1714 46.4243H28.1099C28.1509 46.8345 28.1714 47.0835 28.1714 47.1714V49.1621H27.1387V42.1396H27.9737C27.9971 42.2305 28.0454 42.4473 28.1187 42.79H28.1714C28.4937 42.2979 28.9771 42.0518 29.6216 42.0518C30.2281 42.0518 30.6997 42.2715 31.0367 42.7109C31.3765 43.1504 31.5464 43.7671 31.5464 44.561C31.5464 45.355 31.3736 45.9746 31.0279 46.4199C30.6851 46.8652 30.2105 47.0879 29.604 47.0879ZM29.3536 42.8955C28.9434 42.8955 28.6431 43.0156 28.4527 43.2559C28.2652 43.4961 28.1714 43.8799 28.1714 44.4072V44.561C28.1714 45.1528 28.2652 45.582 28.4527 45.8486C28.6402 46.1123 28.9463 46.2441 29.3711 46.2441C29.7286 46.2441 30.0039 46.0977 30.1973 45.8047C30.3907 45.5117 30.4873 45.0942 30.4873 44.5522C30.4873 44.0073 30.3907 43.5957 30.1973 43.3174C30.0069 43.0361 29.7256 42.8955 29.3536 42.8955ZM34.1388 47H33.1061V42.1396H34.1388V47ZM33.0446 40.8521C33.0446 40.6675 33.0944 40.5254 33.194 40.4258C33.2966 40.3262 33.4416 40.2764 33.6291 40.2764C33.8107 40.2764 33.9513 40.3262 34.051 40.4258C34.1535 40.5254 34.2048 40.6675 34.2048 40.8521C34.2048 41.0278 34.1535 41.167 34.051 41.2695C33.9513 41.3691 33.8107 41.4189 33.6291 41.4189C33.4416 41.4189 33.2966 41.3691 33.194 41.2695C33.0944 41.167 33.0446 41.0278 33.0446 40.8521ZM37.9398 47.0879C37.2044 47.0879 36.6448 46.874 36.2611 46.4463C35.8802 46.0156 35.6898 45.3989 35.6898 44.5962C35.6898 43.7788 35.889 43.1504 36.2874 42.7109C36.6888 42.2715 37.2674 42.0518 38.0233 42.0518C38.536 42.0518 38.9974 42.147 39.4075 42.3374L39.0955 43.168C38.659 42.998 38.2987 42.9131 38.0145 42.9131C37.1737 42.9131 36.7532 43.4712 36.7532 44.5874C36.7532 45.1323 36.8572 45.5425 37.0653 45.8179C37.2762 46.0903 37.5838 46.2266 37.9881 46.2266C38.4481 46.2266 38.8831 46.1123 39.2933 45.8838V46.7847C39.1087 46.8931 38.911 46.9707 38.7 47.0176C38.492 47.0645 38.2386 47.0879 37.9398 47.0879ZM42.6064 46.2529C42.8584 46.2529 43.1103 46.2134 43.3623 46.1343V46.9121C43.248 46.9619 43.1001 47.0029 42.9184 47.0352C42.7397 47.0703 42.5537 47.0879 42.3603 47.0879C41.3818 47.0879 40.8925 46.5723 40.8925 45.541V42.9219H40.229V42.4648L40.9409 42.0869L41.2924 41.0586H41.9296V42.1396H43.3139V42.9219H41.9296V45.5234C41.9296 45.7725 41.9912 45.957 42.1142 46.0771C42.2402 46.1943 42.4043 46.2529 42.6064 46.2529Z" fill="black"/>
</svg>
