<svg width="94" height="94" viewBox="0 0 94 94" fill="none" xmlns="http://www.w3.org/2000/svg">
<circle cx="47" cy="47" r="47" fill="#007C96"/>
<g clip-path="url(#clip0)">
<path d="M58.1683 39.7272C57.6692 39.2044 56.98 38.8954 56.1958 38.8954H52.251V38.8479C52.251 38.2538 52.0133 37.6835 51.6093 37.3032C51.2053 36.8992 50.6587 36.6616 50.0646 36.6616H42.9354C42.3175 36.6616 41.7709 36.8992 41.3669 37.3032C40.9629 37.7072 40.7253 38.2538 40.7253 38.8479V38.8954H36.8042C36.02 38.8954 35.3308 39.2044 34.8317 39.7272C34.3327 40.2262 34 40.9392 34 41.6996V53.5342C34 54.3184 34.3089 55.0076 34.8317 55.5066C35.3308 56.0057 36.0437 56.3384 36.8042 56.3384H56.1958C56.98 56.3384 57.6692 56.0295 58.1683 55.5066C58.6673 55.0076 59 54.2947 59 53.5342V41.6996C59 40.9154 58.6911 40.2262 58.1683 39.7272ZM57.7643 53.5342H57.7405C57.7405 53.962 57.5741 54.3422 57.289 54.6274C57.0038 54.9125 56.6236 55.0789 56.1958 55.0789H36.8042C36.3764 55.0789 35.9962 54.9125 35.711 54.6274C35.4259 54.3422 35.2595 53.962 35.2595 53.5342V41.6996C35.2595 41.2719 35.4259 40.8916 35.711 40.6065C35.9962 40.3213 36.3764 40.1549 36.8042 40.1549H41.3907C41.7471 40.1549 42.0323 39.8698 42.0323 39.5133V38.8241C42.0323 38.5627 42.1274 38.3251 42.2937 38.1587C42.4601 37.9924 42.6977 37.8973 42.9591 37.8973H50.0646C50.326 37.8973 50.5637 37.9924 50.73 38.1587C50.8964 38.3251 50.9914 38.5627 50.9914 38.8241V39.5133C50.9914 39.8698 51.2766 40.1549 51.6331 40.1549H56.2196C56.6473 40.1549 57.0276 40.3213 57.3127 40.6065C57.5979 40.8916 57.7643 41.2719 57.7643 41.6996V53.5342Z" fill="white"/>
<path d="M46.4998 41.7709C44.8838 41.7709 43.4105 42.4363 42.3648 43.4819C41.2954 44.5513 40.6538 46.0009 40.6538 47.6169C40.6538 49.2329 41.3192 50.7063 42.3648 51.7519C43.4342 52.8213 44.8838 53.4629 46.4998 53.4629C48.1158 53.4629 49.5892 52.7975 50.6348 51.7519C51.7042 50.6825 52.3458 49.2329 52.3458 47.6169C52.3458 46.0009 51.6804 44.5276 50.6348 43.4819C49.5892 42.4363 48.1158 41.7709 46.4998 41.7709ZM49.7318 50.8726C48.9 51.6806 47.7593 52.2034 46.4998 52.2034C45.2403 52.2034 44.0996 51.6806 43.2679 50.8726C42.4361 50.0409 41.9371 48.9002 41.9371 47.6407C41.9371 46.3812 42.4599 45.2405 43.2679 44.4087C44.0996 43.577 45.2403 43.0779 46.4998 43.0779C47.7593 43.0779 48.9 43.6008 49.7318 44.4087C50.5635 45.2405 51.0626 46.3812 51.0626 47.6407C51.0863 48.9002 50.5635 50.0409 49.7318 50.8726Z" fill="white"/>
<path d="M54.9599 44.0761C55.603 44.0761 56.1243 43.5547 56.1243 42.9116C56.1243 42.2685 55.603 41.7472 54.9599 41.7472C54.3167 41.7472 53.7954 42.2685 53.7954 42.9116C53.7954 43.5547 54.3167 44.0761 54.9599 44.0761Z" fill="white"/>
</g>
<defs>
<clipPath id="clip0">
<rect width="25" height="25" fill="white" transform="translate(34 34)"/>
</clipPath>
</defs>
</svg>
