<svg width="32" height="31" viewBox="0 0 32 31" fill="none" xmlns="http://www.w3.org/2000/svg">
<circle cx="16.2079" cy="15.3758" r="15.3758" fill="#5EAEF3"/>
<g clip-path="url(#clip0)">
<path d="M25.2041 11.6622C25.1619 10.7044 25.007 10.0459 24.7851 9.47531C24.5562 8.86963 24.204 8.32736 23.7426 7.87657C23.2919 7.41877 22.746 7.06304 22.1474 6.83771C21.5735 6.61583 20.9184 6.46094 19.9606 6.4187C18.9956 6.3729 18.6892 6.3623 16.2417 6.3623C13.7943 6.3623 13.4879 6.3729 12.5265 6.41513C11.5687 6.45736 10.9102 6.61239 10.3397 6.83414C9.73388 7.06304 9.19162 7.41519 8.74083 7.87657C8.28303 8.32736 7.92743 8.8732 7.70197 9.47187C7.48009 10.0459 7.32519 10.7008 7.28296 11.6587C7.23715 12.6237 7.22656 12.93 7.22656 15.3775C7.22656 17.825 7.23715 18.1313 7.27939 19.0927C7.32162 20.0506 7.47665 20.7091 7.69853 21.2797C7.92743 21.8853 8.28303 22.4276 8.74083 22.8784C9.19162 23.3362 9.73747 23.6919 10.3361 23.9173C10.9102 24.1391 11.5651 24.294 12.5231 24.3363C13.4843 24.3786 13.7908 24.3891 16.2383 24.3891C18.6858 24.3891 18.9921 24.3786 19.9536 24.3363C20.9114 24.294 21.5699 24.1391 22.1404 23.9173C23.3518 23.4489 24.3097 22.491 24.7781 21.2797C24.9998 20.7056 25.1549 20.0506 25.1971 19.0927C25.2393 18.1313 25.2499 17.825 25.2499 15.3775C25.2499 12.93 25.2463 12.6236 25.2041 11.6622ZM23.5807 19.0223C23.542 19.9027 23.3941 20.3781 23.2708 20.695C22.9679 21.4804 22.3446 22.1037 21.5593 22.4066C21.2423 22.5298 20.7635 22.6777 19.8866 22.7164C18.9357 22.7587 18.6506 22.7692 16.2453 22.7692C13.8401 22.7692 13.5513 22.7587 12.6039 22.7164C11.7236 22.6777 11.2482 22.5298 10.9312 22.4066C10.5404 22.2621 10.1847 22.0332 9.89594 21.7339C9.59659 21.4416 9.36769 21.0894 9.22326 20.6986C9.1 20.3817 8.95213 19.9027 8.91347 19.0259C8.8711 18.0751 8.86065 17.7898 8.86065 15.3845C8.86065 12.9793 8.8711 12.6905 8.91347 11.7433C8.95213 10.8629 9.1 10.3875 9.22326 10.0705C9.36769 9.67958 9.59659 9.32399 9.8995 9.03511C10.1917 8.73578 10.5438 8.50688 10.9348 8.36258C11.2517 8.23932 11.7307 8.09144 12.6075 8.05265C13.5584 8.01042 13.8437 7.99983 16.2488 7.99983C18.6576 7.99983 18.9427 8.01042 19.8901 8.05265C20.7705 8.09144 21.2459 8.23932 21.5629 8.36258C21.9537 8.50688 22.3094 8.73578 22.5982 9.03511C22.8975 9.32743 23.1264 9.67958 23.2708 10.0705C23.3941 10.3875 23.542 10.8663 23.5807 11.7433C23.623 12.6941 23.6336 12.9793 23.6336 15.3845C23.6336 17.7898 23.623 18.0715 23.5807 19.0223Z" fill="white"/>
<path d="M16.2422 10.7468C13.6856 10.7468 11.6113 12.821 11.6113 15.3777C11.6113 17.9344 13.6856 20.0085 16.2422 20.0085C18.7989 20.0085 20.873 17.9344 20.873 15.3777C20.873 12.821 18.7989 10.7468 16.2422 10.7468ZM16.2422 18.3816C14.5836 18.3816 13.2383 17.0364 13.2383 15.3777C13.2383 13.719 14.5836 12.3738 16.2422 12.3738C17.9009 12.3738 19.2461 13.719 19.2461 15.3777C19.2461 17.0364 17.9009 18.3816 16.2422 18.3816Z" fill="white"/>
<path d="M22.1369 10.5638C22.1369 11.1608 21.6528 11.6449 21.0557 11.6449C20.4587 11.6449 19.9746 11.1608 19.9746 10.5638C19.9746 9.96661 20.4587 9.48267 21.0557 9.48267C21.6528 9.48267 22.1369 9.96661 22.1369 10.5638Z" fill="white"/>
</g>
<defs>
<clipPath id="clip0">
<rect width="18.0268" height="18.0268" fill="white" transform="translate(7.19434 6.3623)"/>
</clipPath>
</defs>
</svg>
