<svg width="31" height="31" viewBox="0 0 31 31" fill="none" xmlns="http://www.w3.org/2000/svg">
<circle cx="15.6239" cy="15.3758" r="15.3758" fill="#5EAEF3"/>
<g clip-path="url(#clip0)">
<path d="M24.6324 24.3892V24.3884H24.6369V17.7771C24.6369 14.5427 23.9406 12.0513 20.1595 12.0513C18.3418 12.0513 17.122 13.0488 16.624 13.9944H16.5714V12.3532H12.9863V24.3884H16.7194V18.429C16.7194 16.8599 17.0168 15.3427 18.96 15.3427C20.8746 15.3427 20.9031 17.1333 20.9031 18.5297V24.3892H24.6324Z" fill="white"/>
<path d="M6.9082 12.354H10.6458V24.3892H6.9082V12.354Z" fill="white"/>
<path d="M8.77509 6.3623C7.58005 6.3623 6.61035 7.332 6.61035 8.52704C6.61035 9.72205 7.58005 10.712 8.77509 10.712C9.9701 10.712 10.9398 9.72205 10.9398 8.52704C10.9391 7.332 9.96935 6.3623 8.77509 6.3623Z" fill="white"/>
</g>
<defs>
<clipPath id="clip0">
<rect width="18.0268" height="18.0268" fill="white" transform="translate(6.61035 6.3623)"/>
</clipPath>
</defs>
</svg>
