<svg width="17" height="17" viewBox="0 0 17 17" fill="none" xmlns="http://www.w3.org/2000/svg">
<path d="M8.50017 0C5.37563 0 2.8335 2.54213 2.8335 5.66668C2.8335 6.60467 3.06801 7.53469 3.51383 8.35958L8.19029 16.8174C8.25255 16.9301 8.37118 17 8.50017 17C8.62917 17 8.7478 16.9301 8.81006 16.8174L13.4882 8.35679C13.9323 7.53469 14.1669 6.60463 14.1669 5.66664C14.1669 2.54213 11.6247 0 8.50017 0ZM12.8667 8.01683L8.50017 15.914L4.13536 8.01995C3.74695 7.30123 3.54185 6.48743 3.54185 5.66668C3.54185 2.9326 5.76613 0.708355 8.50017 0.708355C11.2342 0.708355 13.4585 2.93263 13.4585 5.66668C13.4585 6.48739 13.2534 7.30123 12.8667 8.01683Z" fill="#5EAEF3"/>
<path d="M8.49983 2.83331C6.93755 2.83331 5.6665 4.10436 5.6665 5.66664C5.6665 7.22894 6.93755 8.49999 8.49983 8.49999C10.0621 8.49999 11.3331 7.22894 11.3331 5.66667C11.3331 4.1044 10.0621 2.83331 8.49983 2.83331ZM8.49983 7.79167C7.32802 7.79167 6.37483 6.83847 6.37483 5.66667C6.37483 4.49486 7.32802 3.54167 8.49983 3.54167C9.67163 3.54167 10.6248 4.49486 10.6248 5.66667C10.6248 6.83844 9.67163 7.79167 8.49983 7.79167Z" fill="#5EAEF3"/>
</svg>
