<svg width="538" height="227" viewBox="0 0 538 227" fill="none" xmlns="http://www.w3.org/2000/svg">
<path d="M134.602 227L134.212 213.705C146.446 213.347 157.921 209.147 167.395 201.561L175.709 211.944C163.961 221.35 149.746 226.557 134.602 227ZM119.847 225.875C105.17 223.168 91.5692 215.621 81.5498 204.625L91.3817 195.666C99.4562 204.529 110.422 210.612 122.259 212.795L119.847 225.875ZM186.214 201.467L175.854 193.127C183.504 183.623 187.591 172.188 187.671 160.058L200.972 160.146C200.871 175.311 195.768 189.6 186.214 201.467ZM72.8111 192.615C67.1042 182.613 64.0872 171.23 64.0872 159.696V150.434H77.3879V159.696C77.3879 168.922 79.7998 178.026 84.3633 186.023L72.8111 192.615ZM200.973 146.68H187.672V106.415H200.973V146.68ZM200.973 92.9933H187.672V52.7283H200.973V92.9933ZM200.973 39.3065H187.672V0H200.973V39.3065Z" fill="#FF7A00"/>
<path d="M134.432 157.885L130.401 168.392L96.7105 155.983L85.8708 97.4841L96.7105 0L105.183 20.798L134.432 157.885Z" fill="#00A4C6"/>
<path d="M193.802 168.392H130.402L96.7107 0L193.802 168.392Z" fill="#0098B7"/>
<path d="M96.7101 0V155.983L63.0236 168.392L60.7271 155.912L88.1577 18.9713L96.7101 0Z" fill="#008BA8"/>
<path d="M96.71 0L63.0235 168.392H0L96.71 0Z" fill="#0098B7"/>
<path d="M260.719 123L257.406 112.125H240.75L237.438 123H227L243.125 77.125H254.969L271.156 123H260.719ZM255.094 104C252.031 94.1458 250.302 88.5729 249.906 87.2812C249.531 85.9896 249.26 84.9688 249.094 84.2188C248.406 86.8854 246.438 93.4792 243.188 104H255.094ZM278.661 79.0312C278.661 75.9271 280.39 74.375 283.849 74.375C287.307 74.375 289.036 75.9271 289.036 79.0312C289.036 80.5104 288.599 81.6667 287.724 82.5C286.87 83.3125 285.578 83.7188 283.849 83.7188C280.39 83.7188 278.661 82.1562 278.661 79.0312ZM288.599 123H279.068V88.0625H288.599V123ZM321.01 87.4062C322.302 87.4062 323.375 87.5 324.229 87.6875L323.51 96.625C322.739 96.4167 321.802 96.3125 320.698 96.3125C317.656 96.3125 315.281 97.0938 313.573 98.6562C311.885 100.219 311.041 102.406 311.041 105.219V123H301.51V88.0625H308.729L310.135 93.9375H310.604C311.687 91.9792 313.145 90.4062 314.979 89.2188C316.833 88.0104 318.843 87.4062 321.01 87.4062ZM351.827 123H342.14V85.375H329.734V77.3125H364.234V85.375H351.827V123ZM372.989 79.0312C372.989 75.9271 374.718 74.375 378.176 74.375C381.635 74.375 383.364 75.9271 383.364 79.0312C383.364 80.5104 382.926 81.6667 382.051 82.5C381.197 83.3125 379.905 83.7188 378.176 83.7188C374.718 83.7188 372.989 82.1562 372.989 79.0312ZM382.926 123H373.395V88.0625H382.926V123ZM410.025 123.625C399.15 123.625 393.712 117.656 393.712 105.719C393.712 99.7812 395.192 95.25 398.15 92.125C401.108 88.9792 405.348 87.4062 410.869 87.4062C414.91 87.4062 418.535 88.1979 421.744 89.7812L418.931 97.1562C417.431 96.5521 416.035 96.0625 414.744 95.6875C413.452 95.2917 412.16 95.0938 410.869 95.0938C405.91 95.0938 403.431 98.6146 403.431 105.656C403.431 112.49 405.91 115.906 410.869 115.906C412.702 115.906 414.4 115.667 415.962 115.188C417.525 114.688 419.087 113.917 420.65 112.875V121.031C419.108 122.01 417.546 122.688 415.962 123.062C414.4 123.438 412.421 123.625 410.025 123.625ZM440.811 104L444.967 98.6875L454.749 88.0625H465.499L451.624 103.219L466.342 123H455.342L445.28 108.844L441.186 112.125V123H431.655V74.375H441.186V96.0625L440.686 104H440.811ZM488.691 94.1875C486.67 94.1875 485.087 94.8333 483.941 96.125C482.795 97.3958 482.139 99.2083 481.973 101.562H495.348C495.306 99.2083 494.691 97.3958 493.504 96.125C492.316 94.8333 490.712 94.1875 488.691 94.1875ZM490.035 123.625C484.41 123.625 480.014 122.073 476.848 118.969C473.681 115.865 472.098 111.469 472.098 105.781C472.098 99.9271 473.556 95.4062 476.473 92.2188C479.41 89.0104 483.462 87.4062 488.629 87.4062C493.566 87.4062 497.41 88.8125 500.16 91.625C502.91 94.4375 504.285 98.3229 504.285 103.281V107.906H481.754C481.858 110.615 482.66 112.729 484.16 114.25C485.66 115.771 487.764 116.531 490.473 116.531C492.577 116.531 494.566 116.312 496.441 115.875C498.316 115.438 500.275 114.74 502.316 113.781V121.156C500.65 121.99 498.868 122.604 496.973 123C495.077 123.417 492.764 123.625 490.035 123.625ZM529.634 116.031C531.3 116.031 533.3 115.667 535.634 114.938V122.031C533.259 123.094 530.342 123.625 526.884 123.625C523.071 123.625 520.29 122.667 518.54 120.75C516.811 118.812 515.946 115.917 515.946 112.062V95.2188H511.384V91.1875L516.634 88L519.384 80.625H525.478V88.0625H535.259V95.2188H525.478V112.062C525.478 113.417 525.853 114.417 526.603 115.062C527.373 115.708 528.384 116.031 529.634 116.031Z" fill="#0098B7"/>
</svg>
