<svg width="811" height="824" viewBox="0 0 811 824" fill="none" xmlns="http://www.w3.org/2000/svg">
<path style="mix-blend-mode:color-dodge" d="M855.597 140.718C857.754 138.035 850.943 133.536 842.722 133.731C831.507 133.999 831.507 104.391 811.471 115.732C806.265 118.671 796.021 112.964 792.272 109.184C792.023 108.94 791.786 108.684 791.56 108.415C785.36 101.318 783.982 91.7092 779.227 83.7463C772.925 73.1861 762.41 70.1253 751.421 68.2596C705.771 60.4674 699.311 90.8678 698.509 106.818C698.08 115.232 672.285 104.855 668.242 104.184C656.089 102.16 645.654 105.684 638.245 116.5C632.508 124.902 628.815 136.718 617.532 135.609C602.059 134.097 587.388 128.951 571.069 133.072C567.443 133.978 564.132 135.984 561.525 138.852C558.137 143.072 560.565 142.889 567.105 142.657C567.105 142.657 845.421 142.889 847.521 142.657C854.682 141.852 854.682 141.852 855.597 140.718Z" fill="url(#paint0_linear)"/>
<path style="mix-blend-mode:color-dodge" d="M290.523 482.681C292.066 480.748 287.178 477.409 281.267 477.638C273.148 477.831 273.148 456.549 258.793 464.668C255.058 466.795 247.686 462.682 244.974 459.958L244.454 459.396C240.005 454.282 239.014 447.358 235.604 441.629C231.057 434.02 223.506 431.805 215.598 430.47C182.78 424.846 178.168 446.761 177.584 458.254C177.275 464.317 158.731 456.83 155.824 456.356C147.087 454.897 139.585 457.428 134.259 465.231C130.134 471.276 127.487 479.799 119.384 478.991C108.245 477.901 97.7058 474.193 85.9652 477.234C83.3649 477.898 80.99 479.341 79.1125 481.399C76.6443 484.439 78.4143 484.316 83.1235 484.14C83.1235 484.14 283.216 484.316 284.71 484.14C289.858 483.49 289.858 483.49 290.523 482.681Z" fill="url(#paint1_linear)"/>
<path style="mix-blend-mode:color-dodge" d="M644.561 821.336C646.623 818.788 640.144 814.482 632.317 814.676C621.632 814.939 621.632 786.663 602.535 797.489C597.664 800.3 587.823 794.853 584.218 791.232C583.975 791.004 583.763 790.758 583.536 790.512C577.625 783.728 576.326 774.555 571.796 766.945C565.787 756.875 555.768 753.941 545.294 752.166C501.807 744.732 495.701 773.746 494.954 789.071C494.548 797.102 469.963 787.19 466.115 786.558C454.536 784.625 444.582 787.981 437.535 798.315C432.078 806.346 428.555 817.646 417.821 816.556C403.076 815.115 389.095 810.194 373.554 814.131C370.099 814.995 366.944 816.91 364.461 819.649C361.213 823.674 363.551 823.498 369.787 823.287C369.787 823.287 634.899 823.515 636.896 823.287C643.717 822.426 643.717 822.426 644.561 821.336Z" fill="url(#paint2_linear)"/>
<path style="mix-blend-mode:color-dodge" d="M122.905 31.6893C123.798 30.5821 120.973 28.7017 117.546 28.7896C112.886 28.8951 112.886 16.488 104.555 21.2856C102.396 22.5158 98.1412 20.1433 96.5661 18.5617L96.2575 18.2453C93.6918 15.2754 93.1234 11.2158 91.1423 7.96465C88.5117 3.55363 84.1435 2.28831 79.5804 1.49749C60.6299 -1.70094 57.9181 10.9698 57.5933 17.6302C57.4147 21.145 46.6972 16.8043 45.0084 16.5231C42.6937 15.9679 40.2795 16.158 38.0634 17.0698C35.8473 17.9817 33.9263 19.5754 32.5371 21.6547C30.1501 25.1694 28.6237 30.0901 23.9307 29.6156C17.4352 29.0005 11.3944 26.8389 4.60666 28.5612C3.1011 28.9392 1.72651 29.7745 0.644433 30.9688C-0.784568 32.7261 0.238455 32.7261 2.96655 32.5504C2.96655 32.5504 118.667 32.6559 119.544 32.5504C122.515 32.1989 122.515 32.1989 122.905 31.6893Z" fill="url(#paint3_linear)"/>
<path d="M291.043 516.441L289.419 518.339" stroke="#105C75" stroke-linecap="round" stroke-linejoin="round"/>
<path d="M660.125 175.944L568.565 350.353L503.689 319.641L454.325 296.28L495.501 272.213L498.928 270.199L660.125 175.944Z" fill="#D14E4E"/>
<path d="M660.125 175.944L422.514 278.832L322.661 256.177L660.125 175.944Z" fill="#D14E4E"/>
<path d="M503.689 319.641L454.325 380.856V296.28L503.689 319.641Z" fill="#893030"/>
<path d="M660.125 175.944L454.325 296.28V380.856L422.514 278.832L660.125 175.944Z" fill="#AF3C3C"/>
<path d="M545.44 420.161L495.998 514.35L460.969 497.765L434.299 485.143L456.535 472.154L458.393 471.068L545.44 420.161Z" fill="white"/>
<path d="M545.44 420.161L417.125 475.725L363.209 463.495L545.44 420.161Z" fill="white"/>
<path d="M460.969 497.765L434.299 530.818V485.143L460.969 497.765Z" fill="#BFACAC"/>
<path d="M545.44 420.161L434.299 485.143V530.818L417.125 475.725L545.44 420.161Z" fill="#EAE5E5"/>
<path d="M373.189 315.469L318.253 420.109L279.314 401.679L249.701 387.67L274.409 373.23L276.463 372.014L373.189 315.469Z" fill="white"/>
<path d="M373.189 315.469L230.617 377.193L170.711 363.603L373.189 315.469Z" fill="white"/>
<path d="M279.314 401.679L249.701 438.408V387.67L279.314 401.679Z" fill="#BFACAC"/>
<path d="M373.19 315.469L249.701 387.67V438.408L230.618 377.193L373.19 315.469Z" fill="#EAE5E5"/>
<path d="M325.16 482.252L290.55 548.175L266.025 536.56L247.36 527.731L262.925 518.64L264.22 517.882L325.16 482.252Z" fill="white"/>
<path d="M325.16 482.252L235.339 521.139L197.59 512.584L325.16 482.252Z" fill="white"/>
<path d="M266.025 536.56L247.36 559.712V527.731L266.025 536.56Z" fill="#BFACAC"/>
<path d="M325.16 482.252L247.36 527.731V559.712L235.339 521.139L325.16 482.252Z" fill="#EAE5E5"/>
<defs>
<linearGradient id="paint0_linear" x1="855.992" y1="104.879" x2="559.978" y2="104.879" gradientUnits="userSpaceOnUse">
<stop stop-color="white" stop-opacity="0"/>
<stop offset="0.16" stop-color="white" stop-opacity="0.18"/>
<stop offset="0.58" stop-color="white" stop-opacity="0.61"/>
<stop offset="0.87" stop-color="white" stop-opacity="0.89"/>
<stop offset="1" stop-color="white"/>
</linearGradient>
<linearGradient id="paint1_linear" x1="167656" y1="15956.6" x2="195545" y2="15956.6" gradientUnits="userSpaceOnUse">
<stop stop-color="#FF689C" stop-opacity="0"/>
<stop offset="0.16" stop-color="#FF688F" stop-opacity="0.18"/>
<stop offset="0.58" stop-color="#FF686E" stop-opacity="0.61"/>
<stop offset="0.87" stop-color="#FF6859" stop-opacity="0.89"/>
<stop offset="1" stop-color="#FF6851"/>
</linearGradient>
<linearGradient id="paint2_linear" x1="644.967" y1="787.138" x2="362.983" y2="787.138" gradientUnits="userSpaceOnUse">
<stop stop-color="white"/>
<stop offset="0.13" stop-color="white" stop-opacity="0.89"/>
<stop offset="0.42" stop-color="white" stop-opacity="0.61"/>
<stop offset="0.84" stop-color="white" stop-opacity="0.18"/>
<stop offset="1" stop-color="white" stop-opacity="0"/>
</linearGradient>
<linearGradient id="paint3_linear" x1="64765.3" y1="2516.99" x2="74092.9" y2="2516.99" gradientUnits="userSpaceOnUse">
<stop stop-color="white" stop-opacity="0.84"/>
<stop offset="0.13" stop-color="white" stop-opacity="0.89"/>
<stop offset="0.42" stop-color="white" stop-opacity="0.61"/>
<stop offset="0.84" stop-color="white" stop-opacity="0.18"/>
<stop offset="1" stop-color="white" stop-opacity="0"/>
</linearGradient>
</defs>
</svg>
