<svg width="32" height="31" viewBox="0 0 32 31" fill="none" xmlns="http://www.w3.org/2000/svg">
<circle cx="15.7919" cy="15.3758" r="15.3758" fill="#5EAEF3"/>
<g clip-path="url(#clip0)">
<path d="M24.8052 9.7862C24.1348 10.0803 23.4205 10.2752 22.6757 10.3698C23.4419 9.91239 24.0266 9.19357 24.3015 8.32716C23.5872 8.75304 22.7986 9.05386 21.9581 9.22174C21.2798 8.49954 20.3131 8.05225 19.2585 8.05225C17.2125 8.05225 15.5653 9.71297 15.5653 11.7489C15.5653 12.0418 15.5901 12.3235 15.6509 12.5916C12.5785 12.4418 9.85978 10.9692 8.03344 8.726C7.71459 9.2792 7.52756 9.91239 7.52756 10.594C7.52756 11.8739 8.18667 13.0085 9.16913 13.6654C8.57537 13.6541 7.99288 13.4817 7.49939 13.2102C7.49939 13.2214 7.49939 13.2361 7.49939 13.2507C7.49939 15.0467 8.78043 16.5384 10.4603 16.882C10.1595 16.9643 9.83162 17.0037 9.49136 17.0037C9.25476 17.0037 9.0159 16.9902 8.79169 16.9406C9.27053 18.4042 10.6293 19.4801 12.245 19.5151C10.9876 20.4987 9.39109 21.0913 7.66276 21.0913C7.35969 21.0913 7.069 21.0778 6.77832 21.0406C8.41538 22.0963 10.3555 22.6991 12.4478 22.6991C19.2484 22.6991 22.9664 17.0657 22.9664 12.1826C22.9664 12.0193 22.9608 11.8615 22.9529 11.7049C23.6864 11.1844 24.3027 10.5343 24.8052 9.7862Z" fill="white"/>
</g>
<defs>
<clipPath id="clip0">
<rect width="18.0268" height="18.0268" fill="white" transform="translate(6.77832 6.3623)"/>
</clipPath>
</defs>
</svg>
