<svg width="17" height="17" viewBox="0 0 17 17" fill="none" xmlns="http://www.w3.org/2000/svg">
<path d="M16.892 8.16935C16.7401 7.9616 13.1215 3.08242 8.49992 3.08242C3.87833 3.08242 0.259582 7.9616 0.107877 8.16915C-0.035959 8.36624 -0.035959 8.63356 0.107877 8.83066C0.259582 9.03841 3.87833 13.9176 8.49992 13.9176C13.1215 13.9176 16.7401 9.03838 16.892 8.83082C17.036 8.63376 17.036 8.36624 16.892 8.16935ZM8.49992 12.7967C5.09563 12.7967 2.14715 9.55831 1.27434 8.49962C2.14602 7.44001 5.08832 4.20329 8.49992 4.20329C11.904 4.20329 14.8523 7.44114 15.7255 8.50038C14.8538 9.55996 11.9115 12.7967 8.49992 12.7967Z" fill="#007C96"/>
<path d="M8.49986 5.13737C6.64573 5.13737 5.13721 6.64589 5.13721 8.50002C5.13721 10.3542 6.64573 11.8627 8.49986 11.8627C10.354 11.8627 11.8625 10.3542 11.8625 8.50002C11.8625 6.64589 10.354 5.13737 8.49986 5.13737ZM8.49986 10.7418C7.2637 10.7418 6.25811 9.73614 6.25811 8.50002C6.25811 7.2639 7.26374 6.25827 8.49986 6.25827C9.73598 6.25827 10.7416 7.2639 10.7416 8.50002C10.7416 9.73614 9.73601 10.7418 8.49986 10.7418Z" fill="#007C96"/>
</svg>
