<svg width="18" height="18" viewBox="0 0 18 18" fill="none" xmlns="http://www.w3.org/2000/svg">
<g clip-path="url(#clip0)">
<path d="M11.9783 12.8314C11.5365 12.8314 11.1356 12.6064 10.906 12.2295C10.8198 12.088 10.6352 12.0431 10.4937 12.1294C10.3523 12.2155 10.3074 12.4001 10.3936 12.5416C10.5533 12.8037 10.7694 13.0154 11.0211 13.1669L10.7102 14.5779L9.96058 13.7147C10.0967 13.5583 10.0638 13.3755 9.94659 13.2736C9.82164 13.1649 9.63211 13.1781 9.52337 13.3031L8.99589 13.9097L7.66719 12.4334C7.78026 12.2162 7.84881 11.9779 7.86838 11.7295C10.4399 12.4865 13.0123 10.5457 13.0123 7.87967V5.39999C13.0123 5.23431 12.878 5.09999 12.7123 5.09999C12.5466 5.09999 12.4123 5.23431 12.4123 5.39999V7.87967C12.4123 9.7613 10.8815 11.2922 8.99979 11.2922C7.11812 11.2922 5.5873 9.76134 5.5873 7.87967V5.33369C6.31866 5.29218 6.94075 4.83299 7.16245 4.00079C8.41157 4.80074 9.81174 5.31903 11.2811 5.52471C11.4458 5.54766 11.597 5.4328 11.6198 5.26919C11.6428 5.10513 11.5284 4.95348 11.3643 4.93049C9.8681 4.72105 8.408 4.16107 7.11062 3.24262C6.91228 3.10214 6.6361 3.24506 6.6373 3.48941C6.63733 3.49687 6.63452 4.2409 6.07015 4.58043C5.71326 4.79515 5.35229 4.72582 5.29019 4.72514C5.13685 4.72368 5.00691 4.83873 4.98944 4.99049C4.98614 5.01951 4.9873 4.9207 4.9873 7.39108C4.7869 7.28713 4.6498 7.08029 4.6498 6.84224V3.18749C4.6498 2.79461 4.96941 2.47499 5.3623 2.47499C5.48496 2.47499 5.59529 2.4003 5.64085 2.28641C6.05065 1.26195 7.02835 0.599999 8.13174 0.599999H10.7045C12.1838 0.599999 13.3873 1.80348 13.3873 3.28278V6.84224C13.3873 7.00791 13.5216 7.14224 13.6873 7.14224C13.853 7.14224 13.9873 7.00791 13.9873 6.84224V3.28278C13.9873 1.47266 12.5147 0 10.7045 0H8.13174C6.84475 0 5.69736 0.736124 5.15856 1.89078C4.53126 1.989 4.0498 2.53308 4.0498 3.18749V6.84224C4.0498 7.41617 4.45135 7.89853 4.99034 8.02802C5.04632 9.56023 5.96534 10.8759 7.2748 11.502V11.5811C7.2748 11.9153 7.14444 12.2294 6.90778 12.4654C6.48805 12.8839 5.95911 12.8314 6.02121 12.8314C4.30986 12.8314 2.9248 14.2163 2.9248 15.9278V17.7C2.9248 17.8656 3.05913 18 3.2248 18C3.39048 18 3.5248 17.8656 3.5248 17.7V15.9278C3.5248 14.548 4.64136 13.4314 6.02129 13.4314C6.15257 13.4314 6.28363 13.4175 6.41323 13.3898L6.83185 15.2895C6.88483 15.5301 7.19001 15.6074 7.35133 15.4217L7.94237 14.7411L7.57716 17.6628C7.55661 17.8272 7.67327 17.9771 7.83763 17.9976C8.00233 18.0182 8.15199 17.9013 8.17254 17.7372L8.5946 14.3606C8.61369 14.3818 8.78045 14.5688 8.80183 14.5877C8.92565 14.6964 9.11428 14.6853 9.22438 14.5612C9.2837 14.4933 9.13025 14.6696 9.4043 14.3545L9.82711 17.7371C9.84763 17.9013 9.99725 18.0182 10.162 17.9976C10.3264 17.9771 10.443 17.8271 10.4225 17.6627L10.0573 14.7411L10.6483 15.4216C10.8099 15.6077 11.1149 15.5296 11.1678 15.2895L11.5864 13.3896C11.7135 13.4166 11.8445 13.4313 11.9783 13.4313C13.3581 13.4314 14.4748 14.5479 14.4748 15.9278V17.7C14.4748 17.8656 14.6091 18 14.7748 18C14.9405 18 15.0748 17.8656 15.0748 17.7V15.9278C15.0748 14.2164 13.6899 12.8313 11.9783 12.8314ZM7.28942 14.5779L6.97843 13.1664C7.09281 13.0974 7.2001 13.0151 7.29898 12.9211L8.02633 13.7293L7.28942 14.5779Z" fill="#5EAEF3"/>
</g>
<defs>
<clipPath id="clip0">
<rect width="18" height="18" fill="white"/>
</clipPath>
</defs>
</svg>
