<svg width="46" height="43" viewBox="0 0 46 43" fill="none" xmlns="http://www.w3.org/2000/svg">
<rect width="46" height="43" rx="10" fill="#5EAEF3"/>
<path d="M32.2031 30.043H12.7969C12.3302 30.043 11.9531 30.42 11.9531 30.8867V31.8359C11.9531 31.952 12.048 32.0469 12.1641 32.0469H32.8359C32.952 32.0469 33.0469 31.952 33.0469 31.8359V30.8867C33.0469 30.42 32.6698 30.043 32.2031 30.043ZM15.7948 27.8281C15.8476 27.8281 15.9003 27.8229 15.953 27.8149L20.388 27.0371C20.4407 27.0266 20.4908 27.0028 20.5277 26.9633L31.7048 15.7862C31.7292 15.7618 31.7486 15.7329 31.7619 15.701C31.7751 15.6691 31.7819 15.6349 31.7819 15.6003C31.7819 15.5658 31.7751 15.5316 31.7619 15.4997C31.7486 15.4678 31.7292 15.4388 31.7048 15.4145L27.3226 11.0296C27.2725 10.9795 27.2065 10.9531 27.1354 10.9531C27.0642 10.9531 26.9982 10.9795 26.9481 11.0296L15.7711 22.2066C15.7315 22.2462 15.7078 22.2937 15.6973 22.3464L14.9194 26.7813C14.8938 26.9226 14.9029 27.068 14.9461 27.2049C14.9893 27.3418 15.0652 27.4661 15.1673 27.5671C15.3413 27.7358 15.5602 27.8281 15.7948 27.8281Z" fill="white"/>
</svg>
