<svg width="120" height="120" viewBox="0 0 120 120" fill="none" xmlns="http://www.w3.org/2000/svg">
<path d="M84.375 71.3438V9.375C84.3728 7.38656 83.5819 5.4802 82.1758 4.07417C80.7698 2.66813 78.8634 1.87723 76.875 1.875H28.125C26.1366 1.87723 24.2302 2.66813 22.8242 4.07417C21.4181 5.4802 20.6272 7.38656 20.625 9.375V110.625C20.6272 112.613 21.4181 114.52 22.8242 115.926C24.2302 117.332 26.1366 118.123 28.125 118.125H76.875C78.8634 118.123 80.7698 117.332 82.1758 115.926C83.5819 114.52 84.3728 112.613 84.375 110.625V108.656C89.0004 108.192 93.2883 106.026 96.4069 102.579C99.5255 99.1315 101.252 94.6486 101.252 90C101.252 85.3514 99.5255 80.8685 96.4069 77.4212C93.2883 73.9739 89.0004 71.808 84.375 71.3438ZM61.3477 5.625L60.4102 9.375H44.5898L43.6523 5.625H61.3477ZM80.625 110.625C80.6237 111.619 80.2282 112.572 79.5252 113.275C78.8222 113.978 77.8692 114.374 76.875 114.375H28.125C27.1308 114.374 26.1778 113.978 25.4748 113.275C24.7718 112.572 24.3763 111.619 24.375 110.625V9.375C24.3763 8.38084 24.7718 7.42777 25.4748 6.72479C26.1778 6.02181 27.1308 5.6263 28.125 5.625H39.7852L41.3062 11.7047C41.4076 12.1103 41.6417 12.4704 41.9712 12.7278C42.3008 12.9851 42.7069 13.1249 43.125 13.125H61.875C62.2931 13.1249 62.6992 12.9851 63.0287 12.7278C63.3583 12.4704 63.5924 12.1103 63.6937 11.7047L65.2148 5.625H76.875C77.8692 5.6263 78.8222 6.02181 79.5252 6.72479C80.2282 7.42777 80.6237 8.38084 80.625 9.375V71.3438C75.9996 71.808 71.7117 73.9739 68.5931 77.4212C65.4745 80.8685 63.7477 85.3514 63.7477 90C63.7477 94.6486 65.4745 99.1315 68.5931 102.579C71.7117 106.026 75.9996 108.192 80.625 108.656V110.625ZM82.5 105C79.5333 105 76.6332 104.12 74.1664 102.472C71.6997 100.824 69.7771 98.4811 68.6418 95.7402C67.5065 92.9994 67.2094 89.9834 67.7882 87.0736C68.367 84.1639 69.7956 81.4912 71.8934 79.3934C73.9912 77.2956 76.6639 75.867 79.5736 75.2882C82.4834 74.7094 85.4994 75.0065 88.2402 76.1418C90.9811 77.2771 93.3238 79.1997 94.972 81.6665C96.6203 84.1332 97.5 87.0333 97.5 90C97.4955 93.9769 95.9137 97.7896 93.1017 100.602C90.2896 103.414 86.4769 104.996 82.5 105Z" fill="#5EAEF3"/>
<path d="M63.2508 40.8867L67.8891 36.2484C68.9868 35.1507 69.6035 33.6618 69.6035 32.1094C69.6035 30.5569 68.9868 29.0681 67.8891 27.9703C66.7913 26.8726 65.3025 26.2559 63.75 26.2559C62.1976 26.2559 60.7087 26.8726 59.611 27.9703L54.9727 32.6086L44.0133 26.7094C43.6585 26.5176 43.2513 26.4454 42.8522 26.5037C42.4532 26.562 42.0836 26.7476 41.7985 27.0328L38.0485 30.7828C37.8634 30.9682 37.7193 31.1903 37.6252 31.4347C37.5312 31.6791 37.4893 31.9405 37.5023 32.2021C37.5154 32.4637 37.583 32.7197 37.7009 32.9536C37.8187 33.1874 37.9842 33.3941 38.1867 33.5602L46.8961 40.6852L41.836 45.7453L36.3328 43.4977C35.9909 43.359 35.6157 43.324 35.254 43.3969C34.8923 43.4698 34.56 43.6475 34.2985 43.9078L30.5485 47.6578C30.3472 47.8595 30.1944 48.1043 30.1018 48.3737C30.0092 48.6432 29.9791 48.9302 30.0139 49.213C30.0487 49.4957 30.1474 49.7669 30.3026 50.0059C30.4577 50.2448 30.6652 50.4453 30.9094 50.5922L39.8836 55.9758L45.2672 64.95C45.414 65.194 45.6143 65.4014 45.8531 65.5565C46.0918 65.7116 46.3628 65.8104 46.6453 65.8453C46.7215 65.8546 46.7982 65.8593 46.875 65.8594C47.1213 65.8596 47.3652 65.8112 47.5929 65.7171C47.8205 65.623 48.0273 65.485 48.2016 65.3109L51.9516 61.5609C52.212 61.299 52.3897 60.9663 52.4627 60.6042C52.5356 60.2421 52.5005 59.8666 52.3617 59.5242L50.1141 54.0234L55.1742 48.9633L62.2992 57.6727C62.4653 57.8752 62.672 58.0407 62.9059 58.1586C63.1397 58.2764 63.3957 58.344 63.6573 58.3571C63.9189 58.3701 64.1803 58.3282 64.4247 58.2342C64.6692 58.1401 64.8912 57.996 65.0766 57.8109L68.8266 54.0609C69.1115 53.7756 69.2968 53.4061 69.3551 53.0071C69.4133 52.6081 69.3414 52.201 69.15 51.8461L63.2508 40.8867ZM63.8883 53.693L56.7633 44.9836C56.5972 44.7811 56.3906 44.6156 56.1567 44.4977C55.9228 44.3798 55.6669 44.3122 55.4053 44.2992C55.1437 44.2862 54.8823 44.328 54.6378 44.4221C54.3934 44.5161 54.1713 44.6603 53.986 44.8453L46.5797 52.2516C46.3194 52.5131 46.1417 52.8454 46.0688 53.2071C45.9959 53.5688 46.0309 53.944 46.1696 54.2859L48.4172 59.7891L47.2477 60.9609L42.8578 53.6438C42.6984 53.3812 42.4782 53.161 42.2156 53.0016L34.8985 48.6117L36.0703 47.4422L41.5735 49.6898C41.9154 49.8285 42.2906 49.8635 42.6523 49.7906C43.014 49.7177 43.3463 49.54 43.6078 49.2797L51.0141 41.8734C51.1991 41.6881 51.3433 41.466 51.4373 41.2216C51.5314 40.9771 51.5732 40.7157 51.5602 40.4541C51.5472 40.1926 51.4796 39.9366 51.3617 39.7027C51.2438 39.4688 51.0783 39.2622 50.8758 39.0961L42.1664 31.9711L43.4649 30.6727L54.4242 36.5719C54.7791 36.7633 55.1862 36.8352 55.5852 36.7769C55.9842 36.7187 56.3538 36.5333 56.6391 36.2484L62.2641 30.6234C62.4592 30.4283 62.6909 30.2735 62.9458 30.1679C63.2008 30.0623 63.4741 30.0079 63.75 30.0079C64.026 30.0079 64.2993 30.0623 64.5542 30.1679C64.8092 30.2735 65.0408 30.4283 65.236 30.6234C65.4311 30.8186 65.5859 31.0502 65.6915 31.3052C65.7971 31.5602 65.8515 31.8334 65.8515 32.1094C65.8515 32.3853 65.7971 32.6586 65.6915 32.9136C65.5859 33.1685 65.4311 33.4002 65.236 33.5953L59.611 39.2203C59.3261 39.5056 59.1408 39.8752 59.0825 40.2742C59.0242 40.6732 59.0961 41.0803 59.2875 41.4352L65.1867 52.3945L63.8883 53.693Z" fill="#5EAEF3"/>
<path d="M91.1719 82.9109C90.9797 82.7569 90.759 82.6424 90.5224 82.5738C90.2859 82.5051 90.0382 82.4838 89.7934 82.5109C89.5486 82.5381 89.3115 82.6132 89.0958 82.7319C88.88 82.8507 88.6898 83.0108 88.5359 83.2031L82.1098 91.2356L77.9145 88.4393C77.5007 88.1693 76.9971 88.0736 76.5131 88.1729C76.0291 88.2721 75.6039 88.5584 75.3298 88.9695C75.0558 89.3806 74.955 89.8832 75.0495 90.3682C75.144 90.8531 75.4261 91.2812 75.8344 91.5593L81.4594 95.3093C81.8497 95.5699 82.3235 95.6746 82.7872 95.6029C83.2509 95.5312 83.6709 95.2882 83.9642 94.9219L91.4642 85.5469C91.6181 85.3546 91.7327 85.1339 91.8013 84.8974C91.8699 84.6609 91.8913 84.4131 91.8642 84.1683C91.837 83.9236 91.7619 83.6865 91.6431 83.4707C91.5244 83.255 91.3643 83.0647 91.1719 82.9109Z" fill="#5EAEF3"/>
<path d="M52.5 69.375H33.75C33.2527 69.375 32.7758 69.5725 32.4242 69.9242C32.0725 70.2758 31.875 70.7527 31.875 71.25C31.875 71.7473 32.0725 72.2242 32.4242 72.5758C32.7758 72.9275 33.2527 73.125 33.75 73.125H52.5C52.9973 73.125 53.4742 72.9275 53.8258 72.5758C54.1775 72.2242 54.375 71.7473 54.375 71.25C54.375 70.7527 54.1775 70.2758 53.8258 69.9242C53.4742 69.5725 52.9973 69.375 52.5 69.375Z" fill="#5EAEF3"/>
<path d="M52.5 75H33.75C33.2527 75 32.7758 75.1975 32.4242 75.5492C32.0725 75.9008 31.875 76.3777 31.875 76.875C31.875 77.3723 32.0725 77.8492 32.4242 78.2008C32.7758 78.5525 33.2527 78.75 33.75 78.75H52.5C52.9973 78.75 53.4742 78.5525 53.8258 78.2008C54.1775 77.8492 54.375 77.3723 54.375 76.875C54.375 76.3777 54.1775 75.9008 53.8258 75.5492C53.4742 75.1975 52.9973 75 52.5 75Z" fill="#5EAEF3"/>
<path d="M41.25 80.625H33.75C33.2527 80.625 32.7758 80.8225 32.4242 81.1742C32.0725 81.5258 31.875 82.0027 31.875 82.5C31.875 82.9973 32.0725 83.4742 32.4242 83.8258C32.7758 84.1775 33.2527 84.375 33.75 84.375H41.25C41.7473 84.375 42.2242 84.1775 42.5758 83.8258C42.9275 83.4742 43.125 82.9973 43.125 82.5C43.125 82.0027 42.9275 81.5258 42.5758 81.1742C42.2242 80.8225 41.7473 80.625 41.25 80.625Z" fill="#5EAEF3"/>
<path d="M48.75 80.625H46.875C46.3777 80.625 45.9008 80.8225 45.5492 81.1742C45.1975 81.5258 45 82.0027 45 82.5C45 82.9973 45.1975 83.4742 45.5492 83.8258C45.9008 84.1775 46.3777 84.375 46.875 84.375H48.75C49.2473 84.375 49.7242 84.1775 50.0758 83.8258C50.4275 83.4742 50.625 82.9973 50.625 82.5C50.625 82.0027 50.4275 81.5258 50.0758 81.1742C49.7242 80.8225 49.2473 80.625 48.75 80.625Z" fill="#5EAEF3"/>
</svg>
