<svg width="17" height="17" viewBox="0 0 17 17" fill="none" xmlns="http://www.w3.org/2000/svg">
<g clip-path="url(#clip0)">
<path d="M9.89796 15.9135C9.72783 15.8453 9.53445 15.928 9.46622 16.0982C9.40921 16.2404 9.26464 16.336 9.10653 16.336H7.89355C7.73544 16.336 7.59088 16.2404 7.53387 16.0982C7.46563 15.928 7.27236 15.8454 7.10213 15.9135C6.93193 15.9818 6.84925 16.1751 6.91748 16.3453C7.07696 16.743 7.46005 17 7.89355 17H9.10653C9.54003 17 9.92313 16.743 10.0826 16.3453C10.1508 16.1751 10.0682 15.9818 9.89796 15.9135Z" fill="#5EAEF3"/>
<path d="M13.7974 14.203C13.7072 13.7381 13.4207 13.3355 13.0112 13.0978C13.0857 13.0369 13.1556 12.9697 13.2193 12.8956C13.5338 12.5303 13.673 12.0473 13.6013 11.5707C13.4848 10.7963 13.1552 10.0727 12.6481 9.4781C12.2685 9.03294 11.8019 8.67422 11.2796 8.42214C11.9187 7.74035 12.3108 6.82427 12.3108 5.81825C12.3108 4.07728 11.1371 2.60522 9.53949 2.1517C9.7571 1.89188 9.87584 1.56729 9.87584 1.2243C9.87587 0.549213 9.32662 0 8.65157 0C8.65154 0 8.65151 0 8.65147 0C8.37897 0 8.12374 0.0886191 7.93286 0.249488C7.72188 0.427258 7.60571 0.677111 7.60567 0.952996C7.60567 1.13634 7.75432 1.28503 7.9377 1.28503C8.12105 1.28503 8.26974 1.13638 8.26974 0.952996C8.26974 0.874006 8.30035 0.808164 8.36078 0.75723C8.4321 0.697133 8.53533 0.664029 8.6515 0.664029H8.65154C8.96046 0.664029 9.21181 0.915311 9.21181 1.22423C9.21181 1.43348 9.13033 1.63017 8.98237 1.77813C8.83442 1.92605 8.63776 2.00753 8.42858 2.00753C8.42855 2.00753 8.42855 2.00753 8.42851 2.00753C8.42038 2.00753 8.41241 2.00816 8.40444 2.00876C6.34731 2.05976 4.68951 3.74903 4.68948 5.81822C4.68948 6.82424 5.08154 7.74031 5.72067 8.42211C5.19845 8.67418 4.73181 9.03288 4.35217 9.47806C3.84512 10.0726 3.51551 10.7962 3.39897 11.5706C3.32725 12.0473 3.46647 12.5302 3.78094 12.8956C3.84469 12.9696 3.91455 13.0369 3.98902 13.0977C3.57953 13.3355 3.29302 13.738 3.20287 14.203C3.11246 14.6692 3.22847 15.1511 3.52109 15.525L4.23214 16.4336C4.51941 16.8007 4.9558 16.9981 5.39843 16.9981C5.64971 16.9981 5.90305 16.9345 6.13222 16.8022C6.7651 16.4368 7.03631 15.6501 6.76308 14.9724L6.33174 13.9023C6.30292 13.8308 6.26885 13.7623 6.23083 13.6964H8.66615C8.84953 13.6964 8.99818 13.5477 8.99818 13.3644C8.99818 13.181 8.84953 13.0323 8.66615 13.0323H5.59964V12.3324C5.59964 12.2422 5.67295 12.1689 5.7631 12.1689H11.2372C11.3273 12.1689 11.4007 12.2422 11.4007 12.3324V13.0782C11.0712 13.2588 10.8111 13.5485 10.6685 13.9023L10.2372 14.9724C9.96393 15.6501 10.2351 16.4368 10.868 16.8022C11.0972 16.9345 11.3505 16.9981 11.6018 16.9981C12.0444 16.9981 12.4809 16.8007 12.7681 16.4336L13.4791 15.525C13.7718 15.1511 13.8878 14.6692 13.7974 14.203ZM5.35351 5.81825C5.35354 4.08322 6.76514 2.67166 8.50013 2.67162C10.2351 2.67166 11.6467 4.08322 11.6468 5.81825C11.6468 7.55328 10.2352 8.96484 8.50013 8.96488C6.7651 8.96484 5.35351 7.55328 5.35351 5.81825ZM5.71592 14.1506L6.14726 15.2207C6.2975 15.5935 6.14829 16.0262 5.80022 16.2271C5.45218 16.4281 5.00285 16.341 4.75512 16.0244L4.04407 15.1158C3.86999 14.8934 3.80099 14.6068 3.85478 14.3295C3.90857 14.0522 4.07973 13.8121 4.32437 13.6709C4.56898 13.5296 4.86246 13.5015 5.12952 13.5935C5.39657 13.6856 5.6103 13.8887 5.71592 14.1506ZM11.2394 10.8408C11.056 10.8408 10.9074 10.9895 10.9074 11.1729V11.5049H6.0951V11.1729C6.0951 10.9895 5.94645 10.8408 5.76307 10.8408C5.57968 10.8408 5.43103 10.9895 5.43103 11.1729V11.5746C5.13961 11.7028 4.93554 11.9942 4.93554 12.3324V12.8013C4.6841 12.7761 4.45078 12.6559 4.2842 12.4624C4.09604 12.2437 4.01273 11.9547 4.05563 11.6695C4.24572 10.406 5.08815 9.36205 6.27081 8.90677C6.89808 9.36079 7.66833 9.62891 8.50013 9.62891C9.33194 9.62891 10.1022 9.36079 10.7295 8.90677C11.9121 9.36205 12.7545 10.406 12.9446 11.6695C12.9875 11.9547 12.9042 12.2437 12.716 12.4624C12.5495 12.6559 12.3161 12.7761 12.0647 12.8013V12.3324C12.0647 11.995 11.8616 11.7043 11.5714 11.5756V11.1729C11.5714 10.9895 11.4228 10.8408 11.2394 10.8408ZM12.9562 15.1158L12.2452 16.0244C11.9975 16.3409 11.5482 16.428 11.2001 16.2271C10.852 16.0261 10.7028 15.5934 10.8531 15.2206L11.2844 14.1505C11.39 13.8886 11.6038 13.6855 11.8708 13.5934C11.9742 13.5578 12.0816 13.5402 12.1886 13.5402C12.3578 13.5402 12.5261 13.5843 12.676 13.6708C12.9206 13.8121 13.0917 14.0521 13.1455 14.3294C13.1993 14.6068 13.1303 14.8934 12.9562 15.1158Z" fill="#5EAEF3"/>
<path d="M10.2191 13.1295C10.1574 13.0678 10.0717 13.0322 9.98438 13.0322C9.89705 13.0322 9.81139 13.0677 9.74963 13.1295C9.68787 13.1913 9.65234 13.2769 9.65234 13.3643C9.65234 13.4519 9.68787 13.5372 9.74963 13.599C9.81139 13.6611 9.89705 13.6963 9.98438 13.6963C10.0717 13.6963 10.1574 13.6611 10.2191 13.599C10.2809 13.5372 10.3164 13.4516 10.3164 13.3643C10.3164 13.2769 10.2809 13.1913 10.2191 13.1295Z" fill="#5EAEF3"/>
<path d="M9.41474 6.95214C9.2723 6.83666 9.06322 6.85861 8.94774 7.00102C8.83741 7.13715 8.67395 7.21521 8.49933 7.21521C8.32472 7.21521 8.16122 7.13711 8.05092 7.00102C7.93548 6.85854 7.7264 6.83673 7.58392 6.95214C7.44145 7.06759 7.41957 7.27667 7.53505 7.41914C7.77205 7.71156 8.12354 7.87924 8.49933 7.87924C8.87513 7.87924 9.22665 7.71153 9.46362 7.41914C9.5791 7.27667 9.55722 7.06759 9.41474 6.95214Z" fill="#5EAEF3"/>
<path d="M7.66145 5.58343C7.36027 5.28225 6.87019 5.28225 6.56894 5.58343C6.43928 5.71309 6.43924 5.9233 6.56894 6.05299C6.69859 6.18268 6.90884 6.18268 7.03849 6.05302C7.08076 6.01076 7.14959 6.01076 7.19189 6.05302C7.25674 6.11784 7.34171 6.15028 7.42667 6.15028C7.51164 6.15028 7.59664 6.11784 7.66145 6.05302C7.79111 5.92337 7.79111 5.71312 7.66145 5.58343Z" fill="#5EAEF3"/>
<path d="M10.4319 5.58341C10.1307 5.28226 9.64062 5.28226 9.33943 5.58341C9.20977 5.71307 9.20977 5.92331 9.33943 6.053C9.40424 6.11785 9.48924 6.15025 9.57421 6.15025C9.65918 6.15025 9.74418 6.11781 9.80899 6.053C9.85126 6.01077 9.92009 6.0107 9.96239 6.053C10.092 6.18269 10.3023 6.18266 10.4319 6.05297C10.5616 5.92331 10.5616 5.7131 10.4319 5.58341Z" fill="#5EAEF3"/>
</g>
<defs>
<clipPath id="clip0">
<rect width="17" height="17" fill="white"/>
</clipPath>
</defs>
</svg>
