<svg width="18" height="18" viewBox="0 0 18 18" fill="none" xmlns="http://www.w3.org/2000/svg">
<g clip-path="url(#clip0)">
<path d="M17.6296 14.9829H0.585327V15.724H17.6296V14.9829Z" fill="#5EAEF3"/>
<path d="M17.3714 3.30888C16.1336 2.58743 14.727 2.97067 13.7653 3.41915L10.8982 4.75609L5.9672 2.276L3.03066 2.40217L7.1025 6.53014L4.50751 7.76285L1.80766 6.73534L0 7.57821L1.63362 9.60681C1.46103 9.81271 1.30463 10.1026 1.44661 10.4071C1.63206 10.8048 2.18019 11.0052 3.07927 11.0051C3.26365 11.0051 3.46281 10.9967 3.67656 10.9798C4.6635 10.9019 5.73351 10.65 6.40257 10.338L16.6512 5.55895C17.5364 5.14614 17.9773 4.7127 17.9992 4.23376C18.0105 3.98536 17.9108 3.62316 17.3714 3.30888ZM16.338 4.88729L6.08937 9.66636C5.51935 9.93217 4.5835 10.1549 3.7052 10.2337C2.80749 10.3143 2.32751 10.2131 2.16751 10.1272C2.20045 10.0821 2.26196 10.0113 2.37545 9.91139L2.64164 9.6771L1.17035 7.8501L1.83678 7.53931L4.53952 8.568L8.36222 6.75208L4.73105 3.07082L5.80636 3.02461L10.8859 5.57936L14.0784 4.09073C15.2443 3.54706 16.2266 3.49948 16.9982 3.94908L16.9983 3.94912C17.1927 4.06239 17.2606 4.16121 17.2589 4.19996C17.2588 4.20263 17.2365 4.46837 16.338 4.88729Z" fill="#5EAEF3"/>
</g>
<defs>
<clipPath id="clip0">
<rect width="18" height="18" fill="white"/>
</clipPath>
</defs>
</svg>
