<svg width="18" height="19" viewBox="0 0 18 19" fill="none" xmlns="http://www.w3.org/2000/svg">
<g clip-path="url(#clip0)">
<path d="M10.125 16.25H7.125C6.918 16.25 6.75 16.082 6.75 15.875C6.75 15.668 6.918 15.5 7.125 15.5H10.125C10.7452 15.5 11.25 14.9952 11.25 14.375V10.625C11.25 10.418 11.418 10.25 11.625 10.25C11.832 10.25 12 10.418 12 10.625V14.375C12 15.4085 11.1592 16.25 10.125 16.25Z" fill="#777777"/>
<path d="M17.625 8.75H10.125C9.918 8.75 9.75 8.582 9.75 8.375C9.75 8.168 9.918 8 10.125 8H17.625C17.832 8 18 8.168 18 8.375C18 8.582 17.832 8.75 17.625 8.75Z" fill="#777777"/>
<path d="M6 18.5C5.835 18.5 5.67375 18.4722 5.5215 18.4183L1.029 16.9205C0.414 16.7157 0 16.1442 0 15.5V2C0 1.17275 0.67275 0.5 1.5 0.5C1.6665 0.5 1.8285 0.52775 1.97925 0.5825L6.471 2.0795C7.086 2.2835 7.5 2.855 7.5 3.5V17C7.5 17.8272 6.82725 18.5 6 18.5ZM1.5 1.25C1.086 1.25 0.75 1.58675 0.75 2V15.5C0.75 15.821 0.957 16.106 1.266 16.2095L5.766 17.7095C6.258 17.8842 6.75 17.4905 6.75 17V3.5C6.75 3.17825 6.543 2.89325 6.234 2.79125L1.734 1.29125C1.65675 1.2635 1.578 1.25 1.5 1.25Z" fill="#777777"/>
<path d="M11.625 6.5C11.418 6.5 11.25 6.332 11.25 6.125V2.375C11.25 1.75475 10.7452 1.25 10.125 1.25H1.5C1.293 1.25 1.125 1.082 1.125 0.875C1.125 0.668 1.293 0.5 1.5 0.5H10.125C11.1593 0.5 12 1.3415 12 2.375V6.125C12 6.332 11.832 6.5 11.625 6.5Z" fill="#777777"/>
<path d="M14.6251 11.75C14.5291 11.75 14.4331 11.7133 14.3596 11.6405C14.2133 11.4943 14.2133 11.2565 14.3596 11.1103L17.0941 8.37578L14.3596 5.64128C14.2133 5.49503 14.2133 5.25728 14.3596 5.11103C14.5058 4.96478 14.7436 4.96478 14.8898 5.11103L17.8898 8.11103C18.0361 8.25728 18.0361 8.49503 17.8898 8.64128L14.8898 11.6413C14.8171 11.7133 14.7211 11.75 14.6251 11.75Z" fill="#777777"/>
</g>
<defs>
<clipPath id="clip0">
<rect width="18" height="18" fill="white" transform="translate(0 0.5)"/>
</clipPath>
</defs>
</svg>
