<svg width="150" height="150" viewBox="0 0 150 150" fill="none" xmlns="http://www.w3.org/2000/svg">
<path d="M131.25 14.0625H18.75C13.5723 14.0625 9.375 18.2598 9.375 23.4375V28.125C9.375 33.3027 13.5723 37.5 18.75 37.5H131.25C136.428 37.5 140.625 33.3027 140.625 28.125V23.4375C140.625 18.2598 136.428 14.0625 131.25 14.0625Z" fill="#5EAEF3"/>
<path d="M21.8115 46.875C21.4821 46.8733 21.1561 46.9409 20.8546 47.0736C20.5532 47.2063 20.2831 47.401 20.0619 47.6451C19.8408 47.8892 19.6736 48.1772 19.5712 48.4902C19.4688 48.8033 19.4336 49.1344 19.4677 49.4619L27.1757 123.454C27.1742 123.476 27.1742 123.497 27.1757 123.519C27.5785 126.941 29.2238 130.096 31.7994 132.386C34.375 134.675 37.7015 135.939 41.1474 135.938H108.85C112.295 135.937 115.62 134.673 118.194 132.384C120.768 130.094 122.413 126.94 122.815 123.519V123.457L130.512 49.4619C130.546 49.1344 130.511 48.8033 130.408 48.4902C130.306 48.1772 130.139 47.8892 129.917 47.6451C129.696 47.401 129.426 47.2063 129.125 47.0736C128.823 46.9409 128.497 46.8733 128.168 46.875H21.8115ZM94.7197 99.8116C95.1653 100.245 95.5204 100.762 95.7643 101.333C96.0083 101.905 96.1362 102.519 96.1406 103.14C96.145 103.762 96.0258 104.378 95.79 104.952C95.5542 105.527 95.2065 106.05 94.767 106.489C94.3276 106.928 93.8052 107.276 93.2302 107.511C92.6553 107.747 92.0392 107.866 91.4179 107.861C90.7966 107.856 90.1824 107.728 89.611 107.484C89.0397 107.24 88.5226 106.884 88.0898 106.439L75 93.3487L61.9072 106.439C61.0241 107.297 59.8388 107.773 58.6075 107.764C57.3761 107.755 56.1977 107.262 55.3268 106.392C54.456 105.521 53.9626 104.343 53.9533 103.112C53.944 101.881 54.4196 100.695 55.2773 99.8116L68.3701 86.7188L55.2773 73.626C54.4196 72.7425 53.944 71.557 53.9533 70.3257C53.9626 69.0944 54.456 67.9162 55.3268 67.0457C56.1977 66.1752 57.3761 65.6823 58.6075 65.6736C59.8388 65.6649 61.0241 66.141 61.9072 66.9991L75 80.0889L88.0898 66.9991C88.9729 66.141 90.1582 65.6649 91.3895 65.6736C92.6208 65.6823 93.7993 66.1752 94.6701 67.0457C95.541 67.9162 96.0344 69.0944 96.0437 70.3257C96.053 71.557 95.5774 72.7425 94.7197 73.626L81.6269 86.7188L94.7197 99.8116Z" fill="#5EAEF3"/>
</svg>
