<svg width="46" height="43" viewBox="0 0 46 43" fill="none" xmlns="http://www.w3.org/2000/svg">
<rect width="46" height="43" rx="10" fill="#D10000"/>
<path d="M31.875 11.3438H13.125C12.2621 11.3438 11.5625 12.0433 11.5625 12.9062V13.6875C11.5625 14.5504 12.2621 15.25 13.125 15.25H31.875C32.7379 15.25 33.4375 14.5504 33.4375 13.6875V12.9062C33.4375 12.0433 32.7379 11.3438 31.875 11.3438Z" fill="white"/>
<path d="M13.6352 16.8125C13.5803 16.8122 13.5259 16.8235 13.4757 16.8456C13.4254 16.8677 13.3804 16.9002 13.3436 16.9409C13.3067 16.9815 13.2788 17.0295 13.2618 17.0817C13.2447 17.1339 13.2388 17.1891 13.2445 17.2437L14.5292 29.5757C14.5289 29.5793 14.5289 29.5829 14.5292 29.5864C14.5963 30.1568 14.8706 30.6827 15.2998 31.0643C15.7291 31.4458 16.2835 31.6565 16.8578 31.6563H28.1415C28.7157 31.6562 29.2699 31.4455 29.6989 31.0639C30.128 30.6824 30.402 30.1567 30.4692 29.5864V29.5762L31.7519 17.2437C31.7576 17.1891 31.7517 17.1339 31.7346 17.0817C31.7176 17.0295 31.6897 16.9815 31.6528 16.9409C31.616 16.9002 31.571 16.8677 31.5207 16.8456C31.4705 16.8235 31.4161 16.8122 31.3612 16.8125H13.6352ZM25.7865 25.6353C25.8608 25.7074 25.92 25.7936 25.9606 25.8889C26.0013 25.9841 26.0226 26.0865 26.0233 26.19C26.0241 26.2936 26.0042 26.3963 25.9649 26.4921C25.9256 26.5879 25.8677 26.6749 25.7944 26.7481C25.7212 26.8213 25.6341 26.8793 25.5383 26.9185C25.4425 26.9578 25.3398 26.9776 25.2362 26.9768C25.1327 26.976 25.0303 26.9547 24.9351 26.914C24.8399 26.8733 24.7537 26.8141 24.6816 26.7398L22.4999 24.5581L20.3178 26.7398C20.1706 26.8828 19.973 26.9621 19.7678 26.9607C19.5626 26.9592 19.3662 26.8771 19.2211 26.732C19.0759 26.5869 18.9937 26.3905 18.9921 26.1853C18.9906 25.9801 19.0699 25.7825 19.2128 25.6353L21.3949 23.4531L19.2128 21.271C19.0699 21.1238 18.9906 20.9262 18.9921 20.7209C18.9937 20.5157 19.0759 20.3194 19.2211 20.1743C19.3662 20.0292 19.5626 19.9471 19.7678 19.9456C19.973 19.9441 20.1706 20.0235 20.3178 20.1665L22.4999 22.3481L24.6816 20.1665C24.8287 20.0235 25.0263 19.9441 25.2315 19.9456C25.4367 19.9471 25.6331 20.0292 25.7783 20.1743C25.9234 20.3194 26.0057 20.5157 26.0072 20.7209C26.0087 20.9262 25.9295 21.1238 25.7865 21.271L23.6044 23.4531L25.7865 25.6353Z" fill="white"/>
</svg>
