<svg width="19" height="19" viewBox="0 0 19 19" fill="none" xmlns="http://www.w3.org/2000/svg">
<g clip-path="url(#clip0)">
<path d="M13.0624 15.8333H0.395843C0.177047 15.8333 0 16.0104 0 16.2291C0 16.4479 0.177047 16.625 0.395843 16.625H13.0624C13.2812 16.625 13.4582 16.4479 13.4582 16.2291C13.4582 16.0104 13.2812 15.8333 13.0624 15.8333Z" fill="#5EAEF3"/>
<path d="M18.94 8.83699C18.8187 8.38589 18.5295 8.00898 18.1259 7.77589C17.9543 7.67655 17.768 7.60775 17.5724 7.57101L3.96183 5.03368L2.72795 2.59298C2.63904 2.41708 2.4365 2.33244 2.24939 2.39623L1.0619 2.79207C0.886411 2.85044 0.775084 3.02285 0.793639 3.20684L1.18948 7.16515C1.20574 7.32943 1.32244 7.46629 1.4825 7.50841L8.29436 9.30126L4.88032 12.3732C4.76743 12.4749 4.72338 12.6322 4.76513 12.7779C4.80766 12.9236 4.92982 13.0322 5.07978 13.0578L7.42693 13.4536C7.44857 13.4571 7.47102 13.459 7.49265 13.459C7.56067 13.459 7.62873 13.4413 7.68825 13.4072L13.1302 10.3133L16.8766 11.0435C17.6165 11.1954 18.3641 10.8575 18.7645 10.1629C18.998 9.75889 19.0606 9.28772 18.94 8.83699ZM18.0556 9.80955C17.8491 10.1667 17.4417 10.3519 17.032 10.2672L13.1378 9.50803C13.0451 9.49026 12.95 9.5061 12.8665 9.55249L7.41914 12.6495L6.01909 12.4134L9.36896 9.39904C9.47643 9.30163 9.52282 9.1532 9.48879 9.0117C9.45398 8.8702 9.34499 8.75888 9.20427 8.72218L1.94944 6.81299L1.61238 3.44304L2.17521 3.25515L3.34337 5.56557C3.39903 5.67574 3.50264 5.75345 3.62403 5.77623L17.4271 8.34953C17.5337 8.36923 17.6358 8.40712 17.7294 8.46122C17.9504 8.58881 18.1089 8.79521 18.1747 9.04183C18.2411 9.28846 18.2071 9.54592 18.0556 9.80955Z" fill="#5EAEF3"/>
</g>
<defs>
<clipPath id="clip0">
<rect width="19" height="19" fill="white"/>
</clipPath>
</defs>
</svg>
