<svg width="15" height="21" viewBox="0 0 15 21" fill="none" xmlns="http://www.w3.org/2000/svg">
<path d="M13.125 20.5H1.875C0.841667 20.5 0 19.6592 0 18.625V9.875C0 8.84083 0.841667 8 1.875 8H13.125C14.1583 8 15 8.84083 15 9.875V18.625C15 19.6592 14.1583 20.5 13.125 20.5ZM1.875 9.25C1.53083 9.25 1.25 9.53 1.25 9.875V18.625C1.25 18.97 1.53083 19.25 1.875 19.25H13.125C13.4692 19.25 13.75 18.97 13.75 18.625V9.875C13.75 9.53 13.4692 9.25 13.125 9.25H1.875Z" fill="#777777"/>
<path d="M11.875 9.25C11.53 9.25 11.25 8.97 11.25 8.625V5.5C11.25 3.4325 9.5675 1.75 7.5 1.75C5.4325 1.75 3.75 3.4325 3.75 5.5V8.625C3.75 8.97 3.47 9.25 3.125 9.25C2.78 9.25 2.5 8.97 2.5 8.625V5.5C2.5 2.7425 4.7425 0.5 7.5 0.5C10.2575 0.5 12.5 2.7425 12.5 5.5V8.625C12.5 8.97 12.22 9.25 11.875 9.25Z" fill="#777777"/>
<path d="M7.50016 14.6667C6.581 14.6667 5.8335 13.9192 5.8335 13C5.8335 12.0809 6.581 11.3334 7.50016 11.3334C8.41933 11.3334 9.16683 12.0809 9.16683 13C9.16683 13.9192 8.41933 14.6667 7.50016 14.6667ZM7.50016 12.5834C7.271 12.5834 7.0835 12.77 7.0835 13C7.0835 13.23 7.271 13.4167 7.50016 13.4167C7.72933 13.4167 7.91683 13.23 7.91683 13C7.91683 12.77 7.72933 12.5834 7.50016 12.5834Z" fill="#777777"/>
<path d="M7.5 17.1667C7.155 17.1667 6.875 16.8867 6.875 16.5417V14.25C6.875 13.905 7.155 13.625 7.5 13.625C7.845 13.625 8.125 13.905 8.125 14.25V16.5417C8.125 16.8867 7.845 17.1667 7.5 17.1667Z" fill="#777777"/>
</svg>
