<svg width="24" height="24" viewBox="0 0 24 24" fill="none" xmlns="http://www.w3.org/2000/svg">
<path d="M20.7566 11.0859C21.4594 10.592 21.9248 9.77047 21.9248 8.84447C21.9248 7.32963 20.6996 6.10446 19.1848 6.10446C17.67 6.10446 16.4448 7.32963 16.4448 8.84447C16.4448 9.77047 16.9054 10.592 17.613 11.0859C17.0099 11.2948 16.459 11.6177 15.9937 12.0356C15.3526 11.4895 14.5975 11.0716 13.7713 10.8247C14.7732 10.2168 15.4476 9.1104 15.4476 7.85199C15.4476 5.93351 13.8947 4.38068 11.9763 4.38068C10.0578 4.38068 8.50495 5.93826 8.50495 7.85199C8.50495 9.1104 9.17451 10.2168 10.1812 10.8247C9.36446 11.0716 8.61892 11.4848 7.98259 12.0214C7.51721 11.613 6.97586 11.2948 6.38227 11.0906C7.08508 10.5967 7.55046 9.77522 7.55046 8.84922C7.55046 7.33438 6.32529 6.10921 4.81045 6.10921C3.29561 6.10921 2.07044 7.33438 2.07044 8.84922C2.07044 9.77522 2.53106 10.5967 3.23862 11.0906C1.35338 11.7412 0 13.5315 0 15.6351V15.9485C0 15.958 0.00949743 15.9675 0.0189949 15.9675H5.82667C5.79343 16.2287 5.77444 16.4994 5.77444 16.7701V17.093C5.77444 18.4891 6.90463 19.6193 8.30075 19.6193H15.6613C17.0574 19.6193 18.1876 18.4891 18.1876 17.093V16.7701C18.1876 16.4994 18.1686 16.2287 18.1353 15.9675H23.981C23.9905 15.9675 24 15.958 24 15.9485V15.6351C23.9905 13.5267 22.6419 11.7364 20.7566 11.0859ZM17.2046 8.83972C17.2046 7.74751 18.0926 6.85951 19.1848 6.85951C20.277 6.85951 21.165 7.74751 21.165 8.83972C21.165 9.91768 20.296 10.7962 19.2228 10.8199C19.2085 10.8199 19.1991 10.8199 19.1848 10.8199C19.1706 10.8199 19.1611 10.8199 19.1468 10.8199C18.0689 10.8009 17.2046 9.92243 17.2046 8.83972ZM9.25524 7.85199C9.25524 6.35614 10.4709 5.14047 11.9668 5.14047C13.4626 5.14047 14.6783 6.35614 14.6783 7.85199C14.6783 9.2956 13.5433 10.478 12.1235 10.5588C12.0712 10.5588 12.019 10.5588 11.9668 10.5588C11.9145 10.5588 11.8623 10.5588 11.8101 10.5588C10.3902 10.478 9.25524 9.2956 9.25524 7.85199ZM2.81599 8.83972C2.81599 7.74751 3.704 6.85951 4.7962 6.85951C5.88841 6.85951 6.77641 7.74751 6.77641 8.83972C6.77641 9.91768 5.9074 10.7962 4.83419 10.8199C4.81994 10.8199 4.81045 10.8199 4.7962 10.8199C4.78195 10.8199 4.77246 10.8199 4.75821 10.8199C3.685 10.8009 2.81599 9.92243 2.81599 8.83972ZM5.95964 15.203H0.769292C0.982984 13.18 2.69252 11.594 4.76771 11.5797C4.77721 11.5797 4.7867 11.5797 4.7962 11.5797C4.8057 11.5797 4.8152 11.5797 4.82469 11.5797C5.81243 11.5845 6.71468 11.9501 7.41274 12.5437C6.72893 13.2845 6.22082 14.1963 5.95964 15.203ZM17.4183 17.093C17.4183 18.0665 16.6252 18.8595 15.6518 18.8595H8.29125C7.31777 18.8595 6.52473 18.0665 6.52473 17.093V16.7701C6.52473 13.8211 8.88009 11.4088 11.8101 11.3233C11.8623 11.328 11.9193 11.328 11.9715 11.328C12.0237 11.328 12.0807 11.328 12.133 11.3233C15.0629 11.4088 17.4183 13.8211 17.4183 16.7701V17.093ZM17.9834 15.203C17.7222 14.201 17.2236 13.3035 16.5445 12.5627C17.2473 11.9549 18.1591 11.5892 19.1563 11.5797C19.1658 11.5797 19.1753 11.5797 19.1848 11.5797C19.1943 11.5797 19.2038 11.5797 19.2133 11.5797C21.2885 11.594 22.998 13.18 23.2117 15.203H17.9834Z" fill="#5EAEF3"/>
</svg>
