<svg width="18" height="18" viewBox="0 0 18 18" fill="none" xmlns="http://www.w3.org/2000/svg">
<g clip-path="url(#clip0)">
<path d="M0.231353 1.15645C0.230451 1.1532 0.232134 1.15975 0.231353 1.15645V1.15645Z" fill="#5EAEF3"/>
<path d="M16.7675 12.9991C16.183 12.4864 15.4495 12.2581 14.7024 12.3561L6.72254 13.4035L6.40758 10.349C6.26143 8.66165 5.86881 7.00867 5.24053 5.43592L4.95889 4.73093C4.73748 4.17665 4.31599 3.74508 3.79599 3.50598C4.0251 2.99723 4.0584 2.42137 3.88114 1.88341C3.87945 1.87824 3.87759 1.87311 3.87555 1.86804C3.43205 0.757878 2.37329 0.024728 1.17815 0.00018884C0.885646 -0.0055768 0.609739 0.120916 0.423762 0.34792C0.23775 0.57496 0.167578 0.869499 0.231176 1.15606L2.8807 12.7178C2.91248 12.8605 3.05384 12.9505 3.19675 12.9187C3.33949 12.8869 3.42945 12.7455 3.39771 12.6027L1.58599 4.46349C1.55014 4.30199 1.58972 4.13598 1.69456 4.00801C1.79943 3.88004 1.95464 3.80938 2.11977 3.81198L2.8788 3.82755C3.03553 3.83075 3.18821 3.8548 3.33386 3.89727C3.341 3.89976 3.34821 3.90201 3.35545 3.90388C3.85407 4.05624 4.26698 4.42651 4.46705 4.92735L4.74869 5.63234C5.35795 7.15749 5.73862 8.76048 5.88013 10.3968C5.88023 10.3982 5.88037 10.3997 5.88051 10.4012L6.19717 13.4724L5.69426 13.5384C5.35398 13.081 4.76501 12.8397 4.17371 12.9715C3.37239 13.1503 2.86554 13.9478 3.04393 14.7491C3.04428 14.7506 3.04463 14.7521 3.04495 14.7536L3.69341 17.448C3.77159 17.773 4.0597 18 4.394 18H14.5724C15.324 18 15.9362 17.3936 15.9463 16.6444H16.5646C17.2413 16.6444 17.7918 16.0532 17.7918 15.3267C17.7919 14.4186 17.4185 13.5702 16.7675 12.9991ZM3.28883 3.34166C3.15885 3.31585 3.02547 3.30088 2.88973 3.2981L2.13071 3.28252C1.8438 3.27609 1.57081 3.38465 1.36732 3.58262L0.747692 1.03892C0.720411 0.912847 0.751595 0.783437 0.833404 0.683593C0.915704 0.583116 1.0384 0.527604 1.16728 0.529678C2.14656 0.549823 3.01443 1.14892 3.38065 2.05676C3.51928 2.48419 3.48486 2.94263 3.28883 3.34166ZM4.39404 17.4704C4.30541 17.4704 4.22908 17.4103 4.20837 17.3241L3.56048 14.632C3.44685 14.1162 3.77332 13.6035 4.28906 13.4885C4.80554 13.3732 5.31984 13.6998 5.43568 14.2188L6.19189 17.4704H4.39404ZM16.5646 16.1148H13.5781C13.4318 16.1148 13.3133 16.2333 13.3133 16.3796C13.3133 16.5258 13.4318 16.6444 13.5781 16.6444H15.4167C15.4067 17.1015 15.0319 17.4704 14.5725 17.4704H6.73562L6.54353 16.6444H12.3459C12.4922 16.6444 12.6107 16.5258 12.6107 16.3796C12.6107 16.2333 12.4922 16.1148 12.3459 16.1148H6.42034L5.95202 14.1011C5.94749 14.0808 5.94228 14.0607 5.93694 14.0408L14.7713 12.8812C15.3652 12.8032 15.9501 12.9865 16.4182 13.3972C16.9546 13.8678 17.2622 14.5711 17.2622 15.3267C17.2622 15.7613 16.9493 16.1148 16.5646 16.1148Z" fill="#5EAEF3"/>
</g>
<defs>
<clipPath id="clip0">
<rect width="18" height="18" fill="white"/>
</clipPath>
</defs>
</svg>
