<svg width="19" height="19" viewBox="0 0 19 19" fill="none" xmlns="http://www.w3.org/2000/svg">
<path d="M2.96875 7.71874H14.5979L13.5333 8.78334C13.3015 9.0152 13.3015 9.39104 13.5333 9.6229C13.6494 9.73898 13.8011 9.79687 13.9531 9.79687C14.1051 9.79687 14.2568 9.73898 14.3729 9.6229L16.451 7.54477C16.6829 7.31291 16.6829 6.93707 16.451 6.70521L14.3729 4.62708C14.141 4.39522 13.7652 4.39522 13.5333 4.62708C13.3015 4.85894 13.3015 5.23478 13.5333 5.46664L14.5979 6.53124H2.96875C2.641 6.53124 2.375 6.79724 2.375 7.12499C2.375 7.45274 2.641 7.71874 2.96875 7.71874Z" fill="#5EAEF3"/>
<path d="M16.0313 11.2812H4.40211L5.4667 10.2166C5.69856 9.98478 5.69856 9.60894 5.4667 9.37708C5.23514 9.14522 4.8587 9.14522 4.62714 9.37708L2.54902 11.4552C2.31716 11.6871 2.31716 12.0629 2.54902 12.2948L4.62714 14.3729C4.74292 14.489 4.89492 14.5469 5.04692 14.5469C5.19892 14.5469 5.35092 14.489 5.4667 14.3729C5.69856 14.141 5.69856 13.7652 5.4667 13.5333L4.40211 12.4687H16.0313C16.359 12.4687 16.625 12.2027 16.625 11.875C16.625 11.5472 16.359 11.2812 16.0313 11.2812Z" fill="#5EAEF3"/>
</svg>
