<svg width="115" height="115" viewBox="0 0 115 115" fill="none" xmlns="http://www.w3.org/2000/svg">
<path d="M108.823 35.5091H84.5838C83.0581 35.5091 81.5923 36.0707 80.4569 37.0902L76.747 40.4216C75.6774 41.382 74.0645 41.3818 72.9951 40.4216L69.2853 37.0899C68.1499 36.0704 66.6843 35.5089 65.1583 35.5089H58.5512C57.6208 35.5089 56.8666 36.2631 56.8666 37.1935C56.8666 38.1238 57.6208 38.8781 58.5512 38.8781H65.1585C65.8521 38.8781 66.5183 39.1332 67.0344 39.5966L70.7443 42.928C73.0973 45.0409 76.6457 45.0411 78.9985 42.928L82.7081 39.5966C83.2243 39.1332 83.8905 38.8778 84.5841 38.8778H108.823C110.371 38.8778 111.631 40.1372 111.631 41.6854V51.3998H82.4855C81.5552 51.3998 80.801 52.154 80.801 53.0844C80.801 54.0147 81.5552 54.7689 82.4855 54.7689H111.631V108.823C111.631 110.371 110.371 111.631 108.823 111.631H84.5838C83.8903 111.631 83.2241 111.376 82.7079 110.912L78.998 107.581C76.645 105.468 73.0969 105.468 70.7439 107.581L67.0344 110.912C66.5183 111.375 65.8521 111.631 65.1585 111.631H6.17676C4.62853 111.631 3.36914 110.371 3.36914 108.823V54.7692H67.2391C68.1694 54.7692 68.9236 54.0149 68.9236 53.0846C68.9236 52.1543 68.1694 51.4 67.2391 51.4H3.36914V41.6857C3.36914 40.1374 4.62853 38.8781 6.17676 38.8781H14.6445C15.5749 38.8781 16.3291 38.1238 16.3291 37.1935C16.3291 36.2631 15.5749 35.5089 14.6445 35.5089H6.17676C2.77078 35.5089 0 38.2797 0 41.6857V108.823C0 112.229 2.77078 115 6.17676 115H65.1585C66.6843 115 68.1501 114.438 69.2855 113.419L72.9954 110.087C74.0647 109.127 75.6776 109.127 76.7472 110.087L80.4571 113.419C81.5925 114.438 83.0583 115 84.5841 115H108.823C112.229 115 115 112.229 115 108.823V41.6859C115 38.2799 112.229 35.5091 108.823 35.5091Z" fill="#5EAEF3"/>
<path d="M33.2914 15.6389C33.2914 12.6814 31.1156 10.2756 28.4412 10.2756C25.7667 10.2756 23.5909 12.6814 23.5909 15.6389C23.5909 18.5961 25.7667 21.0019 28.4412 21.0019C31.1156 21.0021 33.2914 18.5961 33.2914 15.6389ZM28.4412 17.6329C27.6384 17.6329 26.9601 16.7199 26.9601 15.6391C26.9601 14.558 27.6384 13.645 28.4412 13.645C29.2439 13.645 29.9222 14.558 29.9222 15.6391C29.9222 16.7197 29.2441 17.6329 28.4412 17.6329Z" fill="#5EAEF3"/>
<path d="M43.9823 32.6742C46.6567 32.6742 48.8325 30.2684 48.8325 27.311C48.8325 24.3535 46.6567 21.9478 43.9823 21.9478C41.3079 21.9478 39.1321 24.3535 39.1321 27.311C39.1321 30.2684 41.3081 32.6742 43.9823 32.6742ZM43.9823 25.3169C44.785 25.3169 45.4634 26.2299 45.4634 27.311C45.4634 28.392 44.785 29.3051 43.9823 29.3051C43.1795 29.3051 42.5012 28.392 42.5012 27.311C42.5012 26.2299 43.1795 25.3169 43.9823 25.3169Z" fill="#5EAEF3"/>
<path d="M36.2117 42.9498C48.0531 42.9498 57.6866 33.3161 57.6866 21.4749C57.6866 15.0425 54.8384 9.00279 49.8725 4.90457C49.1548 4.3125 48.0931 4.41402 47.5008 5.13165C46.9085 5.84928 47.0103 6.91101 47.7279 7.5033C51.9157 10.9594 54.3175 16.0519 54.3175 21.4751C54.3175 31.4588 46.1952 39.5809 36.2117 39.5809C26.2283 39.5809 18.106 31.4586 18.106 21.4751C18.106 11.4917 26.2283 3.36937 36.2117 3.36937C37.9205 3.36937 39.611 3.60678 41.2356 4.07509C42.1297 4.33316 43.0632 3.81701 43.3208 2.92307C43.5785 2.02912 43.0628 1.09542 42.1688 0.837793C40.2405 0.28166 38.2364 0 36.2117 0C24.3705 0 14.7368 9.63372 14.7368 21.4749C14.7368 33.3163 24.3705 42.9498 36.2117 42.9498Z" fill="#5EAEF3"/>
<path d="M31.7595 32.1762C31.9724 32.2656 32.1934 32.3078 32.4106 32.3078C33.069 32.3078 33.694 31.9195 33.9647 31.2746L41.7971 12.6121C42.1571 11.7543 41.7535 10.7669 40.8957 10.4069C40.0379 10.047 39.0505 10.4504 38.6905 11.3082L30.8581 29.9708C30.4981 30.8288 30.9017 31.8162 31.7595 32.1762Z" fill="#5EAEF3"/>
<path d="M74.6843 56.1987C75.6147 56.1987 76.3689 55.4444 76.3689 54.5141V50.3903C76.3689 49.4599 75.6147 48.7057 74.6843 48.7057C73.754 48.7057 72.9998 49.4599 72.9998 50.3903V54.5141C72.9998 55.4444 73.754 56.1987 74.6843 56.1987Z" fill="#5EAEF3"/>
<path d="M72.9998 65.9152C72.9998 66.8456 73.754 67.5998 74.6843 67.5998C75.6147 67.5998 76.3689 66.8456 76.3689 65.9152V61.7914C76.3689 60.8611 75.6147 60.1068 74.6843 60.1068C73.754 60.1068 72.9998 60.8611 72.9998 61.7914V65.9152Z" fill="#5EAEF3"/>
<path d="M72.9998 77.3165C72.9998 78.2468 73.754 79.001 74.6843 79.001C75.6147 79.001 76.3689 78.2468 76.3689 77.3165V73.1926C76.3689 72.2623 75.6147 71.5081 74.6843 71.5081C73.754 71.5081 72.9998 72.2623 72.9998 73.1926V77.3165Z" fill="#5EAEF3"/>
<path d="M72.9998 88.7176C72.9998 89.6479 73.754 90.4021 74.6843 90.4021C75.6147 90.4021 76.3689 89.6479 76.3689 88.7176V84.5937C76.3689 83.6634 75.6147 82.9092 74.6843 82.9092C73.754 82.9092 72.9998 83.6634 72.9998 84.5937V88.7176Z" fill="#5EAEF3"/>
<path d="M72.9998 100.119C72.9998 101.049 73.754 101.803 74.6843 101.803C75.6147 101.803 76.3689 101.049 76.3689 100.119V95.9949C76.3689 95.0645 75.6147 94.3103 74.6843 94.3103C73.754 94.3103 72.9998 95.0645 72.9998 95.9949V100.119Z" fill="#5EAEF3"/>
<path d="M82.4856 64.6394H105.126C106.057 64.6394 106.811 63.8852 106.811 62.9548C106.811 62.0245 106.057 61.2703 105.126 61.2703H82.4856C81.5553 61.2703 80.801 62.0245 80.801 62.9548C80.801 63.8852 81.5553 64.6394 82.4856 64.6394Z" fill="#5EAEF3"/>
<path d="M82.4856 73.6072H105.126C106.057 73.6072 106.811 72.8529 106.811 71.9226C106.811 70.9923 106.057 70.238 105.126 70.238H82.4856C81.5553 70.238 80.801 70.9923 80.801 71.9226C80.801 72.8529 81.5553 73.6072 82.4856 73.6072Z" fill="#5EAEF3"/>
<path d="M58.8926 73.6072H65.8914C67.4396 73.6072 68.699 72.3478 68.699 70.7995V64.0779C68.699 62.5296 67.4396 61.2703 65.8914 61.2703H58.8926C57.3443 61.2703 56.085 62.5296 56.085 64.0779V70.7995C56.085 72.3476 57.3446 73.6072 58.8926 73.6072ZM59.4541 64.6394H65.3299V70.238H59.4541V64.6394Z" fill="#5EAEF3"/>
<path d="M82.4856 82.5747H105.126C106.057 82.5747 106.811 81.8205 106.811 80.8901C106.811 79.9598 106.057 79.2056 105.126 79.2056H82.4856C81.5553 79.2056 80.801 79.9598 80.801 80.8901C80.801 81.8205 81.5553 82.5747 82.4856 82.5747Z" fill="#5EAEF3"/>
<path d="M82.4856 91.5425H105.126C106.057 91.5425 106.811 90.7882 106.811 89.8579C106.811 88.9276 106.057 88.1733 105.126 88.1733H82.4856C81.5553 88.1733 80.801 88.9276 80.801 89.8579C80.801 90.7882 81.5553 91.5425 82.4856 91.5425Z" fill="#5EAEF3"/>
<path d="M82.4856 100.51H105.126C106.057 100.51 106.811 99.7558 106.811 98.8254C106.811 97.8951 106.057 97.1409 105.126 97.1409H82.4856C81.5553 97.1409 80.801 97.8951 80.801 98.8254C80.801 99.7558 81.5553 100.51 82.4856 100.51Z" fill="#5EAEF3"/>
<path d="M67.7063 79.2056H57.7695C56.8392 79.2056 56.085 79.9598 56.085 80.8901C56.085 81.8205 56.8392 82.5747 57.7695 82.5747H67.7063C68.6366 82.5747 69.3908 81.8205 69.3908 80.8901C69.3908 79.9598 68.6366 79.2056 67.7063 79.2056Z" fill="#5EAEF3"/>
<path d="M67.7063 88.1733H57.7695C56.8392 88.1733 56.085 88.9276 56.085 89.8579C56.085 90.7882 56.8392 91.5425 57.7695 91.5425H67.7063C68.6366 91.5425 69.3908 90.7882 69.3908 89.8579C69.3908 88.9276 68.6366 88.1733 67.7063 88.1733Z" fill="#5EAEF3"/>
<path d="M50.2765 85.9628C51.577 85.9628 52.6349 84.9049 52.6349 83.6044V82.7697C52.6349 81.8601 52.1031 81.0223 51.2796 80.6353L36.9152 73.8846V67.758C36.9152 64.6451 34.4333 62.0298 31.3826 61.9278C31.364 61.9271 31.3451 61.9269 31.3265 61.9269H31.0495C31.0309 61.9269 31.012 61.9271 30.9934 61.9278C27.9425 62.0298 25.4606 64.6451 25.4606 67.758V73.8846L11.0961 80.6353C10.2727 81.0223 9.74084 81.8601 9.74084 82.7697V83.6044C9.74084 84.9049 10.7988 85.9628 12.0992 85.9628H25.4606V91.5634L22.8014 92.874C21.0169 93.7536 19.9082 95.5361 19.9082 97.5254V101.738C19.9082 102.459 20.2681 103.126 20.8705 103.522C21.2247 103.754 21.6314 103.873 22.0409 103.873C22.3279 103.873 22.6166 103.814 22.889 103.697L29.6273 100.782C30.6192 100.353 31.7566 100.353 32.7485 100.782L39.4868 103.697C40.1482 103.983 40.9029 103.917 41.5055 103.521C42.1079 103.126 42.4678 102.459 42.4678 101.738V97.5254C42.4678 95.5359 41.3591 93.7533 39.5744 92.8738L36.9152 91.5634V85.9628H50.2765ZM34.9872 94.369L38.085 95.8957C38.7103 96.2038 39.0986 96.8283 39.0986 97.5252V99.8578L34.0862 97.6894C33.1651 97.2909 32.1768 97.0917 31.1879 97.0917C30.1994 97.0917 29.2104 97.2909 28.2898 97.6894L23.2774 99.8576V97.5254C23.2774 96.8285 23.6657 96.2041 24.2908 95.8959L27.3886 94.3692C28.2776 93.931 28.8297 93.0434 28.8297 92.0524V85.1769C28.8297 83.7526 27.671 82.5939 26.2467 82.5939H14.8503L27.345 76.7219C28.2469 76.2981 28.8295 75.3805 28.8295 74.3842V67.7582C28.8295 66.4505 29.8375 65.3515 31.0816 65.2962H31.2941C32.5382 65.3515 33.5461 66.4505 33.5461 67.7582V74.3842C33.5461 75.3807 34.1289 76.2983 35.0305 76.7219L47.5255 82.5941H36.1291C34.7048 82.5941 33.5461 83.7528 33.5461 85.1771V92.0526C33.5461 93.0431 34.0984 93.931 34.9872 94.369Z" fill="#5EAEF3"/>
</svg>
