<svg width="116" height="116" viewBox="0 0 116 116" fill="none" xmlns="http://www.w3.org/2000/svg">
<g clip-path="url(#clip0)">
<path d="M1.04278 42.783L31.8874 57.261C32.1976 57.4065 32.5445 57.4546 32.8828 57.3998L44.1418 55.5609C50.5762 54.5105 57.1523 56.6516 61.7337 61.2894L71.1563 70.828C71.7338 71.4124 72.0231 72.1859 71.9711 73.0058C71.919 73.8258 71.5345 74.5565 70.8878 75.0634C69.9055 75.8333 68.5084 75.8673 67.4904 75.1459L58.3033 68.637C56.9994 67.7132 55.2627 67.8182 54.0796 68.8918L47.3658 74.984C46.6713 75.6144 46.619 76.6883 47.2494 77.3828C47.8796 78.0773 48.9533 78.1296 49.6483 77.4992L56.3396 71.4083L65.5267 77.9172C66.6007 78.678 67.8665 79.0562 69.1309 79.0562C70.4981 79.0562 71.8635 78.6142 72.9832 77.7363C74.3819 76.6399 75.2482 74.9939 75.3608 73.2205C75.4733 71.4471 74.8214 69.7051 73.5726 68.4409L66.1021 60.8787C70.0527 59.8985 74.2347 60.0592 78.1156 61.3778L82.0967 62.7307C82.531 62.8781 82.9823 62.951 83.4325 62.951C84.139 62.951 84.842 62.7715 85.4699 62.4187C85.4779 62.4141 85.4858 62.4096 85.4935 62.4051L114.846 45.2871C115.657 44.8145 115.93 43.7748 115.458 42.9646C114.985 42.1542 113.945 41.8809 113.135 42.353L83.7977 59.4621C83.6116 59.5638 83.3901 59.5826 83.1895 59.5147L79.2084 58.1619C74.0742 56.4175 68.4844 56.4179 63.3591 58.1422C58.0553 53.2533 50.7505 51.0408 43.5943 52.209L32.8545 53.9632L2.48607 39.7084C1.63694 39.3099 0.625687 39.6752 0.227162 40.5241C-0.171362 41.3732 0.19365 42.3844 1.04278 42.783Z" fill="#5EAEF3"/>
<path d="M115.762 74.6137C115.35 73.7709 114.333 73.4217 113.49 73.8332L98.5485 81.1318C98.2931 81.2566 98.073 81.4434 97.9086 81.6753L96.7065 83.3701C95.2609 85.4082 93.3894 87.0983 91.2313 88.3295C91.0635 88.0575 90.8726 87.7953 90.6563 87.5465L87.6885 84.1312C85.5267 81.6436 81.7444 81.3784 79.2565 83.5404L79.0122 83.7528C77.7478 84.8514 77.059 86.369 76.9698 87.9223C76.9437 87.9201 76.9177 87.9167 76.8916 87.9149C75.2996 87.8032 73.7585 88.3184 72.5534 89.3654L72.3086 89.578C71.0435 90.6774 70.3545 92.1961 70.266 93.7503C68.7146 93.6212 67.1149 94.0913 65.85 95.1907L65.605 95.4035C64.3399 96.5028 63.6511 98.0215 63.5624 99.5756C62.0108 99.4465 60.4109 99.9168 59.1458 101.016L58.9014 101.229C57.6964 102.276 56.9713 103.729 56.8595 105.322C56.7478 106.915 57.2632 108.455 58.3102 109.66L59.7445 111.311L59.172 111.817C59.1616 111.827 59.151 111.836 59.1408 111.846C58.0349 112.874 56.203 112.848 55.1245 111.794C54.2 110.777 54.171 109.229 55.0613 108.18C55.6431 107.495 55.5898 106.474 54.9398 105.853C54.2897 105.232 53.2682 105.225 52.6097 105.838L52.4275 106.007C51.3213 107.036 49.4893 107.01 48.411 105.956C47.4735 104.925 47.4536 103.365 48.3689 102.314C48.9621 101.633 48.9182 100.607 48.269 99.9784C47.62 99.3505 46.5925 99.3405 45.9311 99.9557L45.8803 100.003C44.7742 101.032 42.9421 101.005 41.8638 99.9512C40.9373 98.9325 40.9097 97.3825 41.8041 96.333C42.3287 95.7173 42.3462 94.8168 41.846 94.1812C41.3455 93.5456 40.4663 93.3513 39.7447 93.7163C38.6265 94.2824 37.269 94.0182 36.4432 93.0744C35.4823 91.9762 35.6041 90.2408 36.7125 89.1969L38.5387 87.5795L44.2355 82.41C44.93 81.7796 44.9823 80.7057 44.3519 80.0112C43.7215 79.3165 42.6475 79.2644 41.9531 79.8948L36.2716 85.0505L34.4434 86.6697C34.4332 86.679 34.4228 86.6883 34.4128 86.6976C33.4763 87.5687 32.8642 88.6714 32.5848 89.8391L32.5721 89.8319C29.4584 88.0673 26.7426 85.7581 24.4997 82.9689L23.5315 81.7647C23.3753 81.5704 23.1783 81.4128 22.9543 81.3032L2.51071 71.3023C1.66815 70.8906 0.651009 71.2391 0.238898 72.0815C-0.173212 72.924 0.175723 73.9412 1.01806 74.3533L21.1218 84.1878L21.853 85.0971C24.3659 88.2221 27.4087 90.8094 30.8974 92.7866L33.0132 93.9858C33.2403 94.4563 33.5304 94.9031 33.8875 95.3109C34.92 96.4908 36.3241 97.196 37.7989 97.3676C37.5885 99.1084 38.1252 100.919 39.398 102.287C39.412 102.302 39.4263 102.317 39.4406 102.331C40.7534 103.644 42.5425 104.252 44.296 104.145C44.3046 105.634 44.856 107.121 45.9449 108.291C45.9589 108.306 45.9732 108.321 45.9874 108.335C47.344 109.692 49.2094 110.296 51.0181 110.136C51.0618 111.577 51.6107 113.003 52.658 114.129C52.672 114.144 52.6863 114.159 52.7005 114.174C53.9154 115.388 55.5384 115.999 57.1627 115.999C58.7015 115.999 60.2417 115.451 61.4368 114.347L62.0428 113.811C62.9859 114.573 64.1361 115.03 65.3711 115.117C65.514 115.127 65.6562 115.132 65.7982 115.132C67.2372 115.132 68.6125 114.619 69.7091 113.666L69.9541 113.453C71.2195 112.354 71.9083 110.835 71.9968 109.281C72.163 109.295 72.3297 109.303 72.4968 109.303C73.8873 109.303 75.284 108.822 76.4134 107.841L76.6577 107.628C77.923 106.529 78.6119 105.01 78.7004 103.456C78.8666 103.469 79.0333 103.478 79.2004 103.478C80.5909 103.478 81.9875 102.997 83.117 102.015L83.3613 101.803C84.5664 100.756 85.2914 99.3023 85.4033 97.7095C85.4051 97.683 85.4053 97.6568 85.4069 97.6303C85.5722 97.6438 85.7382 97.6527 85.9042 97.6527C87.2947 97.6527 88.6911 97.1715 89.8204 96.1901L90.0651 95.9775C91.3554 94.8562 92.046 93.299 92.1121 91.7124C95.0381 90.2116 97.5676 88.0265 99.4771 85.3344L100.429 83.993L114.981 76.8844C115.824 76.4734 116.173 75.4565 115.762 74.6137ZM67.7272 110.89L67.4822 111.103C66.962 111.555 66.2986 111.778 65.6093 111.729C64.9219 111.681 64.2942 111.368 63.8422 110.848L60.8744 107.433C60.4222 106.912 60.1998 106.247 60.248 105.56C60.2963 104.872 60.6094 104.245 61.1298 103.792L61.3741 103.58C61.8618 103.156 62.4646 102.949 63.0649 102.949C63.7865 102.949 64.5046 103.249 65.014 103.835L67.9819 107.251C68.915 108.324 68.8007 109.957 67.7272 110.89ZM74.4301 105.065L74.1858 105.278C73.112 106.211 71.479 106.096 70.5456 105.022L67.5777 101.607C66.6446 100.533 66.7589 98.9001 67.8325 97.9672L68.0775 97.7543C69.1514 96.8212 70.7843 96.9356 71.7176 98.0095L74.6855 101.425C75.6186 102.499 75.5043 104.132 74.4301 105.065ZM82.0154 97.4727C81.9672 98.1601 81.654 98.7878 81.1337 99.24L80.8893 99.4524C79.8154 100.386 78.1825 100.271 77.2492 99.1972L74.2813 95.7817C73.3479 94.7077 73.4625 93.0746 74.5363 92.1415L74.7811 91.9289C75.2547 91.5174 75.8482 91.2962 76.4698 91.2962C76.5309 91.2962 76.5925 91.2983 76.6541 91.3026C77.3416 91.3508 77.9692 91.6639 78.4212 92.1841L81.3891 95.5994C81.8413 96.1199 82.0636 96.785 82.0154 97.4727ZM87.8377 93.4143L87.5929 93.6269C86.5192 94.56 84.8861 94.4457 83.9528 93.3717L80.9849 89.9564C80.5327 89.4363 80.3103 88.771 80.3586 88.0836C80.4068 87.3961 80.7197 86.7684 81.2403 86.3162L81.4846 86.1039C82.5586 85.1707 84.1917 85.2851 85.1248 86.359L88.0927 89.7744C89.026 90.8481 88.9114 92.4811 87.8377 93.4143Z" fill="#5EAEF3"/>
<path d="M51.858 47.5229L56.5586 49.2467C56.9902 49.405 57.4437 49.4843 57.8975 49.4843C58.351 49.4843 58.8046 49.405 59.2364 49.2467L63.9367 47.5229C68.191 45.9628 71.991 43.3157 74.9258 39.8678C77.8278 36.4584 79.8254 32.34 80.7024 27.9578C80.8865 27.0381 80.2903 26.1434 79.3705 25.9593C78.4498 25.7748 77.5558 26.3717 77.372 27.2912C75.8148 35.071 70.2187 41.6014 62.7674 44.3338L58.0669 46.0576C57.9575 46.0977 57.8373 46.0977 57.7279 46.0576L53.0273 44.3338C44.0241 41.0321 37.9751 32.3708 37.9751 22.7813V8.02098C37.9751 7.61997 38.2609 7.27329 38.6544 7.19676L58.0021 3.42867L77.1419 7.19314C77.5345 7.27035 77.8196 7.61702 77.8196 8.01713V20.3861C77.8196 21.324 78.58 22.0844 79.5179 22.0844C80.4558 22.0844 81.2161 21.324 81.2161 20.3861V8.0169C81.2161 5.99802 79.7783 4.24994 77.7974 3.86048L58.3313 0.0319281C58.116 -0.0104151 57.8945 -0.0106415 57.679 0.0312488L38.005 3.86274C36.0194 4.24949 34.5786 5.99824 34.5786 8.02098V22.7818C34.5786 33.7899 41.5227 43.7328 51.858 47.5229Z" fill="#5EAEF3"/>
<path d="M58.3249 6.95377C58.1096 6.9112 57.8881 6.9112 57.6726 6.95309L42.7451 9.86005C41.9474 10.0154 41.3716 10.7142 41.3716 11.5271V22.7815C41.3716 30.9522 46.5257 38.3319 54.1968 41.1451L57.3125 42.2877C57.5012 42.357 57.6993 42.3914 57.8972 42.3914C58.0953 42.3914 58.2932 42.3568 58.4819 42.2877L61.5978 41.1451C69.269 38.3321 74.4231 30.9522 74.4231 22.7815V11.5166C74.4231 10.7051 73.8488 10.007 73.0524 9.85031L58.3249 6.95377ZM71.0265 22.7815C71.0265 29.5333 66.7675 35.6317 60.4285 37.9562L57.8974 38.8846L55.3663 37.9565C49.0271 35.6317 44.7681 29.5336 44.7681 22.7817V12.9266L57.9957 10.3507L71.0265 12.9135V22.7815Z" fill="#5EAEF3"/>
<path d="M53.5394 25.9285C52.856 25.2859 51.7816 25.3192 51.1387 26.0023C50.4963 26.6857 50.5294 27.7604 51.2125 28.403L53.9537 30.9807C54.2696 31.2778 54.686 31.4417 55.1169 31.4417C55.1529 31.4417 55.1892 31.4406 55.2254 31.4383C55.6943 31.4084 56.1298 31.1854 56.4284 30.8227L65.3072 20.0344C65.9031 19.3103 65.7992 18.2399 65.0751 17.644C64.3509 17.048 63.2806 17.1519 62.6846 17.876L54.9587 27.2633L53.5394 25.9285Z" fill="#5EAEF3"/>
</g>
<defs>
<clipPath id="clip0">
<rect width="116" height="116" fill="white"/>
</clipPath>
</defs>
</svg>
