<svg width="1145" height="382" viewBox="0 0 1145 382" fill="none" xmlns="http://www.w3.org/2000/svg">
<g filter="url(#filter0_d)">
<rect x="18" y="14" width="1109" height="346" rx="14" fill="url(#paint0_linear)" fill-opacity="0.48"/>
</g>
<path d="M120.312 187V152.734H127.578V187H120.312ZM160.308 187H153.16V171.695C153.16 169.805 152.824 168.391 152.152 167.453C151.48 166.5 150.41 166.023 148.941 166.023C146.941 166.023 145.496 166.695 144.605 168.039C143.714 169.367 143.269 171.578 143.269 174.672V187H136.121V160.797H141.582L142.542 164.148H142.941C143.738 162.883 144.832 161.93 146.222 161.289C147.628 160.633 149.222 160.305 151.003 160.305C154.05 160.305 156.363 161.133 157.941 162.789C159.519 164.43 160.308 166.805 160.308 169.914V187ZM179.187 181.773C180.437 181.773 181.937 181.5 183.687 180.953V186.273C181.905 187.07 179.718 187.469 177.124 187.469C174.265 187.469 172.179 186.75 170.866 185.312C169.569 183.859 168.921 181.688 168.921 178.797V166.164H165.499V163.141L169.437 160.75L171.499 155.219H176.069V160.797H183.405V166.164H176.069V178.797C176.069 179.812 176.351 180.562 176.913 181.047C177.491 181.531 178.249 181.773 179.187 181.773ZM200.338 165.391C198.823 165.391 197.635 165.875 196.776 166.844C195.917 167.797 195.424 169.156 195.299 170.922H205.331C205.299 169.156 204.838 167.797 203.948 166.844C203.057 165.875 201.854 165.391 200.338 165.391ZM201.346 187.469C197.128 187.469 193.831 186.305 191.456 183.977C189.081 181.648 187.893 178.352 187.893 174.086C187.893 169.695 188.987 166.305 191.174 163.914C193.378 161.508 196.417 160.305 200.292 160.305C203.995 160.305 206.878 161.359 208.94 163.469C211.003 165.578 212.034 168.492 212.034 172.211V175.68H195.135C195.213 177.711 195.815 179.297 196.94 180.438C198.065 181.578 199.643 182.148 201.674 182.148C203.253 182.148 204.745 181.984 206.151 181.656C207.557 181.328 209.026 180.805 210.557 180.086V185.617C209.307 186.242 207.971 186.703 206.549 187C205.128 187.312 203.393 187.469 201.346 187.469ZM232.951 160.305C233.92 160.305 234.725 160.375 235.365 160.516L234.826 167.219C234.248 167.062 233.545 166.984 232.717 166.984C230.436 166.984 228.654 167.57 227.373 168.742C226.107 169.914 225.475 171.555 225.475 173.664V187H218.326V160.797H223.74L224.795 165.203H225.147C225.959 163.734 227.053 162.555 228.428 161.664C229.818 160.758 231.326 160.305 232.951 160.305ZM264.791 187H257.642V171.695C257.642 169.805 257.306 168.391 256.634 167.453C255.963 166.5 254.892 166.023 253.423 166.023C251.423 166.023 249.978 166.695 249.088 168.039C248.197 169.367 247.752 171.578 247.752 174.672V187H240.603V160.797H246.064L247.025 164.148H247.423C248.22 162.883 249.314 161.93 250.705 161.289C252.111 160.633 253.705 160.305 255.486 160.305C258.533 160.305 260.845 161.133 262.423 162.789C264.002 164.43 264.791 166.805 264.791 169.914V187ZM289.271 187L287.888 183.438H287.7C286.497 184.953 285.255 186.008 283.974 186.602C282.708 187.18 281.052 187.469 279.005 187.469C276.489 187.469 274.505 186.75 273.052 185.312C271.614 183.875 270.896 181.828 270.896 179.172C270.896 176.391 271.864 174.344 273.802 173.031C275.755 171.703 278.693 170.969 282.614 170.828L287.161 170.688V169.539C287.161 166.883 285.802 165.555 283.083 165.555C280.989 165.555 278.528 166.188 275.7 167.453L273.333 162.625C276.349 161.047 279.693 160.258 283.364 160.258C286.88 160.258 289.575 161.023 291.45 162.555C293.325 164.086 294.263 166.414 294.263 169.539V187H289.271ZM287.161 174.859L284.396 174.953C282.318 175.016 280.771 175.391 279.755 176.078C278.739 176.766 278.232 177.812 278.232 179.219C278.232 181.234 279.388 182.242 281.7 182.242C283.357 182.242 284.677 181.766 285.661 180.812C286.661 179.859 287.161 178.594 287.161 177.016V174.859ZM313.165 181.773C314.415 181.773 315.915 181.5 317.665 180.953V186.273C315.883 187.07 313.696 187.469 311.102 187.469C308.243 187.469 306.157 186.75 304.844 185.312C303.548 183.859 302.899 181.688 302.899 178.797V166.164H299.477V163.141L303.415 160.75L305.477 155.219H310.048V160.797H317.383V166.164H310.048V178.797C310.048 179.812 310.329 180.562 310.891 181.047C311.469 181.531 312.227 181.773 313.165 181.773ZM323.16 154.023C323.16 151.695 324.457 150.531 327.051 150.531C329.645 150.531 330.942 151.695 330.942 154.023C330.942 155.133 330.613 156 329.957 156.625C329.317 157.234 328.348 157.539 327.051 157.539C324.457 157.539 323.16 156.367 323.16 154.023ZM330.613 187H323.465V160.797H330.613V187ZM344.312 173.852C344.312 176.445 344.734 178.406 345.578 179.734C346.437 181.062 347.828 181.727 349.75 181.727C351.656 181.727 353.023 181.07 353.851 179.758C354.695 178.43 355.117 176.461 355.117 173.852C355.117 171.258 354.695 169.312 353.851 168.016C353.008 166.719 351.625 166.07 349.703 166.07C347.797 166.07 346.422 166.719 345.578 168.016C344.734 169.297 344.312 171.242 344.312 173.852ZM362.429 173.852C362.429 178.117 361.304 181.453 359.054 183.859C356.804 186.266 353.672 187.469 349.656 187.469C347.14 187.469 344.922 186.922 343 185.828C341.078 184.719 339.601 183.133 338.57 181.07C337.539 179.008 337.023 176.602 337.023 173.852C337.023 169.57 338.14 166.242 340.375 163.867C342.609 161.492 345.75 160.305 349.797 160.305C352.312 160.305 354.531 160.852 356.453 161.945C358.375 163.039 359.851 164.609 360.883 166.656C361.914 168.703 362.429 171.102 362.429 173.852ZM393.003 187H385.855V171.695C385.855 169.805 385.519 168.391 384.847 167.453C384.175 166.5 383.105 166.023 381.636 166.023C379.636 166.023 378.191 166.695 377.3 168.039C376.409 169.367 375.964 171.578 375.964 174.672V187H368.816V160.797H374.277L375.238 164.148H375.636C376.433 162.883 377.527 161.93 378.917 161.289C380.323 160.633 381.917 160.305 383.698 160.305C386.745 160.305 389.058 161.133 390.636 162.789C392.214 164.43 393.003 166.805 393.003 169.914V187ZM417.483 187L416.1 183.438H415.913C414.71 184.953 413.467 186.008 412.186 186.602C410.921 187.18 409.264 187.469 407.217 187.469C404.702 187.469 402.717 186.75 401.264 185.312C399.827 183.875 399.108 181.828 399.108 179.172C399.108 176.391 400.077 174.344 402.014 173.031C403.967 171.703 406.905 170.969 410.827 170.828L415.374 170.688V169.539C415.374 166.883 414.014 165.555 411.296 165.555C409.202 165.555 406.741 166.188 403.913 167.453L401.546 162.625C404.561 161.047 407.905 160.258 411.577 160.258C415.092 160.258 417.788 161.023 419.663 162.555C421.538 164.086 422.475 166.414 422.475 169.539V187H417.483ZM415.374 174.859L412.608 174.953C410.53 175.016 408.983 175.391 407.967 176.078C406.952 176.766 406.444 177.812 406.444 179.219C406.444 181.234 407.6 182.242 409.913 182.242C411.569 182.242 412.889 181.766 413.874 180.812C414.874 179.859 415.374 178.594 415.374 177.016V174.859ZM437.487 187H430.338V150.531H437.487V187ZM466.15 187H459.001V152.734H478.642V158.688H466.15V167.523H477.775V173.453H466.15V187ZM492.411 187H485.263V150.531H492.411V187ZM500.11 154.023C500.11 151.695 501.407 150.531 504 150.531C506.594 150.531 507.891 151.695 507.891 154.023C507.891 155.133 507.563 156 506.907 156.625C506.266 157.234 505.297 157.539 504 157.539C501.407 157.539 500.11 156.367 500.11 154.023ZM507.563 187H500.414V160.797H507.563V187ZM538.371 160.797V164.43L534.269 165.484C535.019 166.656 535.394 167.969 535.394 169.422C535.394 172.234 534.41 174.43 532.441 176.008C530.488 177.57 527.769 178.352 524.285 178.352L522.996 178.281L521.941 178.164C521.207 178.727 520.84 179.352 520.84 180.039C520.84 181.07 522.152 181.586 524.777 181.586H529.23C532.105 181.586 534.293 182.203 535.793 183.438C537.308 184.672 538.066 186.484 538.066 188.875C538.066 191.938 536.785 194.312 534.223 196C531.676 197.688 528.012 198.531 523.23 198.531C519.574 198.531 516.777 197.891 514.84 196.609C512.918 195.344 511.957 193.562 511.957 191.266C511.957 189.688 512.449 188.367 513.433 187.305C514.418 186.242 515.863 185.484 517.769 185.031C517.035 184.719 516.394 184.211 515.848 183.508C515.301 182.789 515.027 182.031 515.027 181.234C515.027 180.234 515.316 179.406 515.894 178.75C516.473 178.078 517.308 177.422 518.402 176.781C517.027 176.188 515.933 175.234 515.121 173.922C514.324 172.609 513.926 171.062 513.926 169.281C513.926 166.422 514.855 164.211 516.715 162.648C518.574 161.086 521.23 160.305 524.683 160.305C525.418 160.305 526.285 160.375 527.285 160.516C528.301 160.641 528.949 160.734 529.23 160.797H538.371ZM518.144 190.703C518.144 191.688 518.613 192.461 519.551 193.023C520.504 193.586 521.832 193.867 523.535 193.867C526.098 193.867 528.105 193.516 529.558 192.812C531.012 192.109 531.738 191.148 531.738 189.93C531.738 188.945 531.308 188.266 530.449 187.891C529.59 187.516 528.262 187.328 526.465 187.328H522.762C521.449 187.328 520.348 187.633 519.457 188.242C518.582 188.867 518.144 189.688 518.144 190.703ZM520.746 169.375C520.746 170.797 521.066 171.922 521.707 172.75C522.363 173.578 523.355 173.992 524.683 173.992C526.027 173.992 527.012 173.578 527.637 172.75C528.262 171.922 528.574 170.797 528.574 169.375C528.574 166.219 527.277 164.641 524.683 164.641C522.058 164.641 520.746 166.219 520.746 169.375ZM567.374 187H560.226V171.695C560.226 167.914 558.82 166.023 556.007 166.023C554.007 166.023 552.562 166.703 551.671 168.062C550.781 169.422 550.335 171.625 550.335 174.672V187H543.187V150.531H550.335V157.961C550.335 158.539 550.281 159.898 550.171 162.039L550.007 164.148H550.382C551.976 161.586 554.507 160.305 557.976 160.305C561.054 160.305 563.39 161.133 564.984 162.789C566.578 164.445 567.374 166.82 567.374 169.914V187ZM586.253 181.773C587.503 181.773 589.003 181.5 590.753 180.953V186.273C588.972 187.07 586.784 187.469 584.19 187.469C581.331 187.469 579.245 186.75 577.932 185.312C576.636 183.859 575.987 181.688 575.987 178.797V166.164H572.565V163.141L576.503 160.75L578.565 155.219H583.136V160.797H590.472V166.164H583.136V178.797C583.136 179.812 583.417 180.562 583.979 181.047C584.557 181.531 585.315 181.773 586.253 181.773ZM614.834 179.219C614.834 181.906 613.897 183.953 612.022 185.359C610.163 186.766 607.373 187.469 603.655 187.469C601.748 187.469 600.123 187.336 598.78 187.07C597.436 186.82 596.178 186.445 595.006 185.945V180.039C596.334 180.664 597.827 181.188 599.483 181.609C601.155 182.031 602.623 182.242 603.889 182.242C606.483 182.242 607.78 181.492 607.78 179.992C607.78 179.43 607.608 178.977 607.264 178.633C606.92 178.273 606.327 177.875 605.483 177.438C604.639 176.984 603.514 176.461 602.108 175.867C600.092 175.023 598.608 174.242 597.655 173.523C596.717 172.805 596.03 171.984 595.592 171.062C595.17 170.125 594.959 168.977 594.959 167.617C594.959 165.289 595.858 163.492 597.655 162.227C599.467 160.945 602.03 160.305 605.342 160.305C608.498 160.305 611.569 160.992 614.553 162.367L612.397 167.523C611.084 166.961 609.858 166.5 608.717 166.141C607.577 165.781 606.413 165.602 605.225 165.602C603.116 165.602 602.061 166.172 602.061 167.312C602.061 167.953 602.397 168.508 603.069 168.977C603.756 169.445 605.248 170.141 607.545 171.062C609.592 171.891 611.092 172.664 612.045 173.383C612.998 174.102 613.702 174.93 614.155 175.867C614.608 176.805 614.834 177.922 614.834 179.219Z" fill="white"/>
<path d="M135.717 119H132.201V109.347H122.328V119H118.827V97.584H122.328V106.344H132.201V97.584H135.717V119ZM155.66 110.87C155.66 113.517 154.982 115.582 153.624 117.066C152.267 118.551 150.377 119.293 147.955 119.293C146.442 119.293 145.104 118.951 143.942 118.268C142.779 117.584 141.886 116.603 141.261 115.323C140.636 114.044 140.323 112.56 140.323 110.87C140.323 108.243 140.997 106.192 142.345 104.718C143.693 103.243 145.592 102.506 148.043 102.506C150.387 102.506 152.242 103.263 153.61 104.776C154.977 106.28 155.66 108.312 155.66 110.87ZM143.868 110.87C143.868 114.61 145.25 116.48 148.014 116.48C150.748 116.48 152.115 114.61 152.115 110.87C152.115 107.169 150.738 105.318 147.985 105.318C146.539 105.318 145.489 105.797 144.835 106.754C144.191 107.711 143.868 109.083 143.868 110.87ZM163.372 119H159.93V96.207H163.372V119ZM172.051 119H168.609V102.799H172.051V119ZM168.404 98.5068C168.404 97.8916 168.57 97.418 168.902 97.0859C169.244 96.7539 169.727 96.5879 170.352 96.5879C170.958 96.5879 171.426 96.7539 171.758 97.0859C172.1 97.418 172.271 97.8916 172.271 98.5068C172.271 99.0928 172.1 99.5566 171.758 99.8984C171.426 100.23 170.958 100.396 170.352 100.396C169.727 100.396 169.244 100.23 168.902 99.8984C168.57 99.5566 168.404 99.0928 168.404 98.5068ZM182.752 119.293C180.73 119.293 179.153 118.561 178.02 117.096C176.888 115.631 176.321 113.575 176.321 110.929C176.321 108.272 176.892 106.207 178.035 104.732C179.187 103.248 180.779 102.506 182.81 102.506C184.939 102.506 186.56 103.292 187.674 104.864H187.849C187.683 103.702 187.6 102.784 187.6 102.11V96.207H191.057V119H188.362L187.762 116.876H187.6C186.497 118.487 184.881 119.293 182.752 119.293ZM183.675 116.51C185.091 116.51 186.121 116.114 186.765 115.323C187.41 114.522 187.742 113.229 187.762 111.441V110.958C187.762 108.917 187.429 107.467 186.765 106.607C186.101 105.748 185.061 105.318 183.645 105.318C182.434 105.318 181.502 105.812 180.847 106.798C180.193 107.774 179.866 109.171 179.866 110.987C179.866 112.784 180.183 114.156 180.818 115.104C181.453 116.041 182.405 116.51 183.675 116.51ZM206.416 119L205.728 116.744H205.61C204.829 117.73 204.043 118.404 203.252 118.766C202.461 119.117 201.445 119.293 200.205 119.293C198.613 119.293 197.368 118.863 196.47 118.004C195.581 117.145 195.137 115.929 195.137 114.356C195.137 112.687 195.757 111.427 196.997 110.577C198.237 109.728 200.127 109.264 202.666 109.186L205.464 109.098V108.233C205.464 107.198 205.22 106.427 204.731 105.919C204.253 105.401 203.506 105.143 202.49 105.143C201.66 105.143 200.864 105.265 200.103 105.509C199.341 105.753 198.608 106.041 197.905 106.373L196.792 103.912C197.671 103.453 198.633 103.106 199.678 102.872C200.723 102.628 201.709 102.506 202.637 102.506C204.697 102.506 206.25 102.955 207.295 103.854C208.35 104.752 208.877 106.163 208.877 108.087V119H206.416ZM201.289 116.656C202.539 116.656 203.54 116.31 204.292 115.616C205.054 114.913 205.435 113.932 205.435 112.672V111.266L203.354 111.354C201.733 111.412 200.552 111.686 199.81 112.174C199.077 112.652 198.711 113.39 198.711 114.386C198.711 115.108 198.926 115.67 199.355 116.07C199.785 116.461 200.43 116.656 201.289 116.656ZM211.521 102.799H215.271L218.567 111.983C219.065 113.292 219.397 114.522 219.563 115.675H219.68C219.768 115.138 219.929 114.488 220.163 113.727C220.398 112.955 221.638 109.312 223.884 102.799H227.605L220.676 121.153C219.416 124.522 217.317 126.207 214.377 126.207C213.615 126.207 212.873 126.124 212.151 125.958V123.233C212.668 123.351 213.259 123.409 213.923 123.409C215.583 123.409 216.75 122.447 217.424 120.523L218.025 119L211.521 102.799ZM251.173 113.185C251.173 115.089 250.485 116.583 249.108 117.667C247.731 118.751 245.832 119.293 243.41 119.293C240.988 119.293 239.005 118.917 237.463 118.165V114.854C238.439 115.313 239.474 115.675 240.568 115.938C241.671 116.202 242.697 116.334 243.644 116.334C245.031 116.334 246.051 116.07 246.706 115.543C247.37 115.016 247.702 114.308 247.702 113.419C247.702 112.618 247.399 111.939 246.794 111.383C246.188 110.826 244.938 110.167 243.044 109.405C241.09 108.614 239.713 107.711 238.913 106.695C238.112 105.68 237.712 104.459 237.712 103.033C237.712 101.246 238.346 99.8398 239.616 98.8145C240.885 97.7891 242.589 97.2764 244.728 97.2764C246.779 97.2764 248.82 97.7256 250.851 98.624L249.738 101.48C247.834 100.68 246.134 100.279 244.64 100.279C243.507 100.279 242.648 100.528 242.062 101.026C241.476 101.515 241.183 102.164 241.183 102.975C241.183 103.531 241.3 104.01 241.535 104.41C241.769 104.801 242.155 105.172 242.692 105.523C243.229 105.875 244.196 106.339 245.592 106.915C247.165 107.569 248.317 108.18 249.049 108.746C249.782 109.312 250.319 109.952 250.661 110.665C251.003 111.378 251.173 112.218 251.173 113.185ZM263.471 119.293C261.42 119.293 259.828 118.556 258.695 117.081H258.49C258.627 118.448 258.695 119.278 258.695 119.571V126.207H255.253V102.799H258.036C258.114 103.102 258.275 103.824 258.519 104.967H258.695C259.769 103.326 261.381 102.506 263.529 102.506C265.551 102.506 267.123 103.238 268.246 104.703C269.379 106.168 269.945 108.224 269.945 110.87C269.945 113.517 269.369 115.582 268.217 117.066C267.074 118.551 265.492 119.293 263.471 119.293ZM262.636 105.318C261.268 105.318 260.267 105.719 259.633 106.52C259.008 107.32 258.695 108.6 258.695 110.357V110.87C258.695 112.843 259.008 114.273 259.633 115.162C260.258 116.041 261.278 116.48 262.694 116.48C263.886 116.48 264.804 115.992 265.448 115.016C266.093 114.039 266.415 112.647 266.415 110.841C266.415 109.024 266.093 107.652 265.448 106.725C264.813 105.787 263.876 105.318 262.636 105.318ZM281.319 119.293C278.8 119.293 276.827 118.561 275.401 117.096C273.985 115.621 273.277 113.595 273.277 111.017C273.277 108.37 273.937 106.29 275.255 104.776C276.573 103.263 278.385 102.506 280.689 102.506C282.828 102.506 284.518 103.155 285.758 104.454C286.998 105.753 287.618 107.54 287.618 109.815V111.676H276.822C276.871 113.248 277.296 114.459 278.097 115.309C278.897 116.148 280.025 116.568 281.48 116.568C282.438 116.568 283.326 116.48 284.146 116.305C284.977 116.119 285.865 115.816 286.812 115.396V118.194C285.973 118.595 285.123 118.878 284.264 119.044C283.404 119.21 282.423 119.293 281.319 119.293ZM280.689 105.113C279.596 105.113 278.717 105.46 278.053 106.153C277.398 106.847 277.008 107.857 276.881 109.186H284.234C284.215 107.848 283.893 106.837 283.268 106.153C282.643 105.46 281.783 105.113 280.689 105.113ZM298.363 119.293C295.911 119.293 294.046 118.58 292.767 117.154C291.497 115.719 290.863 113.663 290.863 110.987C290.863 108.263 291.527 106.168 292.855 104.703C294.193 103.238 296.121 102.506 298.641 102.506C300.35 102.506 301.888 102.823 303.255 103.458L302.215 106.227C300.76 105.66 299.559 105.377 298.612 105.377C295.809 105.377 294.407 107.237 294.407 110.958C294.407 112.774 294.754 114.142 295.447 115.06C296.151 115.968 297.176 116.422 298.524 116.422C300.057 116.422 301.507 116.041 302.874 115.279V118.282C302.259 118.644 301.6 118.902 300.897 119.059C300.203 119.215 299.359 119.293 298.363 119.293ZM310.425 119H306.983V102.799H310.425V119ZM306.778 98.5068C306.778 97.8916 306.944 97.418 307.276 97.0859C307.618 96.7539 308.101 96.5879 308.726 96.5879C309.331 96.5879 309.8 96.7539 310.132 97.0859C310.474 97.418 310.645 97.8916 310.645 98.5068C310.645 99.0928 310.474 99.5566 310.132 99.8984C309.8 100.23 309.331 100.396 308.726 100.396C308.101 100.396 307.618 100.23 307.276 99.8984C306.944 99.5566 306.778 99.0928 306.778 98.5068ZM325.798 119L325.11 116.744H324.993C324.212 117.73 323.425 118.404 322.634 118.766C321.843 119.117 320.828 119.293 319.587 119.293C317.996 119.293 316.751 118.863 315.852 118.004C314.963 117.145 314.519 115.929 314.519 114.356C314.519 112.687 315.139 111.427 316.379 110.577C317.62 109.728 319.509 109.264 322.048 109.186L324.846 109.098V108.233C324.846 107.198 324.602 106.427 324.114 105.919C323.635 105.401 322.888 105.143 321.873 105.143C321.043 105.143 320.247 105.265 319.485 105.509C318.723 105.753 317.991 106.041 317.288 106.373L316.174 103.912C317.053 103.453 318.015 103.106 319.06 102.872C320.105 102.628 321.091 102.506 322.019 102.506C324.08 102.506 325.632 102.955 326.677 103.854C327.732 104.752 328.259 106.163 328.259 108.087V119H325.798ZM320.671 116.656C321.921 116.656 322.922 116.31 323.674 115.616C324.436 114.913 324.817 113.932 324.817 112.672V111.266L322.737 111.354C321.116 111.412 319.934 111.686 319.192 112.174C318.46 112.652 318.093 113.39 318.093 114.386C318.093 115.108 318.308 115.67 318.738 116.07C319.168 116.461 319.812 116.656 320.671 116.656ZM336.806 119H333.364V96.207H336.806V119ZM367.919 108.087C367.919 111.622 366.938 114.327 364.975 116.202C363.012 118.067 360.185 119 356.493 119H350.502V97.584H357.123C360.531 97.584 363.183 98.502 365.077 100.338C366.972 102.174 367.919 104.757 367.919 108.087ZM364.228 108.204C364.228 103.077 361.83 100.514 357.035 100.514H354.003V116.056H356.493C361.65 116.056 364.228 113.438 364.228 108.204ZM379.542 119.293C377.023 119.293 375.05 118.561 373.624 117.096C372.208 115.621 371.5 113.595 371.5 111.017C371.5 108.37 372.16 106.29 373.478 104.776C374.796 103.263 376.608 102.506 378.913 102.506C381.051 102.506 382.741 103.155 383.981 104.454C385.221 105.753 385.841 107.54 385.841 109.815V111.676H375.045C375.094 113.248 375.519 114.459 376.32 115.309C377.121 116.148 378.248 116.568 379.704 116.568C380.661 116.568 381.549 116.48 382.37 116.305C383.2 116.119 384.088 115.816 385.036 115.396V118.194C384.196 118.595 383.346 118.878 382.487 119.044C381.627 119.21 380.646 119.293 379.542 119.293ZM378.913 105.113C377.819 105.113 376.94 105.46 376.276 106.153C375.621 106.847 375.231 107.857 375.104 109.186H382.457C382.438 107.848 382.116 106.837 381.491 106.153C380.866 105.46 380.006 105.113 378.913 105.113ZM400.189 119L399.501 116.744H399.383C398.602 117.73 397.816 118.404 397.025 118.766C396.234 119.117 395.218 119.293 393.978 119.293C392.386 119.293 391.141 118.863 390.243 118.004C389.354 117.145 388.91 115.929 388.91 114.356C388.91 112.687 389.53 111.427 390.77 110.577C392.01 109.728 393.9 109.264 396.439 109.186L399.237 109.098V108.233C399.237 107.198 398.993 106.427 398.504 105.919C398.026 105.401 397.279 105.143 396.263 105.143C395.433 105.143 394.637 105.265 393.876 105.509C393.114 105.753 392.381 106.041 391.678 106.373L390.565 103.912C391.444 103.453 392.406 103.106 393.451 102.872C394.496 102.628 395.482 102.506 396.41 102.506C398.47 102.506 400.023 102.955 401.068 103.854C402.123 104.752 402.65 106.163 402.65 108.087V119H400.189ZM395.062 116.656C396.312 116.656 397.313 116.31 398.065 115.616C398.827 114.913 399.208 113.932 399.208 112.672V111.266L397.128 111.354C395.506 111.412 394.325 111.686 393.583 112.174C392.85 112.652 392.484 113.39 392.484 114.386C392.484 115.108 392.699 115.67 393.129 116.07C393.558 116.461 394.203 116.656 395.062 116.656ZM411.197 119H407.755V96.207H411.197V119ZM427.317 114.386C427.317 115.968 426.741 117.184 425.589 118.033C424.437 118.873 422.786 119.293 420.638 119.293C418.479 119.293 416.746 118.966 415.438 118.312V115.338C417.342 116.217 419.114 116.656 420.755 116.656C422.874 116.656 423.934 116.017 423.934 114.737C423.934 114.327 423.816 113.985 423.582 113.712C423.348 113.438 422.962 113.155 422.425 112.862C421.888 112.569 421.141 112.237 420.184 111.866C418.318 111.144 417.054 110.421 416.39 109.698C415.735 108.976 415.408 108.038 415.408 106.886C415.408 105.499 415.965 104.425 417.078 103.663C418.201 102.892 419.725 102.506 421.648 102.506C423.553 102.506 425.354 102.892 427.054 103.663L425.94 106.256C424.192 105.533 422.723 105.172 421.531 105.172C419.715 105.172 418.807 105.689 418.807 106.725C418.807 107.232 419.041 107.662 419.51 108.014C419.988 108.365 421.023 108.849 422.615 109.464C423.953 109.981 424.925 110.455 425.53 110.885C426.136 111.314 426.585 111.812 426.878 112.379C427.171 112.936 427.317 113.604 427.317 114.386Z" fill="white"/>
<path d="M125.628 240H122.874V228.938C122.874 227.617 122.905 226.57 122.968 225.797C122.788 225.984 122.565 226.191 122.3 226.418C122.042 226.645 121.167 227.363 119.675 228.574L118.292 226.828L123.331 222.867H125.628V240ZM143.106 231.434C143.106 234.41 142.626 236.621 141.665 238.066C140.712 239.512 139.251 240.234 137.282 240.234C135.376 240.234 133.93 239.488 132.946 237.996C131.962 236.504 131.47 234.316 131.47 231.434C131.47 228.41 131.946 226.184 132.899 224.754C133.86 223.316 135.321 222.598 137.282 222.598C139.196 222.598 140.645 223.348 141.63 224.848C142.614 226.348 143.106 228.543 143.106 231.434ZM134.259 231.434C134.259 233.77 134.497 235.438 134.973 236.438C135.458 237.438 136.227 237.938 137.282 237.938C138.337 237.938 139.106 237.43 139.591 236.414C140.083 235.398 140.329 233.738 140.329 231.434C140.329 229.137 140.083 227.477 139.591 226.453C139.106 225.422 138.337 224.906 137.282 224.906C136.227 224.906 135.458 225.41 134.973 226.418C134.497 227.426 134.259 229.098 134.259 231.434ZM151.707 234.738V232.395H157.731V234.738H151.707ZM177.336 226.805C177.336 227.891 177.019 228.797 176.387 229.523C175.754 230.242 174.863 230.727 173.715 230.977V231.07C175.09 231.242 176.121 231.672 176.808 232.359C177.496 233.039 177.84 233.945 177.84 235.078C177.84 236.727 177.258 238 176.094 238.898C174.93 239.789 173.273 240.234 171.125 240.234C169.226 240.234 167.625 239.926 166.32 239.309V236.859C167.047 237.219 167.816 237.496 168.629 237.691C169.441 237.887 170.222 237.984 170.972 237.984C172.301 237.984 173.293 237.738 173.949 237.246C174.605 236.754 174.933 235.992 174.933 234.961C174.933 234.047 174.57 233.375 173.844 232.945C173.117 232.516 171.976 232.301 170.422 232.301H168.933V230.062H170.445C173.18 230.062 174.547 229.117 174.547 227.227C174.547 226.492 174.308 225.926 173.832 225.527C173.355 225.129 172.652 224.93 171.722 224.93C171.074 224.93 170.449 225.023 169.847 225.211C169.246 225.391 168.535 225.746 167.715 226.277L166.367 224.355C167.937 223.199 169.762 222.621 171.84 222.621C173.566 222.621 174.914 222.992 175.883 223.734C176.851 224.477 177.336 225.5 177.336 226.805ZM191.931 231.434C191.931 234.41 191.451 236.621 190.49 238.066C189.537 239.512 188.076 240.234 186.107 240.234C184.201 240.234 182.755 239.488 181.771 237.996C180.787 236.504 180.295 234.316 180.295 231.434C180.295 228.41 180.771 226.184 181.724 224.754C182.685 223.316 184.146 222.598 186.107 222.598C188.021 222.598 189.47 223.348 190.455 224.848C191.439 226.348 191.931 228.543 191.931 231.434ZM183.084 231.434C183.084 233.77 183.322 235.438 183.798 236.438C184.283 237.438 185.052 237.938 186.107 237.938C187.162 237.938 187.931 237.43 188.416 236.414C188.908 235.398 189.154 233.738 189.154 231.434C189.154 229.137 188.908 227.477 188.416 226.453C187.931 225.422 187.162 224.906 186.107 224.906C185.052 224.906 184.283 225.41 183.798 226.418C183.322 227.426 183.084 229.098 183.084 231.434ZM212.579 240L210.868 235.242H204.317L202.642 240H199.689L206.099 222.797H209.146L215.556 240H212.579ZM210.13 232.828L208.525 228.164C208.407 227.852 208.243 227.359 208.032 226.688C207.829 226.016 207.689 225.523 207.61 225.211C207.4 226.172 207.091 227.223 206.685 228.363L205.138 232.828H210.13ZM224.339 240.234C222.698 240.234 221.425 239.645 220.518 238.465H220.354C220.464 239.559 220.518 240.223 220.518 240.457V245.766H217.765V227.039H219.991C220.054 227.281 220.183 227.859 220.378 228.773H220.518C221.378 227.461 222.667 226.805 224.386 226.805C226.003 226.805 227.261 227.391 228.159 228.562C229.065 229.734 229.518 231.379 229.518 233.496C229.518 235.613 229.058 237.266 228.136 238.453C227.222 239.641 225.956 240.234 224.339 240.234ZM223.671 229.055C222.577 229.055 221.776 229.375 221.268 230.016C220.768 230.656 220.518 231.68 220.518 233.086V233.496C220.518 235.074 220.768 236.219 221.268 236.93C221.768 237.633 222.585 237.984 223.718 237.984C224.671 237.984 225.405 237.594 225.921 236.812C226.436 236.031 226.694 234.918 226.694 233.473C226.694 232.02 226.436 230.922 225.921 230.18C225.413 229.43 224.663 229.055 223.671 229.055ZM239.532 226.805C240.087 226.805 240.544 226.844 240.903 226.922L240.633 229.488C240.243 229.395 239.837 229.348 239.415 229.348C238.313 229.348 237.419 229.707 236.731 230.426C236.051 231.145 235.712 232.078 235.712 233.227V240H232.958V227.039H235.114L235.477 229.324H235.618C236.048 228.551 236.606 227.938 237.294 227.484C237.989 227.031 238.735 226.805 239.532 226.805ZM246.311 240H243.557V227.039H246.311V240ZM243.393 223.605C243.393 223.113 243.526 222.734 243.791 222.469C244.065 222.203 244.452 222.07 244.952 222.07C245.436 222.07 245.811 222.203 246.077 222.469C246.35 222.734 246.487 223.113 246.487 223.605C246.487 224.074 246.35 224.445 246.077 224.719C245.811 224.984 245.436 225.117 244.952 225.117C244.452 225.117 244.065 224.984 243.791 224.719C243.526 224.445 243.393 224.074 243.393 223.605ZM253.254 240H250.5V221.766H253.254V240ZM274.617 240H263.004V237.914L267.422 233.473C268.726 232.137 269.59 231.191 270.011 230.637C270.441 230.074 270.754 229.547 270.949 229.055C271.144 228.562 271.242 228.035 271.242 227.473C271.242 226.699 271.008 226.09 270.539 225.645C270.078 225.199 269.437 224.977 268.617 224.977C267.961 224.977 267.324 225.098 266.707 225.34C266.097 225.582 265.39 226.02 264.586 226.652L263.097 224.836C264.05 224.031 264.976 223.461 265.875 223.125C266.773 222.789 267.73 222.621 268.746 222.621C270.34 222.621 271.617 223.039 272.578 223.875C273.539 224.703 274.019 225.82 274.019 227.227C274.019 228 273.879 228.734 273.597 229.43C273.324 230.125 272.898 230.844 272.32 231.586C271.75 232.32 270.797 233.316 269.461 234.574L266.484 237.457V237.574H274.617V240ZM288.568 231.434C288.568 234.41 288.087 236.621 287.126 238.066C286.173 239.512 284.712 240.234 282.744 240.234C280.837 240.234 279.392 239.488 278.408 237.996C277.423 236.504 276.931 234.316 276.931 231.434C276.931 228.41 277.408 226.184 278.361 224.754C279.322 223.316 280.783 222.598 282.744 222.598C284.658 222.598 286.107 223.348 287.091 224.848C288.076 226.348 288.568 228.543 288.568 231.434ZM279.72 231.434C279.72 233.77 279.958 235.438 280.435 236.438C280.919 237.438 281.689 237.938 282.744 237.938C283.798 237.938 284.568 237.43 285.052 236.414C285.544 235.398 285.79 233.738 285.79 231.434C285.79 229.137 285.544 227.477 285.052 226.453C284.568 225.422 283.798 224.906 282.744 224.906C281.689 224.906 280.919 225.41 280.435 226.418C279.958 227.426 279.72 229.098 279.72 231.434ZM302.519 240H290.905V237.914L295.323 233.473C296.628 232.137 297.491 231.191 297.913 230.637C298.343 230.074 298.655 229.547 298.851 229.055C299.046 228.562 299.144 228.035 299.144 227.473C299.144 226.699 298.909 226.09 298.441 225.645C297.98 225.199 297.339 224.977 296.519 224.977C295.862 224.977 295.226 225.098 294.609 225.34C293.999 225.582 293.292 226.02 292.487 226.652L290.999 224.836C291.952 224.031 292.878 223.461 293.777 223.125C294.675 222.789 295.632 222.621 296.648 222.621C298.241 222.621 299.519 223.039 300.48 223.875C301.441 224.703 301.921 225.82 301.921 227.227C301.921 228 301.78 228.734 301.499 229.43C301.226 230.125 300.8 230.844 300.222 231.586C299.652 232.32 298.698 233.316 297.362 234.574L294.386 237.457V237.574H302.519V240ZM312.942 240H310.188V228.938C310.188 227.617 310.22 226.57 310.282 225.797C310.103 225.984 309.88 226.191 309.614 226.418C309.356 226.645 308.481 227.363 306.989 228.574L305.606 226.828L310.645 222.867H312.942V240Z" fill="white"/>
<path d="M789.004 127.904C789.004 132.135 787.796 135.375 785.382 137.625C782.98 139.875 779.505 141 774.959 141H767.681V115.301H775.75C779.945 115.301 783.203 116.408 785.523 118.623C787.843 120.838 789.004 123.932 789.004 127.904ZM783.343 128.045C783.343 122.525 780.906 119.766 776.031 119.766H773.13V136.5H775.468C780.718 136.5 783.343 133.682 783.343 128.045ZM794.579 116.268C794.579 114.521 795.552 113.648 797.497 113.648C799.443 113.648 800.415 114.521 800.415 116.268C800.415 117.1 800.169 117.75 799.677 118.219C799.196 118.676 798.47 118.904 797.497 118.904C795.552 118.904 794.579 118.025 794.579 116.268ZM800.169 141H794.808V121.348H800.169V141ZM820.423 135.164C820.423 137.18 819.72 138.715 818.313 139.77C816.919 140.824 814.827 141.352 812.038 141.352C810.608 141.352 809.389 141.252 808.382 141.053C807.374 140.865 806.43 140.584 805.552 140.209V135.779C806.548 136.248 807.667 136.641 808.909 136.957C810.163 137.273 811.264 137.432 812.214 137.432C814.159 137.432 815.132 136.869 815.132 135.744C815.132 135.322 815.003 134.982 814.745 134.725C814.487 134.455 814.042 134.156 813.409 133.828C812.776 133.488 811.932 133.096 810.878 132.65C809.366 132.018 808.253 131.432 807.538 130.893C806.835 130.354 806.319 129.738 805.991 129.047C805.675 128.344 805.516 127.482 805.516 126.463C805.516 124.717 806.19 123.369 807.538 122.42C808.897 121.459 810.819 120.979 813.304 120.979C815.671 120.979 817.973 121.494 820.212 122.525L818.595 126.393C817.61 125.971 816.69 125.625 815.835 125.355C814.979 125.086 814.106 124.951 813.216 124.951C811.634 124.951 810.843 125.379 810.843 126.234C810.843 126.715 811.095 127.131 811.598 127.482C812.114 127.834 813.233 128.355 814.956 129.047C816.491 129.668 817.616 130.248 818.331 130.787C819.046 131.326 819.573 131.947 819.913 132.65C820.253 133.354 820.423 134.191 820.423 135.164ZM833.487 141.352C827.37 141.352 824.311 137.994 824.311 131.279C824.311 127.939 825.143 125.391 826.807 123.633C828.471 121.863 830.856 120.979 833.961 120.979C836.235 120.979 838.274 121.424 840.079 122.314L838.496 126.463C837.653 126.123 836.868 125.848 836.141 125.637C835.414 125.414 834.688 125.303 833.961 125.303C831.172 125.303 829.778 127.283 829.778 131.244C829.778 135.088 831.172 137.01 833.961 137.01C834.993 137.01 835.948 136.875 836.827 136.605C837.705 136.324 838.584 135.891 839.463 135.305V139.893C838.596 140.443 837.717 140.824 836.827 141.035C835.948 141.246 834.834 141.352 833.487 141.352ZM849.205 131.139C849.205 133.084 849.521 134.555 850.154 135.551C850.799 136.547 851.842 137.045 853.283 137.045C854.713 137.045 855.738 136.553 856.359 135.568C856.992 134.572 857.309 133.096 857.309 131.139C857.309 129.193 856.992 127.734 856.359 126.762C855.727 125.789 854.689 125.303 853.248 125.303C851.818 125.303 850.787 125.789 850.154 126.762C849.521 127.723 849.205 129.182 849.205 131.139ZM862.793 131.139C862.793 134.338 861.949 136.84 860.262 138.645C858.574 140.449 856.225 141.352 853.213 141.352C851.326 141.352 849.662 140.941 848.221 140.121C846.779 139.289 845.672 138.1 844.898 136.553C844.125 135.006 843.738 133.201 843.738 131.139C843.738 127.928 844.576 125.432 846.252 123.65C847.928 121.869 850.283 120.979 853.318 120.979C855.205 120.979 856.869 121.389 858.311 122.209C859.752 123.029 860.859 124.207 861.633 125.742C862.406 127.277 862.793 129.076 862.793 131.139ZM882.045 141L881.324 138.486H881.043C880.468 139.4 879.654 140.109 878.599 140.613C877.545 141.105 876.343 141.352 874.996 141.352C872.687 141.352 870.947 140.736 869.775 139.506C868.603 138.264 868.017 136.482 868.017 134.162V121.348H873.379V132.826C873.379 134.244 873.63 135.311 874.134 136.025C874.638 136.729 875.441 137.08 876.543 137.08C878.043 137.08 879.127 136.582 879.795 135.586C880.462 134.578 880.796 132.914 880.796 130.594V121.348H886.158V141H882.045ZM910.823 141H905.462V129.521C905.462 128.104 905.21 127.043 904.706 126.34C904.202 125.625 903.4 125.268 902.298 125.268C900.798 125.268 899.714 125.771 899.046 126.779C898.378 127.775 898.044 129.434 898.044 131.754V141H892.683V121.348H896.779L897.499 123.861H897.798C898.396 122.912 899.216 122.197 900.259 121.717C901.314 121.225 902.509 120.979 903.845 120.979C906.13 120.979 907.864 121.6 909.048 122.842C910.232 124.072 910.823 125.854 910.823 128.186V141ZM925.522 137.08C926.46 137.08 927.585 136.875 928.897 136.465V140.455C927.561 141.053 925.921 141.352 923.975 141.352C921.831 141.352 920.266 140.812 919.282 139.734C918.309 138.645 917.823 137.016 917.823 134.848V125.373H915.257V123.105L918.21 121.312L919.757 117.164H923.184V121.348H928.686V125.373H923.184V134.848C923.184 135.609 923.395 136.172 923.817 136.535C924.251 136.898 924.819 137.08 925.522 137.08ZM957.961 141L957.24 138.486H956.959C956.385 139.4 955.57 140.109 954.516 140.613C953.461 141.105 952.26 141.352 950.912 141.352C948.604 141.352 946.863 140.736 945.691 139.506C944.52 138.264 943.934 136.482 943.934 134.162V121.348H949.295V132.826C949.295 134.244 949.547 135.311 950.051 136.025C950.555 136.729 951.357 137.08 952.459 137.08C953.959 137.08 955.043 136.582 955.711 135.586C956.379 134.578 956.713 132.914 956.713 130.594V121.348H962.074V141H957.961ZM979.392 141.352C977.084 141.352 975.273 140.514 973.961 138.838H973.679C973.867 140.479 973.961 141.428 973.961 141.686V149.648H968.599V121.348H972.959L973.714 123.896H973.961C975.214 121.951 977.072 120.979 979.533 120.979C981.853 120.979 983.67 121.875 984.982 123.668C986.295 125.461 986.951 127.951 986.951 131.139C986.951 133.236 986.64 135.059 986.019 136.605C985.41 138.152 984.537 139.33 983.4 140.139C982.263 140.947 980.927 141.352 979.392 141.352ZM977.81 125.268C976.486 125.268 975.519 125.678 974.91 126.498C974.3 127.307 973.984 128.648 973.961 130.523V131.104C973.961 133.213 974.271 134.725 974.892 135.639C975.525 136.553 976.521 137.01 977.88 137.01C980.283 137.01 981.484 135.029 981.484 131.068C981.484 129.135 981.185 127.688 980.587 126.727C980.002 125.754 979.076 125.268 977.81 125.268ZM1010.81 137.08C1011.75 137.08 1012.87 136.875 1014.19 136.465V140.455C1012.85 141.053 1011.21 141.352 1009.26 141.352C1007.12 141.352 1005.56 140.812 1004.57 139.734C1003.6 138.645 1003.11 137.016 1003.11 134.848V125.373H1000.55V123.105L1003.5 121.312L1005.05 117.164H1008.47V121.348H1013.98V125.373H1008.47V134.848C1008.47 135.609 1008.68 136.172 1009.11 136.535C1009.54 136.898 1010.11 137.08 1010.81 137.08ZM1023.35 131.139C1023.35 133.084 1023.66 134.555 1024.3 135.551C1024.94 136.547 1025.98 137.045 1027.43 137.045C1028.86 137.045 1029.88 136.553 1030.5 135.568C1031.14 134.572 1031.45 133.096 1031.45 131.139C1031.45 129.193 1031.14 127.734 1030.5 126.762C1029.87 125.789 1028.83 125.303 1027.39 125.303C1025.96 125.303 1024.93 125.789 1024.3 126.762C1023.66 127.723 1023.35 129.182 1023.35 131.139ZM1036.94 131.139C1036.94 134.338 1036.09 136.84 1034.4 138.645C1032.72 140.449 1030.37 141.352 1027.36 141.352C1025.47 141.352 1023.81 140.941 1022.36 140.121C1020.92 139.289 1019.81 138.1 1019.04 136.553C1018.27 135.006 1017.88 133.201 1017.88 131.139C1017.88 127.928 1018.72 125.432 1020.39 123.65C1022.07 121.869 1024.43 120.979 1027.46 120.979C1029.35 120.979 1031.01 121.389 1032.45 122.209C1033.89 123.029 1035 124.207 1035.78 125.742C1036.55 127.277 1036.94 129.076 1036.94 131.139ZM852.741 236H804.834V225.922L822.037 208.531C827.131 203.312 830.459 199.703 832.022 197.703C833.584 195.672 834.709 193.797 835.397 192.078C836.084 190.359 836.428 188.578 836.428 186.734C836.428 183.984 835.662 181.938 834.131 180.594C832.631 179.25 830.616 178.578 828.084 178.578C825.428 178.578 822.85 179.188 820.35 180.406C817.85 181.625 815.241 183.359 812.522 185.609L804.647 176.281C808.022 173.406 810.819 171.375 813.037 170.188C815.256 169 817.678 168.094 820.303 167.469C822.928 166.812 825.866 166.484 829.116 166.484C833.397 166.484 837.178 167.266 840.459 168.828C843.741 170.391 846.287 172.578 848.1 175.391C849.912 178.203 850.819 181.422 850.819 185.047C850.819 188.203 850.256 191.172 849.131 193.953C848.037 196.703 846.319 199.531 843.975 202.438C841.662 205.344 837.569 209.484 831.694 214.859L822.881 223.156V223.812H852.741V236ZM909.609 201.734C909.609 213.703 907.641 222.562 903.703 228.312C899.797 234.062 893.766 236.938 885.609 236.938C877.703 236.938 871.734 233.969 867.703 228.031C863.703 222.094 861.703 213.328 861.703 201.734C861.703 189.641 863.656 180.734 867.562 175.016C871.469 169.266 877.484 166.391 885.609 166.391C893.516 166.391 899.484 169.391 903.516 175.391C907.578 181.391 909.609 190.172 909.609 201.734ZM876.094 201.734C876.094 210.141 876.812 216.172 878.25 219.828C879.719 223.453 882.172 225.266 885.609 225.266C888.984 225.266 891.422 223.422 892.922 219.734C894.422 216.047 895.172 210.047 895.172 201.734C895.172 193.328 894.406 187.297 892.875 183.641C891.375 179.953 888.953 178.109 885.609 178.109C882.203 178.109 879.766 179.953 878.297 183.641C876.828 187.297 876.094 193.328 876.094 201.734ZM930.244 188C930.244 191.969 930.587 194.938 931.275 196.906C931.994 198.844 933.134 199.812 934.697 199.812C937.697 199.812 939.197 195.875 939.197 188C939.197 180.188 937.697 176.281 934.697 176.281C933.134 176.281 931.994 177.25 931.275 179.188C930.587 181.094 930.244 184.031 930.244 188ZM951.009 187.906C951.009 195.094 949.619 200.5 946.837 204.125C944.056 207.719 939.978 209.516 934.603 209.516C929.447 209.516 925.462 207.672 922.65 203.984C919.837 200.266 918.431 194.906 918.431 187.906C918.431 173.625 923.822 166.484 934.603 166.484C939.884 166.484 943.931 168.344 946.744 172.062C949.587 175.75 951.009 181.031 951.009 187.906ZM983.259 167.469L945.244 236H933.994L972.009 167.469H983.259ZM978.244 215.375C978.244 219.344 978.587 222.312 979.275 224.281C979.994 226.219 981.134 227.188 982.697 227.188C985.697 227.188 987.197 223.25 987.197 215.375C987.197 207.562 985.697 203.656 982.697 203.656C981.134 203.656 979.994 204.625 979.275 206.562C978.587 208.469 978.244 211.406 978.244 215.375ZM999.009 215.281C999.009 222.438 997.619 227.828 994.837 231.453C992.056 235.047 987.978 236.844 982.603 236.844C977.447 236.844 973.462 235 970.65 231.312C967.837 227.594 966.431 222.25 966.431 215.281C966.431 201 971.822 193.859 982.603 193.859C987.884 193.859 991.931 195.719 994.744 199.438C997.587 203.125 999.009 208.406 999.009 215.281Z" fill="white"/>
<defs>
<filter id="filter0_d" x="0" y="0" width="1145" height="382" filterUnits="userSpaceOnUse" color-interpolation-filters="sRGB">
<feFlood flood-opacity="0" result="BackgroundImageFix"/>
<feColorMatrix in="SourceAlpha" type="matrix" values="0 0 0 0 0 0 0 0 0 0 0 0 0 0 0 0 0 0 127 0"/>
<feMorphology radius="1" operator="dilate" in="SourceAlpha" result="effect1_dropShadow"/>
<feOffset dy="4"/>
<feGaussianBlur stdDeviation="8.5"/>
<feColorMatrix type="matrix" values="0 0 0 0 0.633333 0 0 0 0 0.633333 0 0 0 0 0.633333 0 0 0 0.25 0"/>
<feBlend mode="normal" in2="BackgroundImageFix" result="effect1_dropShadow"/>
<feBlend mode="normal" in="SourceGraphic" in2="effect1_dropShadow" result="shape"/>
</filter>
<linearGradient id="paint0_linear" x1="433" y1="360" x2="1143" y2="1.49995" gradientUnits="userSpaceOnUse">
<stop stop-color="white" stop-opacity="0.63"/>
<stop offset="1" stop-color="white" stop-opacity="0"/>
</linearGradient>
</defs>
</svg>
