<svg width="1145" height="382" viewBox="0 0 1145 382" fill="none" xmlns="http://www.w3.org/2000/svg">
<g filter="url(#filter0_d)">
<rect x="18" y="14" width="1109" height="346" rx="14" fill="url(#paint0_linear)" fill-opacity="0.48"/>
</g>
<path d="M134.82 173L126.57 146.117H126.359C126.656 151.586 126.805 155.234 126.805 157.062V173H120.312V138.734H130.203L138.312 164.938H138.453L147.055 138.734H156.945V173H150.172V156.781C150.172 156.016 150.18 155.133 150.195 154.133C150.227 153.133 150.336 150.477 150.523 146.164H150.312L141.477 173H134.82ZM171.207 159.852C171.207 162.445 171.628 164.406 172.472 165.734C173.332 167.062 174.722 167.727 176.644 167.727C178.55 167.727 179.917 167.07 180.746 165.758C181.589 164.43 182.011 162.461 182.011 159.852C182.011 157.258 181.589 155.312 180.746 154.016C179.902 152.719 178.519 152.07 176.597 152.07C174.691 152.07 173.316 152.719 172.472 154.016C171.628 155.297 171.207 157.242 171.207 159.852ZM189.324 159.852C189.324 164.117 188.199 167.453 185.949 169.859C183.699 172.266 180.566 173.469 176.55 173.469C174.035 173.469 171.816 172.922 169.894 171.828C167.972 170.719 166.496 169.133 165.464 167.07C164.433 165.008 163.917 162.602 163.917 159.852C163.917 155.57 165.035 152.242 167.269 149.867C169.503 147.492 172.644 146.305 176.691 146.305C179.207 146.305 181.425 146.852 183.347 147.945C185.269 149.039 186.746 150.609 187.777 152.656C188.808 154.703 189.324 157.102 189.324 159.852ZM219.897 173H212.749V157.695C212.749 155.805 212.413 154.391 211.741 153.453C211.069 152.5 209.999 152.023 208.53 152.023C206.53 152.023 205.085 152.695 204.194 154.039C203.304 155.367 202.858 157.578 202.858 160.672V173H195.71V146.797H201.171L202.132 150.148H202.53C203.327 148.883 204.421 147.93 205.812 147.289C207.218 146.633 208.812 146.305 210.593 146.305C213.64 146.305 215.952 147.133 217.53 148.789C219.108 150.43 219.897 152.805 219.897 155.914V173ZM236.034 173.469C232.956 173.469 230.534 172.273 228.768 169.883C227.018 167.492 226.143 164.18 226.143 159.945C226.143 155.648 227.034 152.305 228.815 149.914C230.612 147.508 233.081 146.305 236.221 146.305C239.518 146.305 242.034 147.586 243.768 150.148H244.003C243.643 148.195 243.463 146.453 243.463 144.922V136.531H250.635V173H245.151L243.768 169.602H243.463C241.838 172.18 239.362 173.469 236.034 173.469ZM238.542 167.773C240.37 167.773 241.706 167.242 242.549 166.18C243.409 165.117 243.878 163.312 243.956 160.766V159.992C243.956 157.18 243.518 155.164 242.643 153.945C241.784 152.727 240.378 152.117 238.424 152.117C236.831 152.117 235.588 152.797 234.698 154.156C233.823 155.5 233.385 157.461 233.385 160.039C233.385 162.617 233.831 164.555 234.721 165.852C235.612 167.133 236.885 167.773 238.542 167.773ZM275.232 173L273.85 169.438H273.662C272.459 170.953 271.217 172.008 269.936 172.602C268.67 173.18 267.014 173.469 264.967 173.469C262.451 173.469 260.467 172.75 259.014 171.312C257.576 169.875 256.857 167.828 256.857 165.172C256.857 162.391 257.826 160.344 259.764 159.031C261.717 157.703 264.654 156.969 268.576 156.828L273.123 156.688V155.539C273.123 152.883 271.764 151.555 269.045 151.555C266.951 151.555 264.49 152.188 261.662 153.453L259.295 148.625C262.311 147.047 265.654 146.258 269.326 146.258C272.842 146.258 275.537 147.023 277.412 148.555C279.287 150.086 280.225 152.414 280.225 155.539V173H275.232ZM273.123 160.859L270.357 160.953C268.279 161.016 266.732 161.391 265.717 162.078C264.701 162.766 264.193 163.812 264.193 165.219C264.193 167.234 265.35 168.242 267.662 168.242C269.318 168.242 270.639 167.766 271.623 166.812C272.623 165.859 273.123 164.594 273.123 163.016V160.859ZM284.337 146.797H292.166L297.111 161.539C297.533 162.82 297.822 164.336 297.978 166.086H298.119C298.291 164.477 298.627 162.961 299.127 161.539L303.978 146.797H311.642L300.556 176.352C299.541 179.086 298.087 181.133 296.197 182.492C294.322 183.852 292.127 184.531 289.611 184.531C288.377 184.531 287.166 184.398 285.978 184.133V178.461C286.837 178.664 287.775 178.766 288.791 178.766C290.056 178.766 291.158 178.375 292.095 177.594C293.048 176.828 293.791 175.664 294.322 174.102L294.744 172.812L284.337 146.797ZM349.633 163.484C349.633 166.578 348.516 169.016 346.282 170.797C344.063 172.578 340.969 173.469 337.001 173.469C333.344 173.469 330.11 172.781 327.298 171.406V164.656C329.61 165.688 331.563 166.414 333.157 166.836C334.766 167.258 336.235 167.469 337.563 167.469C339.157 167.469 340.376 167.164 341.219 166.555C342.079 165.945 342.508 165.039 342.508 163.836C342.508 163.164 342.321 162.57 341.946 162.055C341.571 161.523 341.016 161.016 340.282 160.531C339.563 160.047 338.087 159.273 335.852 158.211C333.758 157.227 332.188 156.281 331.141 155.375C330.094 154.469 329.258 153.414 328.633 152.211C328.008 151.008 327.696 149.602 327.696 147.992C327.696 144.961 328.719 142.578 330.766 140.844C332.829 139.109 335.673 138.242 339.298 138.242C341.079 138.242 342.774 138.453 344.383 138.875C346.008 139.297 347.704 139.891 349.469 140.656L347.126 146.305C345.298 145.555 343.782 145.031 342.579 144.734C341.391 144.438 340.219 144.289 339.063 144.289C337.688 144.289 336.633 144.609 335.899 145.25C335.165 145.891 334.798 146.727 334.798 147.758C334.798 148.398 334.946 148.961 335.243 149.445C335.54 149.914 336.008 150.375 336.649 150.828C337.305 151.266 338.844 152.062 341.266 153.219C344.469 154.75 346.665 156.289 347.852 157.836C349.04 159.367 349.633 161.25 349.633 163.484ZM370.152 173.469C367.074 173.469 364.66 172.352 362.91 170.117H362.535C362.785 172.305 362.91 173.57 362.91 173.914V184.531H355.762V146.797H361.574L362.582 150.195H362.91C364.582 147.602 367.059 146.305 370.34 146.305C373.434 146.305 375.856 147.5 377.606 149.891C379.356 152.281 380.231 155.602 380.231 159.852C380.231 162.648 379.817 165.078 378.988 167.141C378.176 169.203 377.012 170.773 375.496 171.852C373.981 172.93 372.199 173.469 370.152 173.469ZM368.043 152.023C366.277 152.023 364.988 152.57 364.176 153.664C363.363 154.742 362.942 156.531 362.91 159.031V159.805C362.91 162.617 363.324 164.633 364.152 165.852C364.996 167.07 366.324 167.68 368.137 167.68C371.34 167.68 372.942 165.039 372.942 159.758C372.942 157.18 372.543 155.25 371.746 153.969C370.965 152.672 369.731 152.023 368.043 152.023ZM397.468 151.391C395.953 151.391 394.765 151.875 393.906 152.844C393.047 153.797 392.554 155.156 392.429 156.922H402.461C402.429 155.156 401.968 153.797 401.078 152.844C400.187 151.875 398.984 151.391 397.468 151.391ZM398.476 173.469C394.258 173.469 390.961 172.305 388.586 169.977C386.211 167.648 385.023 164.352 385.023 160.086C385.023 155.695 386.117 152.305 388.304 149.914C390.508 147.508 393.547 146.305 397.422 146.305C401.125 146.305 404.008 147.359 406.07 149.469C408.133 151.578 409.164 154.492 409.164 158.211V161.68H392.265C392.343 163.711 392.945 165.297 394.07 166.438C395.195 167.578 396.773 168.148 398.804 168.148C400.383 168.148 401.875 167.984 403.281 167.656C404.687 167.328 406.156 166.805 407.687 166.086V171.617C406.437 172.242 405.101 172.703 403.679 173C402.258 173.312 400.523 173.469 398.476 173.469ZM426.097 173.469C417.941 173.469 413.862 168.992 413.862 160.039C413.862 155.586 414.972 152.188 417.191 149.844C419.409 147.484 422.589 146.305 426.73 146.305C429.761 146.305 432.48 146.898 434.886 148.086L432.777 153.617C431.652 153.164 430.605 152.797 429.636 152.516C428.667 152.219 427.698 152.07 426.73 152.07C423.011 152.07 421.152 154.711 421.152 159.992C421.152 165.117 423.011 167.68 426.73 167.68C428.105 167.68 429.378 167.5 430.55 167.141C431.722 166.766 432.894 166.188 434.066 165.406V171.523C432.909 172.258 431.737 172.766 430.55 173.047C429.378 173.328 427.894 173.469 426.097 173.469ZM440.335 140.023C440.335 137.695 441.632 136.531 444.225 136.531C446.819 136.531 448.116 137.695 448.116 140.023C448.116 141.133 447.788 142 447.132 142.625C446.491 143.234 445.522 143.539 444.225 143.539C441.632 143.539 440.335 142.367 440.335 140.023ZM447.788 173H440.639V146.797H447.788V173ZM472.432 173L471.049 169.438H470.862C469.658 170.953 468.416 172.008 467.135 172.602C465.869 173.18 464.213 173.469 462.166 173.469C459.651 173.469 457.666 172.75 456.213 171.312C454.776 169.875 454.057 167.828 454.057 165.172C454.057 162.391 455.026 160.344 456.963 159.031C458.916 157.703 461.854 156.969 465.776 156.828L470.323 156.688V155.539C470.323 152.883 468.963 151.555 466.244 151.555C464.151 151.555 461.69 152.188 458.862 153.453L456.494 148.625C459.51 147.047 462.854 146.258 466.526 146.258C470.041 146.258 472.737 147.023 474.612 148.555C476.487 150.086 477.424 152.414 477.424 155.539V173H472.432ZM470.323 160.859L467.557 160.953C465.479 161.016 463.932 161.391 462.916 162.078C461.901 162.766 461.393 163.812 461.393 165.219C461.393 167.234 462.549 168.242 464.862 168.242C466.518 168.242 467.838 167.766 468.823 166.812C469.823 165.859 470.323 164.594 470.323 163.016V160.859ZM492.435 173H485.287V136.531H492.435V173ZM148.742 220.539C148.742 226.18 147.133 230.5 143.914 233.5C140.711 236.5 136.078 238 130.016 238H120.312V203.734H131.07C136.664 203.734 141.008 205.211 144.102 208.164C147.195 211.117 148.742 215.242 148.742 220.539ZM141.195 220.727C141.195 213.367 137.945 209.688 131.445 209.688H127.578V232H130.695C137.695 232 141.195 228.242 141.195 220.727ZM166.613 216.391C165.097 216.391 163.91 216.875 163.05 217.844C162.191 218.797 161.699 220.156 161.574 221.922H171.605C171.574 220.156 171.113 218.797 170.222 217.844C169.332 216.875 168.128 216.391 166.613 216.391ZM167.621 238.469C163.402 238.469 160.105 237.305 157.73 234.977C155.355 232.648 154.167 229.352 154.167 225.086C154.167 220.695 155.261 217.305 157.449 214.914C159.652 212.508 162.691 211.305 166.566 211.305C170.269 211.305 173.152 212.359 175.214 214.469C177.277 216.578 178.308 219.492 178.308 223.211V226.68H161.41C161.488 228.711 162.089 230.297 163.214 231.438C164.339 232.578 165.917 233.148 167.949 233.148C169.527 233.148 171.019 232.984 172.425 232.656C173.832 232.328 175.3 231.805 176.832 231.086V236.617C175.582 237.242 174.246 237.703 172.824 238C171.402 238.312 169.667 238.469 167.621 238.469ZM201.241 238L199.858 234.438H199.671C198.468 235.953 197.226 237.008 195.944 237.602C194.679 238.18 193.022 238.469 190.976 238.469C188.46 238.469 186.476 237.75 185.022 236.312C183.585 234.875 182.866 232.828 182.866 230.172C182.866 227.391 183.835 225.344 185.772 224.031C187.726 222.703 190.663 221.969 194.585 221.828L199.132 221.688V220.539C199.132 217.883 197.772 216.555 195.054 216.555C192.96 216.555 190.499 217.188 187.671 218.453L185.304 213.625C188.319 212.047 191.663 211.258 195.335 211.258C198.851 211.258 201.546 212.023 203.421 213.555C205.296 215.086 206.233 217.414 206.233 220.539V238H201.241ZM199.132 225.859L196.366 225.953C194.288 226.016 192.741 226.391 191.726 227.078C190.71 227.766 190.202 228.812 190.202 230.219C190.202 232.234 191.358 233.242 193.671 233.242C195.327 233.242 196.647 232.766 197.632 231.812C198.632 230.859 199.132 229.594 199.132 228.016V225.859ZM221.245 238H214.096V201.531H221.245V238ZM247.529 230.219C247.529 232.906 246.592 234.953 244.717 236.359C242.857 237.766 240.068 238.469 236.35 238.469C234.443 238.469 232.818 238.336 231.475 238.07C230.131 237.82 228.873 237.445 227.701 236.945V231.039C229.029 231.664 230.522 232.188 232.178 232.609C233.85 233.031 235.318 233.242 236.584 233.242C239.178 233.242 240.475 232.492 240.475 230.992C240.475 230.43 240.303 229.977 239.959 229.633C239.615 229.273 239.022 228.875 238.178 228.438C237.334 227.984 236.209 227.461 234.803 226.867C232.787 226.023 231.303 225.242 230.35 224.523C229.412 223.805 228.725 222.984 228.287 222.062C227.865 221.125 227.654 219.977 227.654 218.617C227.654 216.289 228.553 214.492 230.35 213.227C232.162 211.945 234.725 211.305 238.037 211.305C241.193 211.305 244.264 211.992 247.248 213.367L245.092 218.523C243.779 217.961 242.553 217.5 241.412 217.141C240.272 216.781 239.107 216.602 237.92 216.602C235.811 216.602 234.756 217.172 234.756 218.312C234.756 218.953 235.092 219.508 235.764 219.977C236.451 220.445 237.943 221.141 240.24 222.062C242.287 222.891 243.787 223.664 244.74 224.383C245.693 225.102 246.397 225.93 246.85 226.867C247.303 227.805 247.529 228.922 247.529 230.219Z" fill="white"/>
<path d="M778.504 127.904C778.504 132.135 777.296 135.375 774.882 137.625C772.48 139.875 769.005 141 764.459 141H757.181V115.301H765.25C769.445 115.301 772.703 116.408 775.023 118.623C777.343 120.838 778.504 123.932 778.504 127.904ZM772.843 128.045C772.843 122.525 770.406 119.766 765.531 119.766H762.63V136.5H764.968C770.218 136.5 772.843 133.682 772.843 128.045ZM784.079 116.268C784.079 114.521 785.052 113.648 786.997 113.648C788.943 113.648 789.915 114.521 789.915 116.268C789.915 117.1 789.669 117.75 789.177 118.219C788.696 118.676 787.97 118.904 786.997 118.904C785.052 118.904 784.079 118.025 784.079 116.268ZM789.669 141H784.308V121.348H789.669V141ZM809.923 135.164C809.923 137.18 809.22 138.715 807.813 139.77C806.419 140.824 804.327 141.352 801.538 141.352C800.108 141.352 798.889 141.252 797.882 141.053C796.874 140.865 795.93 140.584 795.052 140.209V135.779C796.048 136.248 797.167 136.641 798.409 136.957C799.663 137.273 800.764 137.432 801.714 137.432C803.659 137.432 804.632 136.869 804.632 135.744C804.632 135.322 804.503 134.982 804.245 134.725C803.987 134.455 803.542 134.156 802.909 133.828C802.276 133.488 801.432 133.096 800.378 132.65C798.866 132.018 797.753 131.432 797.038 130.893C796.335 130.354 795.819 129.738 795.491 129.047C795.175 128.344 795.016 127.482 795.016 126.463C795.016 124.717 795.69 123.369 797.038 122.42C798.397 121.459 800.319 120.979 802.804 120.979C805.171 120.979 807.473 121.494 809.712 122.525L808.095 126.393C807.11 125.971 806.19 125.625 805.335 125.355C804.479 125.086 803.606 124.951 802.716 124.951C801.134 124.951 800.343 125.379 800.343 126.234C800.343 126.715 800.595 127.131 801.098 127.482C801.614 127.834 802.733 128.355 804.456 129.047C805.991 129.668 807.116 130.248 807.831 130.787C808.546 131.326 809.073 131.947 809.413 132.65C809.753 133.354 809.923 134.191 809.923 135.164ZM822.987 141.352C816.87 141.352 813.811 137.994 813.811 131.279C813.811 127.939 814.643 125.391 816.307 123.633C817.971 121.863 820.356 120.979 823.461 120.979C825.735 120.979 827.774 121.424 829.579 122.314L827.996 126.463C827.153 126.123 826.368 125.848 825.641 125.637C824.914 125.414 824.188 125.303 823.461 125.303C820.672 125.303 819.278 127.283 819.278 131.244C819.278 135.088 820.672 137.01 823.461 137.01C824.493 137.01 825.448 136.875 826.327 136.605C827.205 136.324 828.084 135.891 828.963 135.305V139.893C828.096 140.443 827.217 140.824 826.327 141.035C825.448 141.246 824.334 141.352 822.987 141.352ZM838.705 131.139C838.705 133.084 839.021 134.555 839.654 135.551C840.299 136.547 841.342 137.045 842.783 137.045C844.213 137.045 845.238 136.553 845.859 135.568C846.492 134.572 846.809 133.096 846.809 131.139C846.809 129.193 846.492 127.734 845.859 126.762C845.227 125.789 844.189 125.303 842.748 125.303C841.318 125.303 840.287 125.789 839.654 126.762C839.021 127.723 838.705 129.182 838.705 131.139ZM852.293 131.139C852.293 134.338 851.449 136.84 849.762 138.645C848.074 140.449 845.725 141.352 842.713 141.352C840.826 141.352 839.162 140.941 837.721 140.121C836.279 139.289 835.172 138.1 834.398 136.553C833.625 135.006 833.238 133.201 833.238 131.139C833.238 127.928 834.076 125.432 835.752 123.65C837.428 121.869 839.783 120.979 842.818 120.979C844.705 120.979 846.369 121.389 847.811 122.209C849.252 123.029 850.359 124.207 851.133 125.742C851.906 127.277 852.293 129.076 852.293 131.139ZM871.545 141L870.824 138.486H870.543C869.968 139.4 869.154 140.109 868.099 140.613C867.045 141.105 865.843 141.352 864.496 141.352C862.187 141.352 860.447 140.736 859.275 139.506C858.103 138.264 857.517 136.482 857.517 134.162V121.348H862.879V132.826C862.879 134.244 863.13 135.311 863.634 136.025C864.138 136.729 864.941 137.08 866.043 137.08C867.543 137.08 868.627 136.582 869.295 135.586C869.962 134.578 870.296 132.914 870.296 130.594V121.348H875.658V141H871.545ZM900.323 141H894.962V129.521C894.962 128.104 894.71 127.043 894.206 126.34C893.702 125.625 892.9 125.268 891.798 125.268C890.298 125.268 889.214 125.771 888.546 126.779C887.878 127.775 887.544 129.434 887.544 131.754V141H882.183V121.348H886.279L886.999 123.861H887.298C887.896 122.912 888.716 122.197 889.759 121.717C890.814 121.225 892.009 120.979 893.345 120.979C895.63 120.979 897.364 121.6 898.548 122.842C899.732 124.072 900.323 125.854 900.323 128.186V141ZM915.022 137.08C915.96 137.08 917.085 136.875 918.397 136.465V140.455C917.061 141.053 915.421 141.352 913.475 141.352C911.331 141.352 909.766 140.812 908.782 139.734C907.809 138.645 907.323 137.016 907.323 134.848V125.373H904.757V123.105L907.71 121.312L909.257 117.164H912.684V121.348H918.186V125.373H912.684V134.848C912.684 135.609 912.895 136.172 913.317 136.535C913.751 136.898 914.319 137.08 915.022 137.08ZM947.461 141L946.74 138.486H946.459C945.885 139.4 945.07 140.109 944.016 140.613C942.961 141.105 941.76 141.352 940.412 141.352C938.104 141.352 936.363 140.736 935.191 139.506C934.02 138.264 933.434 136.482 933.434 134.162V121.348H938.795V132.826C938.795 134.244 939.047 135.311 939.551 136.025C940.055 136.729 940.857 137.08 941.959 137.08C943.459 137.08 944.543 136.582 945.211 135.586C945.879 134.578 946.213 132.914 946.213 130.594V121.348H951.574V141H947.461ZM968.892 141.352C966.584 141.352 964.773 140.514 963.461 138.838H963.179C963.367 140.479 963.461 141.428 963.461 141.686V149.648H958.099V121.348H962.459L963.214 123.896H963.461C964.714 121.951 966.572 120.979 969.033 120.979C971.353 120.979 973.17 121.875 974.482 123.668C975.795 125.461 976.451 127.951 976.451 131.139C976.451 133.236 976.14 135.059 975.519 136.605C974.91 138.152 974.037 139.33 972.9 140.139C971.763 140.947 970.427 141.352 968.892 141.352ZM967.31 125.268C965.986 125.268 965.019 125.678 964.41 126.498C963.8 127.307 963.484 128.648 963.461 130.523V131.104C963.461 133.213 963.771 134.725 964.392 135.639C965.025 136.553 966.021 137.01 967.38 137.01C969.783 137.01 970.984 135.029 970.984 131.068C970.984 129.135 970.685 127.688 970.087 126.727C969.502 125.754 968.576 125.268 967.31 125.268ZM1000.31 137.08C1001.25 137.08 1002.37 136.875 1003.69 136.465V140.455C1002.35 141.053 1000.71 141.352 998.764 141.352C996.62 141.352 995.055 140.812 994.071 139.734C993.098 138.645 992.612 137.016 992.612 134.848V125.373H990.046V123.105L992.999 121.312L994.546 117.164H997.973V121.348H1003.48V125.373H997.973V134.848C997.973 135.609 998.184 136.172 998.606 136.535C999.04 136.898 999.608 137.08 1000.31 137.08ZM1012.85 131.139C1012.85 133.084 1013.16 134.555 1013.8 135.551C1014.44 136.547 1015.48 137.045 1016.93 137.045C1018.36 137.045 1019.38 136.553 1020 135.568C1020.64 134.572 1020.95 133.096 1020.95 131.139C1020.95 129.193 1020.64 127.734 1020 126.762C1019.37 125.789 1018.33 125.303 1016.89 125.303C1015.46 125.303 1014.43 125.789 1013.8 126.762C1013.16 127.723 1012.85 129.182 1012.85 131.139ZM1026.44 131.139C1026.44 134.338 1025.59 136.84 1023.9 138.645C1022.22 140.449 1019.87 141.352 1016.86 141.352C1014.97 141.352 1013.31 140.941 1011.86 140.121C1010.42 139.289 1009.31 138.1 1008.54 136.553C1007.77 135.006 1007.38 133.201 1007.38 131.139C1007.38 127.928 1008.22 125.432 1009.89 123.65C1011.57 121.869 1013.93 120.979 1016.96 120.979C1018.85 120.979 1020.51 121.389 1021.95 122.209C1023.39 123.029 1024.5 124.207 1025.28 125.742C1026.05 127.277 1026.44 129.076 1026.44 131.139ZM750.155 236V201.734H757.42V236H750.155ZM795.675 218.539C795.675 224.18 794.066 228.5 790.847 231.5C787.644 234.5 783.011 236 776.948 236H767.245V201.734H778.003C783.597 201.734 787.941 203.211 791.034 206.164C794.128 209.117 795.675 213.242 795.675 218.539ZM788.128 218.727C788.128 211.367 784.878 207.688 778.378 207.688H774.511V230H777.628C784.628 230 788.128 226.242 788.128 218.727ZM811.242 216.945H813.586C815.883 216.945 817.578 216.562 818.672 215.797C819.766 215.031 820.313 213.828 820.313 212.188C820.313 210.562 819.75 209.406 818.625 208.719C817.516 208.031 815.789 207.688 813.445 207.688H811.242V216.945ZM811.242 222.852V236H803.977V201.734H813.961C818.617 201.734 822.063 202.586 824.297 204.289C826.531 205.977 827.648 208.547 827.648 212C827.648 214.016 827.094 215.812 825.984 217.391C824.875 218.953 823.305 220.18 821.273 221.07C826.43 228.773 829.789 233.75 831.352 236H823.289L815.109 222.852H811.242ZM881.63 182.797C881.63 187.078 880.333 190.719 877.739 193.719C875.145 196.719 871.505 198.781 866.817 199.906V200.188C872.348 200.875 876.536 202.562 879.38 205.25C882.223 207.906 883.645 211.5 883.645 216.031C883.645 222.625 881.255 227.766 876.473 231.453C871.692 235.109 864.864 236.938 855.989 236.938C848.552 236.938 841.958 235.703 836.208 233.234V220.906C838.864 222.25 841.786 223.344 844.973 224.188C848.161 225.031 851.317 225.453 854.442 225.453C859.223 225.453 862.755 224.641 865.036 223.016C867.317 221.391 868.458 218.781 868.458 215.188C868.458 211.969 867.145 209.688 864.52 208.344C861.895 207 857.708 206.328 851.958 206.328H846.755V195.219H852.052C857.364 195.219 861.239 194.531 863.677 193.156C866.145 191.75 867.38 189.359 867.38 185.984C867.38 180.797 864.13 178.203 857.63 178.203C855.38 178.203 853.083 178.578 850.739 179.328C848.427 180.078 845.848 181.375 843.005 183.219L836.302 173.234C842.552 168.734 850.005 166.484 858.661 166.484C865.755 166.484 871.348 167.922 875.442 170.797C879.567 173.672 881.63 177.672 881.63 182.797ZM941.17 201.734C941.17 213.703 939.202 222.562 935.264 228.312C931.358 234.062 925.327 236.938 917.17 236.938C909.264 236.938 903.295 233.969 899.264 228.031C895.264 222.094 893.264 213.328 893.264 201.734C893.264 189.641 895.217 180.734 899.123 175.016C903.03 169.266 909.045 166.391 917.17 166.391C925.077 166.391 931.045 169.391 935.077 175.391C939.139 181.391 941.17 190.172 941.17 201.734ZM907.655 201.734C907.655 210.141 908.373 216.172 909.811 219.828C911.28 223.453 913.733 225.266 917.17 225.266C920.545 225.266 922.983 223.422 924.483 219.734C925.983 216.047 926.733 210.047 926.733 201.734C926.733 193.328 925.967 187.297 924.436 183.641C922.936 179.953 920.514 178.109 917.17 178.109C913.764 178.109 911.327 179.953 909.858 183.641C908.389 187.297 907.655 193.328 907.655 201.734ZM998.414 201.734C998.414 213.703 996.445 222.562 992.508 228.312C988.602 234.062 982.57 236.938 974.414 236.938C966.508 236.938 960.539 233.969 956.508 228.031C952.508 222.094 950.508 213.328 950.508 201.734C950.508 189.641 952.461 180.734 956.367 175.016C960.273 169.266 966.289 166.391 974.414 166.391C982.32 166.391 988.289 169.391 992.32 175.391C996.383 181.391 998.414 190.172 998.414 201.734ZM964.898 201.734C964.898 210.141 965.617 216.172 967.055 219.828C968.523 223.453 970.977 225.266 974.414 225.266C977.789 225.266 980.227 223.422 981.727 219.734C983.227 216.047 983.977 210.047 983.977 201.734C983.977 193.328 983.211 187.297 981.68 183.641C980.18 179.953 977.758 178.109 974.414 178.109C971.008 178.109 968.57 179.953 967.102 183.641C965.633 187.297 964.898 193.328 964.898 201.734ZM1036.16 236H1027.91L1018.93 221.562L1015.86 223.766V236H1008.6V201.734H1015.86V217.414L1018.72 213.383L1028 201.734H1036.06L1024.11 216.898L1036.16 236Z" fill="white"/>
<defs>
<filter id="filter0_d" x="0" y="0" width="1145" height="382" filterUnits="userSpaceOnUse" color-interpolation-filters="sRGB">
<feFlood flood-opacity="0" result="BackgroundImageFix"/>
<feColorMatrix in="SourceAlpha" type="matrix" values="0 0 0 0 0 0 0 0 0 0 0 0 0 0 0 0 0 0 127 0"/>
<feMorphology radius="1" operator="dilate" in="SourceAlpha" result="effect1_dropShadow"/>
<feOffset dy="4"/>
<feGaussianBlur stdDeviation="8.5"/>
<feColorMatrix type="matrix" values="0 0 0 0 0.633333 0 0 0 0 0.633333 0 0 0 0 0.633333 0 0 0 0.25 0"/>
<feBlend mode="normal" in2="BackgroundImageFix" result="effect1_dropShadow"/>
<feBlend mode="normal" in="SourceGraphic" in2="effect1_dropShadow" result="shape"/>
</filter>
<linearGradient id="paint0_linear" x1="433" y1="360" x2="1143" y2="1.49995" gradientUnits="userSpaceOnUse">
<stop stop-color="white" stop-opacity="0.63"/>
<stop offset="1" stop-color="white" stop-opacity="0"/>
</linearGradient>
</defs>
</svg>
