<svg width="1145" height="382" viewBox="0 0 1145 382" fill="none" xmlns="http://www.w3.org/2000/svg">
<g filter="url(#filter0_d)">
<rect x="18" y="14" width="1109" height="346" rx="14" fill="url(#paint0_linear)" fill-opacity="0.48"/>
</g>
<path d="M148.742 169.539C148.742 175.18 147.133 179.5 143.914 182.5C140.711 185.5 136.078 187 130.016 187H120.312V152.734H131.07C136.664 152.734 141.008 154.211 144.102 157.164C147.195 160.117 148.742 164.242 148.742 169.539ZM141.195 169.727C141.195 162.367 137.945 158.688 131.445 158.688H127.578V181H130.695C137.695 181 141.195 177.242 141.195 169.727ZM161.457 173.852C161.457 176.445 161.878 178.406 162.722 179.734C163.582 181.062 164.972 181.727 166.894 181.727C168.8 181.727 170.167 181.07 170.996 179.758C171.839 178.43 172.261 176.461 172.261 173.852C172.261 171.258 171.839 169.312 170.996 168.016C170.152 166.719 168.769 166.07 166.847 166.07C164.941 166.07 163.566 166.719 162.722 168.016C161.878 169.297 161.457 171.242 161.457 173.852ZM179.574 173.852C179.574 178.117 178.449 181.453 176.199 183.859C173.949 186.266 170.816 187.469 166.8 187.469C164.285 187.469 162.066 186.922 160.144 185.828C158.222 184.719 156.746 183.133 155.714 181.07C154.683 179.008 154.167 176.602 154.167 173.852C154.167 169.57 155.285 166.242 157.519 163.867C159.753 161.492 162.894 160.305 166.941 160.305C169.457 160.305 171.675 160.852 173.597 161.945C175.519 163.039 176.996 164.609 178.027 166.656C179.058 168.703 179.574 171.102 179.574 173.852ZM209.421 187H202.272V171.695C202.272 169.805 201.952 168.391 201.312 167.453C200.687 166.5 199.694 166.023 198.335 166.023C196.507 166.023 195.179 166.695 194.351 168.039C193.522 169.383 193.108 171.594 193.108 174.672V187H185.96V160.797H191.421L192.382 164.148H192.78C193.483 162.945 194.499 162.008 195.827 161.336C197.155 160.648 198.679 160.305 200.397 160.305C204.319 160.305 206.976 161.586 208.366 164.148H208.999C209.702 162.93 210.733 161.984 212.093 161.312C213.468 160.641 215.015 160.305 216.733 160.305C219.702 160.305 221.944 161.07 223.46 162.602C224.991 164.117 225.757 166.555 225.757 169.914V187H218.585V171.695C218.585 169.805 218.265 168.391 217.624 167.453C216.999 166.5 216.007 166.023 214.647 166.023C212.897 166.023 211.585 166.648 210.71 167.898C209.851 169.148 209.421 171.133 209.421 173.852V187ZM244.448 165.391C242.932 165.391 241.745 165.875 240.885 166.844C240.026 167.797 239.534 169.156 239.409 170.922H249.44C249.409 169.156 248.948 167.797 248.057 166.844C247.167 165.875 245.963 165.391 244.448 165.391ZM245.456 187.469C241.237 187.469 237.94 186.305 235.565 183.977C233.19 181.648 232.003 178.352 232.003 174.086C232.003 169.695 233.096 166.305 235.284 163.914C237.487 161.508 240.526 160.305 244.401 160.305C248.104 160.305 250.987 161.359 253.049 163.469C255.112 165.578 256.143 168.492 256.143 172.211V175.68H239.245C239.323 177.711 239.924 179.297 241.049 180.438C242.174 181.578 243.753 182.148 245.784 182.148C247.362 182.148 248.854 181.984 250.26 181.656C251.667 181.328 253.135 180.805 254.667 180.086V185.617C253.417 186.242 252.081 186.703 250.659 187C249.237 187.312 247.503 187.469 245.456 187.469ZM280.717 179.219C280.717 181.906 279.779 183.953 277.904 185.359C276.045 186.766 273.256 187.469 269.537 187.469C267.631 187.469 266.006 187.336 264.662 187.07C263.318 186.82 262.061 186.445 260.889 185.945V180.039C262.217 180.664 263.709 181.188 265.365 181.609C267.037 182.031 268.506 182.242 269.772 182.242C272.365 182.242 273.662 181.492 273.662 179.992C273.662 179.43 273.49 178.977 273.147 178.633C272.803 178.273 272.209 177.875 271.365 177.438C270.522 176.984 269.397 176.461 267.99 175.867C265.975 175.023 264.49 174.242 263.537 173.523C262.6 172.805 261.912 171.984 261.475 171.062C261.053 170.125 260.842 168.977 260.842 167.617C260.842 165.289 261.74 163.492 263.537 162.227C265.35 160.945 267.912 160.305 271.225 160.305C274.381 160.305 277.451 160.992 280.436 162.367L278.279 167.523C276.967 166.961 275.74 166.5 274.6 166.141C273.459 165.781 272.295 165.602 271.107 165.602C268.998 165.602 267.943 166.172 267.943 167.312C267.943 167.953 268.279 168.508 268.951 168.977C269.639 169.445 271.131 170.141 273.428 171.062C275.475 171.891 276.975 172.664 277.928 173.383C278.881 174.102 279.584 174.93 280.037 175.867C280.49 176.805 280.717 177.922 280.717 179.219ZM297.814 181.773C299.064 181.773 300.564 181.5 302.314 180.953V186.273C300.533 187.07 298.345 187.469 295.752 187.469C292.892 187.469 290.806 186.75 289.494 185.312C288.197 183.859 287.548 181.688 287.548 178.797V166.164H284.127V163.141L288.064 160.75L290.127 155.219H294.697V160.797H302.033V166.164H294.697V178.797C294.697 179.812 294.978 180.562 295.541 181.047C296.119 181.531 296.877 181.773 297.814 181.773ZM307.81 154.023C307.81 151.695 309.107 150.531 311.7 150.531C314.294 150.531 315.591 151.695 315.591 154.023C315.591 155.133 315.263 156 314.607 156.625C313.966 157.234 312.997 157.539 311.7 157.539C309.107 157.539 307.81 156.367 307.81 154.023ZM315.263 187H308.114V160.797H315.263V187ZM333.907 187.469C325.751 187.469 321.673 182.992 321.673 174.039C321.673 169.586 322.782 166.188 325.001 163.844C327.219 161.484 330.399 160.305 334.54 160.305C337.571 160.305 340.29 160.898 342.696 162.086L340.587 167.617C339.462 167.164 338.415 166.797 337.446 166.516C336.477 166.219 335.508 166.07 334.54 166.07C330.821 166.07 328.962 168.711 328.962 173.992C328.962 179.117 330.821 181.68 334.54 181.68C335.915 181.68 337.188 181.5 338.36 181.141C339.532 180.766 340.704 180.188 341.876 179.406V185.523C340.719 186.258 339.548 186.766 338.36 187.047C337.188 187.328 335.704 187.469 333.907 187.469ZM369.109 187H361.961V152.734H381.601V158.688H369.109V167.523H380.734V173.453H369.109V187ZM395.37 187H388.222V150.531H395.37V187ZM403.069 154.023C403.069 151.695 404.366 150.531 406.96 150.531C409.553 150.531 410.85 151.695 410.85 154.023C410.85 155.133 410.522 156 409.866 156.625C409.225 157.234 408.257 157.539 406.96 157.539C404.366 157.539 403.069 156.367 403.069 154.023ZM410.522 187H403.374V160.797H410.522V187ZM441.33 160.797V164.43L437.229 165.484C437.979 166.656 438.354 167.969 438.354 169.422C438.354 172.234 437.369 174.43 435.401 176.008C433.448 177.57 430.729 178.352 427.244 178.352L425.955 178.281L424.901 178.164C424.166 178.727 423.799 179.352 423.799 180.039C423.799 181.07 425.112 181.586 427.737 181.586H432.19C435.065 181.586 437.252 182.203 438.752 183.438C440.268 184.672 441.026 186.484 441.026 188.875C441.026 191.938 439.744 194.312 437.182 196C434.635 197.688 430.971 198.531 426.19 198.531C422.533 198.531 419.737 197.891 417.799 196.609C415.877 195.344 414.916 193.562 414.916 191.266C414.916 189.688 415.408 188.367 416.393 187.305C417.377 186.242 418.823 185.484 420.729 185.031C419.994 184.719 419.354 184.211 418.807 183.508C418.26 182.789 417.987 182.031 417.987 181.234C417.987 180.234 418.276 179.406 418.854 178.75C419.432 178.078 420.268 177.422 421.362 176.781C419.987 176.188 418.893 175.234 418.08 173.922C417.283 172.609 416.885 171.062 416.885 169.281C416.885 166.422 417.815 164.211 419.674 162.648C421.533 161.086 424.19 160.305 427.643 160.305C428.377 160.305 429.244 160.375 430.244 160.516C431.26 160.641 431.908 160.734 432.19 160.797H441.33ZM421.104 190.703C421.104 191.688 421.573 192.461 422.51 193.023C423.463 193.586 424.791 193.867 426.494 193.867C429.057 193.867 431.065 193.516 432.518 192.812C433.971 192.109 434.698 191.148 434.698 189.93C434.698 188.945 434.268 188.266 433.408 187.891C432.549 187.516 431.221 187.328 429.424 187.328H425.721C424.408 187.328 423.307 187.633 422.416 188.242C421.541 188.867 421.104 189.688 421.104 190.703ZM423.705 169.375C423.705 170.797 424.026 171.922 424.666 172.75C425.323 173.578 426.315 173.992 427.643 173.992C428.987 173.992 429.971 173.578 430.596 172.75C431.221 171.922 431.533 170.797 431.533 169.375C431.533 166.219 430.237 164.641 427.643 164.641C425.018 164.641 423.705 166.219 423.705 169.375ZM470.334 187H463.185V171.695C463.185 167.914 461.779 166.023 458.967 166.023C456.967 166.023 455.521 166.703 454.631 168.062C453.74 169.422 453.295 171.625 453.295 174.672V187H446.146V150.531H453.295V157.961C453.295 158.539 453.24 159.898 453.131 162.039L452.967 164.148H453.342C454.935 161.586 457.467 160.305 460.935 160.305C464.013 160.305 466.349 161.133 467.943 162.789C469.537 164.445 470.334 166.82 470.334 169.914V187ZM489.212 181.773C490.462 181.773 491.962 181.5 493.712 180.953V186.273C491.931 187.07 489.743 187.469 487.15 187.469C484.29 187.469 482.204 186.75 480.892 185.312C479.595 183.859 478.947 181.688 478.947 178.797V166.164H475.525V163.141L479.462 160.75L481.525 155.219H486.095V160.797H493.431V166.164H486.095V178.797C486.095 179.812 486.376 180.562 486.939 181.047C487.517 181.531 488.275 181.773 489.212 181.773ZM517.794 179.219C517.794 181.906 516.856 183.953 514.981 185.359C513.122 186.766 510.333 187.469 506.614 187.469C504.708 187.469 503.083 187.336 501.739 187.07C500.395 186.82 499.138 186.445 497.966 185.945V180.039C499.294 180.664 500.786 181.188 502.442 181.609C504.114 182.031 505.583 182.242 506.848 182.242C509.442 182.242 510.739 181.492 510.739 179.992C510.739 179.43 510.567 178.977 510.223 178.633C509.88 178.273 509.286 177.875 508.442 177.438C507.598 176.984 506.473 176.461 505.067 175.867C503.052 175.023 501.567 174.242 500.614 173.523C499.677 172.805 498.989 171.984 498.552 171.062C498.13 170.125 497.919 168.977 497.919 167.617C497.919 165.289 498.817 163.492 500.614 162.227C502.427 160.945 504.989 160.305 508.302 160.305C511.458 160.305 514.528 160.992 517.513 162.367L515.356 167.523C514.044 166.961 512.817 166.5 511.677 166.141C510.536 165.781 509.372 165.602 508.184 165.602C506.075 165.602 505.02 166.172 505.02 167.312C505.02 167.953 505.356 168.508 506.028 168.977C506.716 169.445 508.208 170.141 510.505 171.062C512.552 171.891 514.052 172.664 515.005 173.383C515.958 174.102 516.661 174.93 517.114 175.867C517.567 176.805 517.794 177.922 517.794 179.219Z" fill="white"/>
<path d="M135.717 119H132.201V109.347H122.328V119H118.827V97.584H122.328V106.344H132.201V97.584H135.717V119ZM155.66 110.87C155.66 113.517 154.982 115.582 153.624 117.066C152.267 118.551 150.377 119.293 147.955 119.293C146.442 119.293 145.104 118.951 143.942 118.268C142.779 117.584 141.886 116.603 141.261 115.323C140.636 114.044 140.323 112.56 140.323 110.87C140.323 108.243 140.997 106.192 142.345 104.718C143.693 103.243 145.592 102.506 148.043 102.506C150.387 102.506 152.242 103.263 153.61 104.776C154.977 106.28 155.66 108.312 155.66 110.87ZM143.868 110.87C143.868 114.61 145.25 116.48 148.014 116.48C150.748 116.48 152.115 114.61 152.115 110.87C152.115 107.169 150.738 105.318 147.985 105.318C146.539 105.318 145.489 105.797 144.835 106.754C144.191 107.711 143.868 109.083 143.868 110.87ZM163.372 119H159.93V96.207H163.372V119ZM172.051 119H168.609V102.799H172.051V119ZM168.404 98.5068C168.404 97.8916 168.57 97.418 168.902 97.0859C169.244 96.7539 169.727 96.5879 170.352 96.5879C170.958 96.5879 171.426 96.7539 171.758 97.0859C172.1 97.418 172.271 97.8916 172.271 98.5068C172.271 99.0928 172.1 99.5566 171.758 99.8984C171.426 100.23 170.958 100.396 170.352 100.396C169.727 100.396 169.244 100.23 168.902 99.8984C168.57 99.5566 168.404 99.0928 168.404 98.5068ZM182.752 119.293C180.73 119.293 179.153 118.561 178.02 117.096C176.888 115.631 176.321 113.575 176.321 110.929C176.321 108.272 176.892 106.207 178.035 104.732C179.187 103.248 180.779 102.506 182.81 102.506C184.939 102.506 186.56 103.292 187.674 104.864H187.849C187.683 103.702 187.6 102.784 187.6 102.11V96.207H191.057V119H188.362L187.762 116.876H187.6C186.497 118.487 184.881 119.293 182.752 119.293ZM183.675 116.51C185.091 116.51 186.121 116.114 186.765 115.323C187.41 114.522 187.742 113.229 187.762 111.441V110.958C187.762 108.917 187.429 107.467 186.765 106.607C186.101 105.748 185.061 105.318 183.645 105.318C182.434 105.318 181.502 105.812 180.847 106.798C180.193 107.774 179.866 109.171 179.866 110.987C179.866 112.784 180.183 114.156 180.818 115.104C181.453 116.041 182.405 116.51 183.675 116.51ZM206.416 119L205.728 116.744H205.61C204.829 117.73 204.043 118.404 203.252 118.766C202.461 119.117 201.445 119.293 200.205 119.293C198.613 119.293 197.368 118.863 196.47 118.004C195.581 117.145 195.137 115.929 195.137 114.356C195.137 112.687 195.757 111.427 196.997 110.577C198.237 109.728 200.127 109.264 202.666 109.186L205.464 109.098V108.233C205.464 107.198 205.22 106.427 204.731 105.919C204.253 105.401 203.506 105.143 202.49 105.143C201.66 105.143 200.864 105.265 200.103 105.509C199.341 105.753 198.608 106.041 197.905 106.373L196.792 103.912C197.671 103.453 198.633 103.106 199.678 102.872C200.723 102.628 201.709 102.506 202.637 102.506C204.697 102.506 206.25 102.955 207.295 103.854C208.35 104.752 208.877 106.163 208.877 108.087V119H206.416ZM201.289 116.656C202.539 116.656 203.54 116.31 204.292 115.616C205.054 114.913 205.435 113.932 205.435 112.672V111.266L203.354 111.354C201.733 111.412 200.552 111.686 199.81 112.174C199.077 112.652 198.711 113.39 198.711 114.386C198.711 115.108 198.926 115.67 199.355 116.07C199.785 116.461 200.43 116.656 201.289 116.656ZM211.521 102.799H215.271L218.567 111.983C219.065 113.292 219.397 114.522 219.563 115.675H219.68C219.768 115.138 219.929 114.488 220.163 113.727C220.398 112.955 221.638 109.312 223.884 102.799H227.605L220.676 121.153C219.416 124.522 217.317 126.207 214.377 126.207C213.615 126.207 212.873 126.124 212.151 125.958V123.233C212.668 123.351 213.259 123.409 213.923 123.409C215.583 123.409 216.75 122.447 217.424 120.523L218.025 119L211.521 102.799ZM251.173 113.185C251.173 115.089 250.485 116.583 249.108 117.667C247.731 118.751 245.832 119.293 243.41 119.293C240.988 119.293 239.005 118.917 237.463 118.165V114.854C238.439 115.313 239.474 115.675 240.568 115.938C241.671 116.202 242.697 116.334 243.644 116.334C245.031 116.334 246.051 116.07 246.706 115.543C247.37 115.016 247.702 114.308 247.702 113.419C247.702 112.618 247.399 111.939 246.794 111.383C246.188 110.826 244.938 110.167 243.044 109.405C241.09 108.614 239.713 107.711 238.913 106.695C238.112 105.68 237.712 104.459 237.712 103.033C237.712 101.246 238.346 99.8398 239.616 98.8145C240.885 97.7891 242.589 97.2764 244.728 97.2764C246.779 97.2764 248.82 97.7256 250.851 98.624L249.738 101.48C247.834 100.68 246.134 100.279 244.64 100.279C243.507 100.279 242.648 100.528 242.062 101.026C241.476 101.515 241.183 102.164 241.183 102.975C241.183 103.531 241.3 104.01 241.535 104.41C241.769 104.801 242.155 105.172 242.692 105.523C243.229 105.875 244.196 106.339 245.592 106.915C247.165 107.569 248.317 108.18 249.049 108.746C249.782 109.312 250.319 109.952 250.661 110.665C251.003 111.378 251.173 112.218 251.173 113.185ZM263.471 119.293C261.42 119.293 259.828 118.556 258.695 117.081H258.49C258.627 118.448 258.695 119.278 258.695 119.571V126.207H255.253V102.799H258.036C258.114 103.102 258.275 103.824 258.519 104.967H258.695C259.769 103.326 261.381 102.506 263.529 102.506C265.551 102.506 267.123 103.238 268.246 104.703C269.379 106.168 269.945 108.224 269.945 110.87C269.945 113.517 269.369 115.582 268.217 117.066C267.074 118.551 265.492 119.293 263.471 119.293ZM262.636 105.318C261.268 105.318 260.267 105.719 259.633 106.52C259.008 107.32 258.695 108.6 258.695 110.357V110.87C258.695 112.843 259.008 114.273 259.633 115.162C260.258 116.041 261.278 116.48 262.694 116.48C263.886 116.48 264.804 115.992 265.448 115.016C266.093 114.039 266.415 112.647 266.415 110.841C266.415 109.024 266.093 107.652 265.448 106.725C264.813 105.787 263.876 105.318 262.636 105.318ZM281.319 119.293C278.8 119.293 276.827 118.561 275.401 117.096C273.985 115.621 273.277 113.595 273.277 111.017C273.277 108.37 273.937 106.29 275.255 104.776C276.573 103.263 278.385 102.506 280.689 102.506C282.828 102.506 284.518 103.155 285.758 104.454C286.998 105.753 287.618 107.54 287.618 109.815V111.676H276.822C276.871 113.248 277.296 114.459 278.097 115.309C278.897 116.148 280.025 116.568 281.48 116.568C282.438 116.568 283.326 116.48 284.146 116.305C284.977 116.119 285.865 115.816 286.812 115.396V118.194C285.973 118.595 285.123 118.878 284.264 119.044C283.404 119.21 282.423 119.293 281.319 119.293ZM280.689 105.113C279.596 105.113 278.717 105.46 278.053 106.153C277.398 106.847 277.008 107.857 276.881 109.186H284.234C284.215 107.848 283.893 106.837 283.268 106.153C282.643 105.46 281.783 105.113 280.689 105.113ZM298.363 119.293C295.911 119.293 294.046 118.58 292.767 117.154C291.497 115.719 290.863 113.663 290.863 110.987C290.863 108.263 291.527 106.168 292.855 104.703C294.193 103.238 296.121 102.506 298.641 102.506C300.35 102.506 301.888 102.823 303.255 103.458L302.215 106.227C300.76 105.66 299.559 105.377 298.612 105.377C295.809 105.377 294.407 107.237 294.407 110.958C294.407 112.774 294.754 114.142 295.447 115.06C296.151 115.968 297.176 116.422 298.524 116.422C300.057 116.422 301.507 116.041 302.874 115.279V118.282C302.259 118.644 301.6 118.902 300.897 119.059C300.203 119.215 299.359 119.293 298.363 119.293ZM310.425 119H306.983V102.799H310.425V119ZM306.778 98.5068C306.778 97.8916 306.944 97.418 307.276 97.0859C307.618 96.7539 308.101 96.5879 308.726 96.5879C309.331 96.5879 309.8 96.7539 310.132 97.0859C310.474 97.418 310.645 97.8916 310.645 98.5068C310.645 99.0928 310.474 99.5566 310.132 99.8984C309.8 100.23 309.331 100.396 308.726 100.396C308.101 100.396 307.618 100.23 307.276 99.8984C306.944 99.5566 306.778 99.0928 306.778 98.5068ZM325.798 119L325.11 116.744H324.993C324.212 117.73 323.425 118.404 322.634 118.766C321.843 119.117 320.828 119.293 319.587 119.293C317.996 119.293 316.751 118.863 315.852 118.004C314.963 117.145 314.519 115.929 314.519 114.356C314.519 112.687 315.139 111.427 316.379 110.577C317.62 109.728 319.509 109.264 322.048 109.186L324.846 109.098V108.233C324.846 107.198 324.602 106.427 324.114 105.919C323.635 105.401 322.888 105.143 321.873 105.143C321.043 105.143 320.247 105.265 319.485 105.509C318.723 105.753 317.991 106.041 317.288 106.373L316.174 103.912C317.053 103.453 318.015 103.106 319.06 102.872C320.105 102.628 321.091 102.506 322.019 102.506C324.08 102.506 325.632 102.955 326.677 103.854C327.732 104.752 328.259 106.163 328.259 108.087V119H325.798ZM320.671 116.656C321.921 116.656 322.922 116.31 323.674 115.616C324.436 114.913 324.817 113.932 324.817 112.672V111.266L322.737 111.354C321.116 111.412 319.934 111.686 319.192 112.174C318.46 112.652 318.093 113.39 318.093 114.386C318.093 115.108 318.308 115.67 318.738 116.07C319.168 116.461 319.812 116.656 320.671 116.656ZM336.806 119H333.364V96.207H336.806V119ZM367.919 108.087C367.919 111.622 366.938 114.327 364.975 116.202C363.012 118.067 360.185 119 356.493 119H350.502V97.584H357.123C360.531 97.584 363.183 98.502 365.077 100.338C366.972 102.174 367.919 104.757 367.919 108.087ZM364.228 108.204C364.228 103.077 361.83 100.514 357.035 100.514H354.003V116.056H356.493C361.65 116.056 364.228 113.438 364.228 108.204ZM379.542 119.293C377.023 119.293 375.05 118.561 373.624 117.096C372.208 115.621 371.5 113.595 371.5 111.017C371.5 108.37 372.16 106.29 373.478 104.776C374.796 103.263 376.608 102.506 378.913 102.506C381.051 102.506 382.741 103.155 383.981 104.454C385.221 105.753 385.841 107.54 385.841 109.815V111.676H375.045C375.094 113.248 375.519 114.459 376.32 115.309C377.121 116.148 378.248 116.568 379.704 116.568C380.661 116.568 381.549 116.48 382.37 116.305C383.2 116.119 384.088 115.816 385.036 115.396V118.194C384.196 118.595 383.346 118.878 382.487 119.044C381.627 119.21 380.646 119.293 379.542 119.293ZM378.913 105.113C377.819 105.113 376.94 105.46 376.276 106.153C375.621 106.847 375.231 107.857 375.104 109.186H382.457C382.438 107.848 382.116 106.837 381.491 106.153C380.866 105.46 380.006 105.113 378.913 105.113ZM400.189 119L399.501 116.744H399.383C398.602 117.73 397.816 118.404 397.025 118.766C396.234 119.117 395.218 119.293 393.978 119.293C392.386 119.293 391.141 118.863 390.243 118.004C389.354 117.145 388.91 115.929 388.91 114.356C388.91 112.687 389.53 111.427 390.77 110.577C392.01 109.728 393.9 109.264 396.439 109.186L399.237 109.098V108.233C399.237 107.198 398.993 106.427 398.504 105.919C398.026 105.401 397.279 105.143 396.263 105.143C395.433 105.143 394.637 105.265 393.876 105.509C393.114 105.753 392.381 106.041 391.678 106.373L390.565 103.912C391.444 103.453 392.406 103.106 393.451 102.872C394.496 102.628 395.482 102.506 396.41 102.506C398.47 102.506 400.023 102.955 401.068 103.854C402.123 104.752 402.65 106.163 402.65 108.087V119H400.189ZM395.062 116.656C396.312 116.656 397.313 116.31 398.065 115.616C398.827 114.913 399.208 113.932 399.208 112.672V111.266L397.128 111.354C395.506 111.412 394.325 111.686 393.583 112.174C392.85 112.652 392.484 113.39 392.484 114.386C392.484 115.108 392.699 115.67 393.129 116.07C393.558 116.461 394.203 116.656 395.062 116.656ZM411.197 119H407.755V96.207H411.197V119ZM427.317 114.386C427.317 115.968 426.741 117.184 425.589 118.033C424.437 118.873 422.786 119.293 420.638 119.293C418.479 119.293 416.746 118.966 415.438 118.312V115.338C417.342 116.217 419.114 116.656 420.755 116.656C422.874 116.656 423.934 116.017 423.934 114.737C423.934 114.327 423.816 113.985 423.582 113.712C423.348 113.438 422.962 113.155 422.425 112.862C421.888 112.569 421.141 112.237 420.184 111.866C418.318 111.144 417.054 110.421 416.39 109.698C415.735 108.976 415.408 108.038 415.408 106.886C415.408 105.499 415.965 104.425 417.078 103.663C418.201 102.892 419.725 102.506 421.648 102.506C423.553 102.506 425.354 102.892 427.054 103.663L425.94 106.256C424.192 105.533 422.723 105.172 421.531 105.172C419.715 105.172 418.807 105.689 418.807 106.725C418.807 107.232 419.041 107.662 419.51 108.014C419.988 108.365 421.023 108.849 422.615 109.464C423.953 109.981 424.925 110.455 425.53 110.885C426.136 111.314 426.585 111.812 426.878 112.379C427.171 112.936 427.317 113.604 427.317 114.386Z" fill="white"/>
<path d="M125.628 240H122.874V228.938C122.874 227.617 122.905 226.57 122.968 225.797C122.788 225.984 122.565 226.191 122.3 226.418C122.042 226.645 121.167 227.363 119.675 228.574L118.292 226.828L123.331 222.867H125.628V240ZM143.106 231.434C143.106 234.41 142.626 236.621 141.665 238.066C140.712 239.512 139.251 240.234 137.282 240.234C135.376 240.234 133.93 239.488 132.946 237.996C131.962 236.504 131.47 234.316 131.47 231.434C131.47 228.41 131.946 226.184 132.899 224.754C133.86 223.316 135.321 222.598 137.282 222.598C139.196 222.598 140.645 223.348 141.63 224.848C142.614 226.348 143.106 228.543 143.106 231.434ZM134.259 231.434C134.259 233.77 134.497 235.438 134.973 236.438C135.458 237.438 136.227 237.938 137.282 237.938C138.337 237.938 139.106 237.43 139.591 236.414C140.083 235.398 140.329 233.738 140.329 231.434C140.329 229.137 140.083 227.477 139.591 226.453C139.106 225.422 138.337 224.906 137.282 224.906C136.227 224.906 135.458 225.41 134.973 226.418C134.497 227.426 134.259 229.098 134.259 231.434ZM151.707 234.738V232.395H157.731V234.738H151.707ZM177.336 226.805C177.336 227.891 177.019 228.797 176.387 229.523C175.754 230.242 174.863 230.727 173.715 230.977V231.07C175.09 231.242 176.121 231.672 176.808 232.359C177.496 233.039 177.84 233.945 177.84 235.078C177.84 236.727 177.258 238 176.094 238.898C174.93 239.789 173.273 240.234 171.125 240.234C169.226 240.234 167.625 239.926 166.32 239.309V236.859C167.047 237.219 167.816 237.496 168.629 237.691C169.441 237.887 170.222 237.984 170.972 237.984C172.301 237.984 173.293 237.738 173.949 237.246C174.605 236.754 174.933 235.992 174.933 234.961C174.933 234.047 174.57 233.375 173.844 232.945C173.117 232.516 171.976 232.301 170.422 232.301H168.933V230.062H170.445C173.18 230.062 174.547 229.117 174.547 227.227C174.547 226.492 174.308 225.926 173.832 225.527C173.355 225.129 172.652 224.93 171.722 224.93C171.074 224.93 170.449 225.023 169.847 225.211C169.246 225.391 168.535 225.746 167.715 226.277L166.367 224.355C167.937 223.199 169.762 222.621 171.84 222.621C173.566 222.621 174.914 222.992 175.883 223.734C176.851 224.477 177.336 225.5 177.336 226.805ZM191.931 231.434C191.931 234.41 191.451 236.621 190.49 238.066C189.537 239.512 188.076 240.234 186.107 240.234C184.201 240.234 182.755 239.488 181.771 237.996C180.787 236.504 180.295 234.316 180.295 231.434C180.295 228.41 180.771 226.184 181.724 224.754C182.685 223.316 184.146 222.598 186.107 222.598C188.021 222.598 189.47 223.348 190.455 224.848C191.439 226.348 191.931 228.543 191.931 231.434ZM183.084 231.434C183.084 233.77 183.322 235.438 183.798 236.438C184.283 237.438 185.052 237.938 186.107 237.938C187.162 237.938 187.931 237.43 188.416 236.414C188.908 235.398 189.154 233.738 189.154 231.434C189.154 229.137 188.908 227.477 188.416 226.453C187.931 225.422 187.162 224.906 186.107 224.906C185.052 224.906 184.283 225.41 183.798 226.418C183.322 227.426 183.084 229.098 183.084 231.434ZM212.579 240L210.868 235.242H204.317L202.642 240H199.689L206.099 222.797H209.146L215.556 240H212.579ZM210.13 232.828L208.525 228.164C208.407 227.852 208.243 227.359 208.032 226.688C207.829 226.016 207.689 225.523 207.61 225.211C207.4 226.172 207.091 227.223 206.685 228.363L205.138 232.828H210.13ZM224.339 240.234C222.698 240.234 221.425 239.645 220.518 238.465H220.354C220.464 239.559 220.518 240.223 220.518 240.457V245.766H217.765V227.039H219.991C220.054 227.281 220.183 227.859 220.378 228.773H220.518C221.378 227.461 222.667 226.805 224.386 226.805C226.003 226.805 227.261 227.391 228.159 228.562C229.065 229.734 229.518 231.379 229.518 233.496C229.518 235.613 229.058 237.266 228.136 238.453C227.222 239.641 225.956 240.234 224.339 240.234ZM223.671 229.055C222.577 229.055 221.776 229.375 221.268 230.016C220.768 230.656 220.518 231.68 220.518 233.086V233.496C220.518 235.074 220.768 236.219 221.268 236.93C221.768 237.633 222.585 237.984 223.718 237.984C224.671 237.984 225.405 237.594 225.921 236.812C226.436 236.031 226.694 234.918 226.694 233.473C226.694 232.02 226.436 230.922 225.921 230.18C225.413 229.43 224.663 229.055 223.671 229.055ZM239.532 226.805C240.087 226.805 240.544 226.844 240.903 226.922L240.633 229.488C240.243 229.395 239.837 229.348 239.415 229.348C238.313 229.348 237.419 229.707 236.731 230.426C236.051 231.145 235.712 232.078 235.712 233.227V240H232.958V227.039H235.114L235.477 229.324H235.618C236.048 228.551 236.606 227.938 237.294 227.484C237.989 227.031 238.735 226.805 239.532 226.805ZM246.311 240H243.557V227.039H246.311V240ZM243.393 223.605C243.393 223.113 243.526 222.734 243.791 222.469C244.065 222.203 244.452 222.07 244.952 222.07C245.436 222.07 245.811 222.203 246.077 222.469C246.35 222.734 246.487 223.113 246.487 223.605C246.487 224.074 246.35 224.445 246.077 224.719C245.811 224.984 245.436 225.117 244.952 225.117C244.452 225.117 244.065 224.984 243.791 224.719C243.526 224.445 243.393 224.074 243.393 223.605ZM253.254 240H250.5V221.766H253.254V240ZM274.617 240H263.004V237.914L267.422 233.473C268.726 232.137 269.59 231.191 270.011 230.637C270.441 230.074 270.754 229.547 270.949 229.055C271.144 228.562 271.242 228.035 271.242 227.473C271.242 226.699 271.008 226.09 270.539 225.645C270.078 225.199 269.437 224.977 268.617 224.977C267.961 224.977 267.324 225.098 266.707 225.34C266.097 225.582 265.39 226.02 264.586 226.652L263.097 224.836C264.05 224.031 264.976 223.461 265.875 223.125C266.773 222.789 267.73 222.621 268.746 222.621C270.34 222.621 271.617 223.039 272.578 223.875C273.539 224.703 274.019 225.82 274.019 227.227C274.019 228 273.879 228.734 273.597 229.43C273.324 230.125 272.898 230.844 272.32 231.586C271.75 232.32 270.797 233.316 269.461 234.574L266.484 237.457V237.574H274.617V240ZM288.568 231.434C288.568 234.41 288.087 236.621 287.126 238.066C286.173 239.512 284.712 240.234 282.744 240.234C280.837 240.234 279.392 239.488 278.408 237.996C277.423 236.504 276.931 234.316 276.931 231.434C276.931 228.41 277.408 226.184 278.361 224.754C279.322 223.316 280.783 222.598 282.744 222.598C284.658 222.598 286.107 223.348 287.091 224.848C288.076 226.348 288.568 228.543 288.568 231.434ZM279.72 231.434C279.72 233.77 279.958 235.438 280.435 236.438C280.919 237.438 281.689 237.938 282.744 237.938C283.798 237.938 284.568 237.43 285.052 236.414C285.544 235.398 285.79 233.738 285.79 231.434C285.79 229.137 285.544 227.477 285.052 226.453C284.568 225.422 283.798 224.906 282.744 224.906C281.689 224.906 280.919 225.41 280.435 226.418C279.958 227.426 279.72 229.098 279.72 231.434ZM302.519 240H290.905V237.914L295.323 233.473C296.628 232.137 297.491 231.191 297.913 230.637C298.343 230.074 298.655 229.547 298.851 229.055C299.046 228.562 299.144 228.035 299.144 227.473C299.144 226.699 298.909 226.09 298.441 225.645C297.98 225.199 297.339 224.977 296.519 224.977C295.862 224.977 295.226 225.098 294.609 225.34C293.999 225.582 293.292 226.02 292.487 226.652L290.999 224.836C291.952 224.031 292.878 223.461 293.777 223.125C294.675 222.789 295.632 222.621 296.648 222.621C298.241 222.621 299.519 223.039 300.48 223.875C301.441 224.703 301.921 225.82 301.921 227.227C301.921 228 301.78 228.734 301.499 229.43C301.226 230.125 300.8 230.844 300.222 231.586C299.652 232.32 298.698 233.316 297.362 234.574L294.386 237.457V237.574H302.519V240ZM312.942 240H310.188V228.938C310.188 227.617 310.22 226.57 310.282 225.797C310.103 225.984 309.88 226.191 309.614 226.418C309.356 226.645 308.481 227.363 306.989 228.574L305.606 226.828L310.645 222.867H312.942V240Z" fill="white"/>
<path d="M789.004 127.904C789.004 132.135 787.796 135.375 785.382 137.625C782.98 139.875 779.505 141 774.959 141H767.681V115.301H775.75C779.945 115.301 783.203 116.408 785.523 118.623C787.843 120.838 789.004 123.932 789.004 127.904ZM783.343 128.045C783.343 122.525 780.906 119.766 776.031 119.766H773.13V136.5H775.468C780.718 136.5 783.343 133.682 783.343 128.045ZM794.579 116.268C794.579 114.521 795.552 113.648 797.497 113.648C799.443 113.648 800.415 114.521 800.415 116.268C800.415 117.1 800.169 117.75 799.677 118.219C799.196 118.676 798.47 118.904 797.497 118.904C795.552 118.904 794.579 118.025 794.579 116.268ZM800.169 141H794.808V121.348H800.169V141ZM820.423 135.164C820.423 137.18 819.72 138.715 818.313 139.77C816.919 140.824 814.827 141.352 812.038 141.352C810.608 141.352 809.389 141.252 808.382 141.053C807.374 140.865 806.43 140.584 805.552 140.209V135.779C806.548 136.248 807.667 136.641 808.909 136.957C810.163 137.273 811.264 137.432 812.214 137.432C814.159 137.432 815.132 136.869 815.132 135.744C815.132 135.322 815.003 134.982 814.745 134.725C814.487 134.455 814.042 134.156 813.409 133.828C812.776 133.488 811.932 133.096 810.878 132.65C809.366 132.018 808.253 131.432 807.538 130.893C806.835 130.354 806.319 129.738 805.991 129.047C805.675 128.344 805.516 127.482 805.516 126.463C805.516 124.717 806.19 123.369 807.538 122.42C808.897 121.459 810.819 120.979 813.304 120.979C815.671 120.979 817.973 121.494 820.212 122.525L818.595 126.393C817.61 125.971 816.69 125.625 815.835 125.355C814.979 125.086 814.106 124.951 813.216 124.951C811.634 124.951 810.843 125.379 810.843 126.234C810.843 126.715 811.095 127.131 811.598 127.482C812.114 127.834 813.233 128.355 814.956 129.047C816.491 129.668 817.616 130.248 818.331 130.787C819.046 131.326 819.573 131.947 819.913 132.65C820.253 133.354 820.423 134.191 820.423 135.164ZM833.487 141.352C827.37 141.352 824.311 137.994 824.311 131.279C824.311 127.939 825.143 125.391 826.807 123.633C828.471 121.863 830.856 120.979 833.961 120.979C836.235 120.979 838.274 121.424 840.079 122.314L838.496 126.463C837.653 126.123 836.868 125.848 836.141 125.637C835.414 125.414 834.688 125.303 833.961 125.303C831.172 125.303 829.778 127.283 829.778 131.244C829.778 135.088 831.172 137.01 833.961 137.01C834.993 137.01 835.948 136.875 836.827 136.605C837.705 136.324 838.584 135.891 839.463 135.305V139.893C838.596 140.443 837.717 140.824 836.827 141.035C835.948 141.246 834.834 141.352 833.487 141.352ZM849.205 131.139C849.205 133.084 849.521 134.555 850.154 135.551C850.799 136.547 851.842 137.045 853.283 137.045C854.713 137.045 855.738 136.553 856.359 135.568C856.992 134.572 857.309 133.096 857.309 131.139C857.309 129.193 856.992 127.734 856.359 126.762C855.727 125.789 854.689 125.303 853.248 125.303C851.818 125.303 850.787 125.789 850.154 126.762C849.521 127.723 849.205 129.182 849.205 131.139ZM862.793 131.139C862.793 134.338 861.949 136.84 860.262 138.645C858.574 140.449 856.225 141.352 853.213 141.352C851.326 141.352 849.662 140.941 848.221 140.121C846.779 139.289 845.672 138.1 844.898 136.553C844.125 135.006 843.738 133.201 843.738 131.139C843.738 127.928 844.576 125.432 846.252 123.65C847.928 121.869 850.283 120.979 853.318 120.979C855.205 120.979 856.869 121.389 858.311 122.209C859.752 123.029 860.859 124.207 861.633 125.742C862.406 127.277 862.793 129.076 862.793 131.139ZM882.045 141L881.324 138.486H881.043C880.468 139.4 879.654 140.109 878.599 140.613C877.545 141.105 876.343 141.352 874.996 141.352C872.687 141.352 870.947 140.736 869.775 139.506C868.603 138.264 868.017 136.482 868.017 134.162V121.348H873.379V132.826C873.379 134.244 873.63 135.311 874.134 136.025C874.638 136.729 875.441 137.08 876.543 137.08C878.043 137.08 879.127 136.582 879.795 135.586C880.462 134.578 880.796 132.914 880.796 130.594V121.348H886.158V141H882.045ZM910.823 141H905.462V129.521C905.462 128.104 905.21 127.043 904.706 126.34C904.202 125.625 903.4 125.268 902.298 125.268C900.798 125.268 899.714 125.771 899.046 126.779C898.378 127.775 898.044 129.434 898.044 131.754V141H892.683V121.348H896.779L897.499 123.861H897.798C898.396 122.912 899.216 122.197 900.259 121.717C901.314 121.225 902.509 120.979 903.845 120.979C906.13 120.979 907.864 121.6 909.048 122.842C910.232 124.072 910.823 125.854 910.823 128.186V141ZM925.522 137.08C926.46 137.08 927.585 136.875 928.897 136.465V140.455C927.561 141.053 925.921 141.352 923.975 141.352C921.831 141.352 920.266 140.812 919.282 139.734C918.309 138.645 917.823 137.016 917.823 134.848V125.373H915.257V123.105L918.21 121.312L919.757 117.164H923.184V121.348H928.686V125.373H923.184V134.848C923.184 135.609 923.395 136.172 923.817 136.535C924.251 136.898 924.819 137.08 925.522 137.08ZM957.961 141L957.24 138.486H956.959C956.385 139.4 955.57 140.109 954.516 140.613C953.461 141.105 952.26 141.352 950.912 141.352C948.604 141.352 946.863 140.736 945.691 139.506C944.52 138.264 943.934 136.482 943.934 134.162V121.348H949.295V132.826C949.295 134.244 949.547 135.311 950.051 136.025C950.555 136.729 951.357 137.08 952.459 137.08C953.959 137.08 955.043 136.582 955.711 135.586C956.379 134.578 956.713 132.914 956.713 130.594V121.348H962.074V141H957.961ZM979.392 141.352C977.084 141.352 975.273 140.514 973.961 138.838H973.679C973.867 140.479 973.961 141.428 973.961 141.686V149.648H968.599V121.348H972.959L973.714 123.896H973.961C975.214 121.951 977.072 120.979 979.533 120.979C981.853 120.979 983.67 121.875 984.982 123.668C986.295 125.461 986.951 127.951 986.951 131.139C986.951 133.236 986.64 135.059 986.019 136.605C985.41 138.152 984.537 139.33 983.4 140.139C982.263 140.947 980.927 141.352 979.392 141.352ZM977.81 125.268C976.486 125.268 975.519 125.678 974.91 126.498C974.3 127.307 973.984 128.648 973.961 130.523V131.104C973.961 133.213 974.271 134.725 974.892 135.639C975.525 136.553 976.521 137.01 977.88 137.01C980.283 137.01 981.484 135.029 981.484 131.068C981.484 129.135 981.185 127.688 980.587 126.727C980.002 125.754 979.076 125.268 977.81 125.268ZM1010.81 137.08C1011.75 137.08 1012.87 136.875 1014.19 136.465V140.455C1012.85 141.053 1011.21 141.352 1009.26 141.352C1007.12 141.352 1005.56 140.812 1004.57 139.734C1003.6 138.645 1003.11 137.016 1003.11 134.848V125.373H1000.55V123.105L1003.5 121.312L1005.05 117.164H1008.47V121.348H1013.98V125.373H1008.47V134.848C1008.47 135.609 1008.68 136.172 1009.11 136.535C1009.54 136.898 1010.11 137.08 1010.81 137.08ZM1023.35 131.139C1023.35 133.084 1023.66 134.555 1024.3 135.551C1024.94 136.547 1025.98 137.045 1027.43 137.045C1028.86 137.045 1029.88 136.553 1030.5 135.568C1031.14 134.572 1031.45 133.096 1031.45 131.139C1031.45 129.193 1031.14 127.734 1030.5 126.762C1029.87 125.789 1028.83 125.303 1027.39 125.303C1025.96 125.303 1024.93 125.789 1024.3 126.762C1023.66 127.723 1023.35 129.182 1023.35 131.139ZM1036.94 131.139C1036.94 134.338 1036.09 136.84 1034.4 138.645C1032.72 140.449 1030.37 141.352 1027.36 141.352C1025.47 141.352 1023.81 140.941 1022.36 140.121C1020.92 139.289 1019.81 138.1 1019.04 136.553C1018.27 135.006 1017.88 133.201 1017.88 131.139C1017.88 127.928 1018.72 125.432 1020.39 123.65C1022.07 121.869 1024.43 120.979 1027.46 120.979C1029.35 120.979 1031.01 121.389 1032.45 122.209C1033.89 123.029 1035 124.207 1035.78 125.742C1036.55 127.277 1036.94 129.076 1036.94 131.139ZM850.069 182.797C850.069 187.078 848.772 190.719 846.178 193.719C843.584 196.719 839.944 198.781 835.256 199.906V200.188C840.787 200.875 844.975 202.562 847.819 205.25C850.662 207.906 852.084 211.5 852.084 216.031C852.084 222.625 849.694 227.766 844.912 231.453C840.131 235.109 833.303 236.938 824.428 236.938C816.991 236.938 810.397 235.703 804.647 233.234V220.906C807.303 222.25 810.225 223.344 813.412 224.188C816.6 225.031 819.756 225.453 822.881 225.453C827.662 225.453 831.194 224.641 833.475 223.016C835.756 221.391 836.897 218.781 836.897 215.188C836.897 211.969 835.584 209.688 832.959 208.344C830.334 207 826.147 206.328 820.397 206.328H815.194V195.219H820.491C825.803 195.219 829.678 194.531 832.116 193.156C834.584 191.75 835.819 189.359 835.819 185.984C835.819 180.797 832.569 178.203 826.069 178.203C823.819 178.203 821.522 178.578 819.178 179.328C816.866 180.078 814.287 181.375 811.444 183.219L804.741 173.234C810.991 168.734 818.444 166.484 827.1 166.484C834.194 166.484 839.787 167.922 843.881 170.797C848.006 173.672 850.069 177.672 850.069 182.797ZM909.609 201.734C909.609 213.703 907.641 222.562 903.703 228.312C899.797 234.062 893.766 236.938 885.609 236.938C877.703 236.938 871.734 233.969 867.703 228.031C863.703 222.094 861.703 213.328 861.703 201.734C861.703 189.641 863.656 180.734 867.562 175.016C871.469 169.266 877.484 166.391 885.609 166.391C893.516 166.391 899.484 169.391 903.516 175.391C907.578 181.391 909.609 190.172 909.609 201.734ZM876.094 201.734C876.094 210.141 876.812 216.172 878.25 219.828C879.719 223.453 882.172 225.266 885.609 225.266C888.984 225.266 891.422 223.422 892.922 219.734C894.422 216.047 895.172 210.047 895.172 201.734C895.172 193.328 894.406 187.297 892.875 183.641C891.375 179.953 888.953 178.109 885.609 178.109C882.203 178.109 879.766 179.953 878.297 183.641C876.828 187.297 876.094 193.328 876.094 201.734ZM930.244 188C930.244 191.969 930.587 194.938 931.275 196.906C931.994 198.844 933.134 199.812 934.697 199.812C937.697 199.812 939.197 195.875 939.197 188C939.197 180.188 937.697 176.281 934.697 176.281C933.134 176.281 931.994 177.25 931.275 179.188C930.587 181.094 930.244 184.031 930.244 188ZM951.009 187.906C951.009 195.094 949.619 200.5 946.837 204.125C944.056 207.719 939.978 209.516 934.603 209.516C929.447 209.516 925.462 207.672 922.65 203.984C919.837 200.266 918.431 194.906 918.431 187.906C918.431 173.625 923.822 166.484 934.603 166.484C939.884 166.484 943.931 168.344 946.744 172.062C949.587 175.75 951.009 181.031 951.009 187.906ZM983.259 167.469L945.244 236H933.994L972.009 167.469H983.259ZM978.244 215.375C978.244 219.344 978.587 222.312 979.275 224.281C979.994 226.219 981.134 227.188 982.697 227.188C985.697 227.188 987.197 223.25 987.197 215.375C987.197 207.562 985.697 203.656 982.697 203.656C981.134 203.656 979.994 204.625 979.275 206.562C978.587 208.469 978.244 211.406 978.244 215.375ZM999.009 215.281C999.009 222.438 997.619 227.828 994.837 231.453C992.056 235.047 987.978 236.844 982.603 236.844C977.447 236.844 973.462 235 970.65 231.312C967.837 227.594 966.431 222.25 966.431 215.281C966.431 201 971.822 193.859 982.603 193.859C987.884 193.859 991.931 195.719 994.744 199.438C997.587 203.125 999.009 208.406 999.009 215.281Z" fill="white"/>
<defs>
<filter id="filter0_d" x="0" y="0" width="1145" height="382" filterUnits="userSpaceOnUse" color-interpolation-filters="sRGB">
<feFlood flood-opacity="0" result="BackgroundImageFix"/>
<feColorMatrix in="SourceAlpha" type="matrix" values="0 0 0 0 0 0 0 0 0 0 0 0 0 0 0 0 0 0 127 0"/>
<feMorphology radius="1" operator="dilate" in="SourceAlpha" result="effect1_dropShadow"/>
<feOffset dy="4"/>
<feGaussianBlur stdDeviation="8.5"/>
<feColorMatrix type="matrix" values="0 0 0 0 0.633333 0 0 0 0 0.633333 0 0 0 0 0.633333 0 0 0 0.25 0"/>
<feBlend mode="normal" in2="BackgroundImageFix" result="effect1_dropShadow"/>
<feBlend mode="normal" in="SourceGraphic" in2="effect1_dropShadow" result="shape"/>
</filter>
<linearGradient id="paint0_linear" x1="433" y1="360" x2="1143" y2="1.49995" gradientUnits="userSpaceOnUse">
<stop stop-color="white" stop-opacity="0.63"/>
<stop offset="1" stop-color="white" stop-opacity="0"/>
</linearGradient>
</defs>
</svg>
