<svg width="1145" height="382" viewBox="0 0 1145 382" fill="none" xmlns="http://www.w3.org/2000/svg">
<g filter="url(#filter0_d)">
<rect x="18" y="14" width="1109" height="346" rx="14" fill="url(#paint0_linear)" fill-opacity="0.48"/>
</g>
<path d="M127.461 197H120.312V162.734H139.953V168.688H127.461V177.523H139.086V183.453H127.461V197ZM161.199 170.305C162.167 170.305 162.972 170.375 163.613 170.516L163.074 177.219C162.496 177.062 161.792 176.984 160.964 176.984C158.683 176.984 156.902 177.57 155.621 178.742C154.355 179.914 153.722 181.555 153.722 183.664V197H146.574V170.797H151.988L153.042 175.203H153.394C154.207 173.734 155.3 172.555 156.675 171.664C158.066 170.758 159.574 170.305 161.199 170.305ZM168.546 164.023C168.546 161.695 169.843 160.531 172.437 160.531C175.03 160.531 176.327 161.695 176.327 164.023C176.327 165.133 175.999 166 175.343 166.625C174.702 167.234 173.733 167.539 172.437 167.539C169.843 167.539 168.546 166.367 168.546 164.023ZM175.999 197H168.851V170.797H175.999V197ZM192.299 197.469C189.221 197.469 186.799 196.273 185.034 193.883C183.284 191.492 182.409 188.18 182.409 183.945C182.409 179.648 183.299 176.305 185.081 173.914C186.878 171.508 189.346 170.305 192.487 170.305C195.784 170.305 198.299 171.586 200.034 174.148H200.268C199.909 172.195 199.729 170.453 199.729 168.922V160.531H206.901V197H201.417L200.034 193.602H199.729C198.104 196.18 195.628 197.469 192.299 197.469ZM194.807 191.773C196.635 191.773 197.971 191.242 198.815 190.18C199.674 189.117 200.143 187.312 200.221 184.766V183.992C200.221 181.18 199.784 179.164 198.909 177.945C198.049 176.727 196.643 176.117 194.69 176.117C193.096 176.117 191.854 176.797 190.963 178.156C190.088 179.5 189.651 181.461 189.651 184.039C189.651 186.617 190.096 188.555 190.987 189.852C191.878 191.133 193.151 191.773 194.807 191.773ZM231.498 197L230.115 193.438H229.928C228.725 194.953 227.482 196.008 226.201 196.602C224.936 197.18 223.279 197.469 221.232 197.469C218.717 197.469 216.732 196.75 215.279 195.312C213.842 193.875 213.123 191.828 213.123 189.172C213.123 186.391 214.092 184.344 216.029 183.031C217.982 181.703 220.92 180.969 224.842 180.828L229.389 180.688V179.539C229.389 176.883 228.029 175.555 225.311 175.555C223.217 175.555 220.756 176.188 217.928 177.453L215.561 172.625C218.576 171.047 221.92 170.258 225.592 170.258C229.107 170.258 231.803 171.023 233.678 172.555C235.553 174.086 236.49 176.414 236.49 179.539V197H231.498ZM229.389 184.859L226.623 184.953C224.545 185.016 222.998 185.391 221.982 186.078C220.967 186.766 220.459 187.812 220.459 189.219C220.459 191.234 221.615 192.242 223.928 192.242C225.584 192.242 226.904 191.766 227.889 190.812C228.889 189.859 229.389 188.594 229.389 187.016V184.859ZM240.603 170.797H248.431L253.377 185.539C253.798 186.82 254.088 188.336 254.244 190.086H254.384C254.556 188.477 254.892 186.961 255.392 185.539L260.244 170.797H267.908L256.822 200.352C255.806 203.086 254.353 205.133 252.463 206.492C250.588 207.852 248.392 208.531 245.877 208.531C244.642 208.531 243.431 208.398 242.244 208.133V202.461C243.103 202.664 244.041 202.766 245.056 202.766C246.322 202.766 247.423 202.375 248.361 201.594C249.314 200.828 250.056 199.664 250.588 198.102L251.009 196.812L240.603 170.797ZM313.751 197H306.508V182.211H292.938V197H285.673V162.734H292.938V176.164H306.508V162.734H313.751V197ZM338.981 197L337.598 193.438H337.41C336.207 194.953 334.965 196.008 333.684 196.602C332.418 197.18 330.762 197.469 328.715 197.469C326.199 197.469 324.215 196.75 322.762 195.312C321.324 193.875 320.606 191.828 320.606 189.172C320.606 186.391 321.574 184.344 323.512 183.031C325.465 181.703 328.402 180.969 332.324 180.828L336.871 180.688V179.539C336.871 176.883 335.512 175.555 332.793 175.555C330.699 175.555 328.238 176.188 325.41 177.453L323.043 172.625C326.059 171.047 329.402 170.258 333.074 170.258C336.59 170.258 339.285 171.023 341.16 172.555C343.035 174.086 343.973 176.414 343.973 179.539V197H338.981ZM336.871 184.859L334.106 184.953C332.027 185.016 330.481 185.391 329.465 186.078C328.449 186.766 327.942 187.812 327.942 189.219C327.942 191.234 329.098 192.242 331.41 192.242C333.067 192.242 334.387 191.766 335.371 190.812C336.371 189.859 336.871 188.594 336.871 187.016V184.859ZM366.226 197.469C363.148 197.469 360.734 196.352 358.984 194.117H358.609C358.859 196.305 358.984 197.57 358.984 197.914V208.531H351.836V170.797H357.648L358.656 174.195H358.984C360.656 171.602 363.133 170.305 366.414 170.305C369.508 170.305 371.929 171.5 373.679 173.891C375.429 176.281 376.304 179.602 376.304 183.852C376.304 186.648 375.89 189.078 375.062 191.141C374.25 193.203 373.086 194.773 371.57 195.852C370.054 196.93 368.273 197.469 366.226 197.469ZM364.117 176.023C362.351 176.023 361.062 176.57 360.25 177.664C359.437 178.742 359.015 180.531 358.984 183.031V183.805C358.984 186.617 359.398 188.633 360.226 189.852C361.07 191.07 362.398 191.68 364.211 191.68C367.414 191.68 369.015 189.039 369.015 183.758C369.015 181.18 368.617 179.25 367.82 177.969C367.039 176.672 365.804 176.023 364.117 176.023ZM397.081 197.469C394.003 197.469 391.589 196.352 389.839 194.117H389.464C389.714 196.305 389.839 197.57 389.839 197.914V208.531H382.691V170.797H388.503L389.511 174.195H389.839C391.511 171.602 393.987 170.305 397.269 170.305C400.362 170.305 402.784 171.5 404.534 173.891C406.284 176.281 407.159 179.602 407.159 183.852C407.159 186.648 406.745 189.078 405.917 191.141C405.105 193.203 403.941 194.773 402.425 195.852C400.909 196.93 399.128 197.469 397.081 197.469ZM394.972 176.023C393.206 176.023 391.917 176.57 391.105 177.664C390.292 178.742 389.87 180.531 389.839 183.031V183.805C389.839 186.617 390.253 188.633 391.081 189.852C391.925 191.07 393.253 191.68 395.066 191.68C398.269 191.68 399.87 189.039 399.87 183.758C399.87 181.18 399.472 179.25 398.675 177.969C397.894 176.672 396.659 176.023 394.972 176.023ZM409.796 170.797H417.624L422.569 185.539C422.991 186.82 423.28 188.336 423.436 190.086H423.577C423.749 188.477 424.085 186.961 424.585 185.539L429.436 170.797H437.1L426.014 200.352C424.999 203.086 423.546 205.133 421.655 206.492C419.78 207.852 417.585 208.531 415.069 208.531C413.835 208.531 412.624 208.398 411.436 208.133V202.461C412.296 202.664 413.233 202.766 414.249 202.766C415.514 202.766 416.616 202.375 417.553 201.594C418.507 200.828 419.249 199.664 419.78 198.102L420.202 196.812L409.796 170.797ZM465.541 197H458.393V181.695C458.393 177.914 456.987 176.023 454.174 176.023C452.174 176.023 450.729 176.703 449.838 178.062C448.948 179.422 448.502 181.625 448.502 184.672V197H441.354V160.531H448.502V167.961C448.502 168.539 448.448 169.898 448.338 172.039L448.174 174.148H448.549C450.143 171.586 452.674 170.305 456.143 170.305C459.221 170.305 461.557 171.133 463.151 172.789C464.744 174.445 465.541 176.82 465.541 179.914V197ZM479.076 183.852C479.076 186.445 479.498 188.406 480.342 189.734C481.201 191.062 482.592 191.727 484.513 191.727C486.42 191.727 487.787 191.07 488.615 189.758C489.459 188.43 489.881 186.461 489.881 183.852C489.881 181.258 489.459 179.312 488.615 178.016C487.771 176.719 486.388 176.07 484.467 176.07C482.56 176.07 481.185 176.719 480.342 178.016C479.498 179.297 479.076 181.242 479.076 183.852ZM497.193 183.852C497.193 188.117 496.068 191.453 493.818 193.859C491.568 196.266 488.435 197.469 484.42 197.469C481.904 197.469 479.685 196.922 477.763 195.828C475.842 194.719 474.365 193.133 473.334 191.07C472.302 189.008 471.787 186.602 471.787 183.852C471.787 179.57 472.904 176.242 475.138 173.867C477.373 171.492 480.513 170.305 484.56 170.305C487.076 170.305 489.295 170.852 491.217 171.945C493.138 173.039 494.615 174.609 495.646 176.656C496.677 178.703 497.193 181.102 497.193 183.852ZM522.142 197L521.181 193.648H520.806C520.04 194.867 518.954 195.812 517.548 196.484C516.142 197.141 514.54 197.469 512.743 197.469C509.665 197.469 507.345 196.648 505.783 195.008C504.22 193.352 503.439 190.977 503.439 187.883V170.797H510.587V186.102C510.587 187.992 510.923 189.414 511.595 190.367C512.267 191.305 513.337 191.773 514.806 191.773C516.806 191.773 518.251 191.109 519.142 189.781C520.033 188.438 520.478 186.219 520.478 183.125V170.797H527.626V197H522.142ZM550.231 170.305C551.2 170.305 552.005 170.375 552.645 170.516L552.106 177.219C551.528 177.062 550.825 176.984 549.997 176.984C547.716 176.984 545.934 177.57 544.653 178.742C543.388 179.914 542.755 181.555 542.755 183.664V197H535.606V170.797H541.02L542.075 175.203H542.427C543.239 173.734 544.333 172.555 545.708 171.664C547.098 170.758 548.606 170.305 550.231 170.305Z" fill="white"/>
<path d="M778.504 127.904C778.504 132.135 777.296 135.375 774.882 137.625C772.48 139.875 769.005 141 764.459 141H757.181V115.301H765.25C769.445 115.301 772.703 116.408 775.023 118.623C777.343 120.838 778.504 123.932 778.504 127.904ZM772.843 128.045C772.843 122.525 770.406 119.766 765.531 119.766H762.63V136.5H764.968C770.218 136.5 772.843 133.682 772.843 128.045ZM784.079 116.268C784.079 114.521 785.052 113.648 786.997 113.648C788.943 113.648 789.915 114.521 789.915 116.268C789.915 117.1 789.669 117.75 789.177 118.219C788.696 118.676 787.97 118.904 786.997 118.904C785.052 118.904 784.079 118.025 784.079 116.268ZM789.669 141H784.308V121.348H789.669V141ZM809.923 135.164C809.923 137.18 809.22 138.715 807.813 139.77C806.419 140.824 804.327 141.352 801.538 141.352C800.108 141.352 798.889 141.252 797.882 141.053C796.874 140.865 795.93 140.584 795.052 140.209V135.779C796.048 136.248 797.167 136.641 798.409 136.957C799.663 137.273 800.764 137.432 801.714 137.432C803.659 137.432 804.632 136.869 804.632 135.744C804.632 135.322 804.503 134.982 804.245 134.725C803.987 134.455 803.542 134.156 802.909 133.828C802.276 133.488 801.432 133.096 800.378 132.65C798.866 132.018 797.753 131.432 797.038 130.893C796.335 130.354 795.819 129.738 795.491 129.047C795.175 128.344 795.016 127.482 795.016 126.463C795.016 124.717 795.69 123.369 797.038 122.42C798.397 121.459 800.319 120.979 802.804 120.979C805.171 120.979 807.473 121.494 809.712 122.525L808.095 126.393C807.11 125.971 806.19 125.625 805.335 125.355C804.479 125.086 803.606 124.951 802.716 124.951C801.134 124.951 800.343 125.379 800.343 126.234C800.343 126.715 800.595 127.131 801.098 127.482C801.614 127.834 802.733 128.355 804.456 129.047C805.991 129.668 807.116 130.248 807.831 130.787C808.546 131.326 809.073 131.947 809.413 132.65C809.753 133.354 809.923 134.191 809.923 135.164ZM822.987 141.352C816.87 141.352 813.811 137.994 813.811 131.279C813.811 127.939 814.643 125.391 816.307 123.633C817.971 121.863 820.356 120.979 823.461 120.979C825.735 120.979 827.774 121.424 829.579 122.314L827.996 126.463C827.153 126.123 826.368 125.848 825.641 125.637C824.914 125.414 824.188 125.303 823.461 125.303C820.672 125.303 819.278 127.283 819.278 131.244C819.278 135.088 820.672 137.01 823.461 137.01C824.493 137.01 825.448 136.875 826.327 136.605C827.205 136.324 828.084 135.891 828.963 135.305V139.893C828.096 140.443 827.217 140.824 826.327 141.035C825.448 141.246 824.334 141.352 822.987 141.352ZM838.705 131.139C838.705 133.084 839.021 134.555 839.654 135.551C840.299 136.547 841.342 137.045 842.783 137.045C844.213 137.045 845.238 136.553 845.859 135.568C846.492 134.572 846.809 133.096 846.809 131.139C846.809 129.193 846.492 127.734 845.859 126.762C845.227 125.789 844.189 125.303 842.748 125.303C841.318 125.303 840.287 125.789 839.654 126.762C839.021 127.723 838.705 129.182 838.705 131.139ZM852.293 131.139C852.293 134.338 851.449 136.84 849.762 138.645C848.074 140.449 845.725 141.352 842.713 141.352C840.826 141.352 839.162 140.941 837.721 140.121C836.279 139.289 835.172 138.1 834.398 136.553C833.625 135.006 833.238 133.201 833.238 131.139C833.238 127.928 834.076 125.432 835.752 123.65C837.428 121.869 839.783 120.979 842.818 120.979C844.705 120.979 846.369 121.389 847.811 122.209C849.252 123.029 850.359 124.207 851.133 125.742C851.906 127.277 852.293 129.076 852.293 131.139ZM871.545 141L870.824 138.486H870.543C869.968 139.4 869.154 140.109 868.099 140.613C867.045 141.105 865.843 141.352 864.496 141.352C862.187 141.352 860.447 140.736 859.275 139.506C858.103 138.264 857.517 136.482 857.517 134.162V121.348H862.879V132.826C862.879 134.244 863.13 135.311 863.634 136.025C864.138 136.729 864.941 137.08 866.043 137.08C867.543 137.08 868.627 136.582 869.295 135.586C869.962 134.578 870.296 132.914 870.296 130.594V121.348H875.658V141H871.545ZM900.323 141H894.962V129.521C894.962 128.104 894.71 127.043 894.206 126.34C893.702 125.625 892.9 125.268 891.798 125.268C890.298 125.268 889.214 125.771 888.546 126.779C887.878 127.775 887.544 129.434 887.544 131.754V141H882.183V121.348H886.279L886.999 123.861H887.298C887.896 122.912 888.716 122.197 889.759 121.717C890.814 121.225 892.009 120.979 893.345 120.979C895.63 120.979 897.364 121.6 898.548 122.842C899.732 124.072 900.323 125.854 900.323 128.186V141ZM915.022 137.08C915.96 137.08 917.085 136.875 918.397 136.465V140.455C917.061 141.053 915.421 141.352 913.475 141.352C911.331 141.352 909.766 140.812 908.782 139.734C907.809 138.645 907.323 137.016 907.323 134.848V125.373H904.757V123.105L907.71 121.312L909.257 117.164H912.684V121.348H918.186V125.373H912.684V134.848C912.684 135.609 912.895 136.172 913.317 136.535C913.751 136.898 914.319 137.08 915.022 137.08ZM947.461 141L946.74 138.486H946.459C945.885 139.4 945.07 140.109 944.016 140.613C942.961 141.105 941.76 141.352 940.412 141.352C938.104 141.352 936.363 140.736 935.191 139.506C934.02 138.264 933.434 136.482 933.434 134.162V121.348H938.795V132.826C938.795 134.244 939.047 135.311 939.551 136.025C940.055 136.729 940.857 137.08 941.959 137.08C943.459 137.08 944.543 136.582 945.211 135.586C945.879 134.578 946.213 132.914 946.213 130.594V121.348H951.574V141H947.461ZM968.892 141.352C966.584 141.352 964.773 140.514 963.461 138.838H963.179C963.367 140.479 963.461 141.428 963.461 141.686V149.648H958.099V121.348H962.459L963.214 123.896H963.461C964.714 121.951 966.572 120.979 969.033 120.979C971.353 120.979 973.17 121.875 974.482 123.668C975.795 125.461 976.451 127.951 976.451 131.139C976.451 133.236 976.14 135.059 975.519 136.605C974.91 138.152 974.037 139.33 972.9 140.139C971.763 140.947 970.427 141.352 968.892 141.352ZM967.31 125.268C965.986 125.268 965.019 125.678 964.41 126.498C963.8 127.307 963.484 128.648 963.461 130.523V131.104C963.461 133.213 963.771 134.725 964.392 135.639C965.025 136.553 966.021 137.01 967.38 137.01C969.783 137.01 970.984 135.029 970.984 131.068C970.984 129.135 970.685 127.688 970.087 126.727C969.502 125.754 968.576 125.268 967.31 125.268ZM1000.31 137.08C1001.25 137.08 1002.37 136.875 1003.69 136.465V140.455C1002.35 141.053 1000.71 141.352 998.764 141.352C996.62 141.352 995.055 140.812 994.071 139.734C993.098 138.645 992.612 137.016 992.612 134.848V125.373H990.046V123.105L992.999 121.312L994.546 117.164H997.973V121.348H1003.48V125.373H997.973V134.848C997.973 135.609 998.184 136.172 998.606 136.535C999.04 136.898 999.608 137.08 1000.31 137.08ZM1012.85 131.139C1012.85 133.084 1013.16 134.555 1013.8 135.551C1014.44 136.547 1015.48 137.045 1016.93 137.045C1018.36 137.045 1019.38 136.553 1020 135.568C1020.64 134.572 1020.95 133.096 1020.95 131.139C1020.95 129.193 1020.64 127.734 1020 126.762C1019.37 125.789 1018.33 125.303 1016.89 125.303C1015.46 125.303 1014.43 125.789 1013.8 126.762C1013.16 127.723 1012.85 129.182 1012.85 131.139ZM1026.44 131.139C1026.44 134.338 1025.59 136.84 1023.9 138.645C1022.22 140.449 1019.87 141.352 1016.86 141.352C1014.97 141.352 1013.31 140.941 1011.86 140.121C1010.42 139.289 1009.31 138.1 1008.54 136.553C1007.77 135.006 1007.38 133.201 1007.38 131.139C1007.38 127.928 1008.22 125.432 1009.89 123.65C1011.57 121.869 1013.93 120.979 1016.96 120.979C1018.85 120.979 1020.51 121.389 1021.95 122.209C1023.39 123.029 1024.5 124.207 1025.28 125.742C1026.05 127.277 1026.44 129.076 1026.44 131.139ZM750.155 236V201.734H757.42V236H750.155ZM795.675 218.539C795.675 224.18 794.066 228.5 790.847 231.5C787.644 234.5 783.011 236 776.948 236H767.245V201.734H778.003C783.597 201.734 787.941 203.211 791.034 206.164C794.128 209.117 795.675 213.242 795.675 218.539ZM788.128 218.727C788.128 211.367 784.878 207.688 778.378 207.688H774.511V230H777.628C784.628 230 788.128 226.242 788.128 218.727ZM811.242 216.945H813.586C815.883 216.945 817.578 216.562 818.672 215.797C819.766 215.031 820.313 213.828 820.313 212.188C820.313 210.562 819.75 209.406 818.625 208.719C817.516 208.031 815.789 207.688 813.445 207.688H811.242V216.945ZM811.242 222.852V236H803.977V201.734H813.961C818.617 201.734 822.063 202.586 824.297 204.289C826.531 205.977 827.648 208.547 827.648 212C827.648 214.016 827.094 215.812 825.984 217.391C824.875 218.953 823.305 220.18 821.273 221.07C826.43 228.773 829.789 233.75 831.352 236H823.289L815.109 222.852H811.242ZM861.333 192.219C867.958 192.219 873.223 194.078 877.13 197.797C881.067 201.516 883.036 206.609 883.036 213.078C883.036 220.734 880.677 226.625 875.958 230.75C871.239 234.875 864.489 236.938 855.708 236.938C848.083 236.938 841.927 235.703 837.239 233.234V220.719C839.708 222.031 842.583 223.109 845.864 223.953C849.145 224.766 852.255 225.172 855.192 225.172C864.036 225.172 868.458 221.547 868.458 214.297C868.458 207.391 863.88 203.938 854.723 203.938C853.067 203.938 851.239 204.109 849.239 204.453C847.239 204.766 845.614 205.109 844.364 205.484L838.598 202.391L841.177 167.469H878.348V179.75H853.88L852.614 193.203L854.255 192.875C856.161 192.438 858.52 192.219 861.333 192.219ZM941.17 201.734C941.17 213.703 939.202 222.562 935.264 228.312C931.358 234.062 925.327 236.938 917.17 236.938C909.264 236.938 903.295 233.969 899.264 228.031C895.264 222.094 893.264 213.328 893.264 201.734C893.264 189.641 895.217 180.734 899.123 175.016C903.03 169.266 909.045 166.391 917.17 166.391C925.077 166.391 931.045 169.391 935.077 175.391C939.139 181.391 941.17 190.172 941.17 201.734ZM907.655 201.734C907.655 210.141 908.373 216.172 909.811 219.828C911.28 223.453 913.733 225.266 917.17 225.266C920.545 225.266 922.983 223.422 924.483 219.734C925.983 216.047 926.733 210.047 926.733 201.734C926.733 193.328 925.967 187.297 924.436 183.641C922.936 179.953 920.514 178.109 917.17 178.109C913.764 178.109 911.327 179.953 909.858 183.641C908.389 187.297 907.655 193.328 907.655 201.734ZM998.414 201.734C998.414 213.703 996.445 222.562 992.508 228.312C988.602 234.062 982.57 236.938 974.414 236.938C966.508 236.938 960.539 233.969 956.508 228.031C952.508 222.094 950.508 213.328 950.508 201.734C950.508 189.641 952.461 180.734 956.367 175.016C960.273 169.266 966.289 166.391 974.414 166.391C982.32 166.391 988.289 169.391 992.32 175.391C996.383 181.391 998.414 190.172 998.414 201.734ZM964.898 201.734C964.898 210.141 965.617 216.172 967.055 219.828C968.523 223.453 970.977 225.266 974.414 225.266C977.789 225.266 980.227 223.422 981.727 219.734C983.227 216.047 983.977 210.047 983.977 201.734C983.977 193.328 983.211 187.297 981.68 183.641C980.18 179.953 977.758 178.109 974.414 178.109C971.008 178.109 968.57 179.953 967.102 183.641C965.633 187.297 964.898 193.328 964.898 201.734ZM1036.16 236H1027.91L1018.93 221.562L1015.86 223.766V236H1008.6V201.734H1015.86V217.414L1018.72 213.383L1028 201.734H1036.06L1024.11 216.898L1036.16 236Z" fill="white"/>
<defs>
<filter id="filter0_d" x="0" y="0" width="1145" height="382" filterUnits="userSpaceOnUse" color-interpolation-filters="sRGB">
<feFlood flood-opacity="0" result="BackgroundImageFix"/>
<feColorMatrix in="SourceAlpha" type="matrix" values="0 0 0 0 0 0 0 0 0 0 0 0 0 0 0 0 0 0 127 0"/>
<feMorphology radius="1" operator="dilate" in="SourceAlpha" result="effect1_dropShadow"/>
<feOffset dy="4"/>
<feGaussianBlur stdDeviation="8.5"/>
<feColorMatrix type="matrix" values="0 0 0 0 0.633333 0 0 0 0 0.633333 0 0 0 0 0.633333 0 0 0 0.25 0"/>
<feBlend mode="normal" in2="BackgroundImageFix" result="effect1_dropShadow"/>
<feBlend mode="normal" in="SourceGraphic" in2="effect1_dropShadow" result="shape"/>
</filter>
<linearGradient id="paint0_linear" x1="433" y1="360" x2="1143" y2="1.49995" gradientUnits="userSpaceOnUse">
<stop stop-color="white" stop-opacity="0.63"/>
<stop offset="1" stop-color="white" stop-opacity="0"/>
</linearGradient>
</defs>
</svg>
